dosis_semi-bold.sfdir
StartChar: exclam
Encoding: 33 33 214
Width: 210
Flags: W
LayerCount: 2
Back
Fore
SplineSet
158 690 m 0,0,1
 158 636 158 636 156 576 c 128,-1,2
 154 516 154 516 151.5 455 c 128,-1,3
 149 394 149 394 147 334 c 128,-1,4
 145 274 145 274 145 220 c 0,5,6
 145 203 145 203 131 195.5 c 128,-1,7
 117 188 117 188 105 188 c 0,8,9
 88 188 88 188 76 195.5 c 128,-1,10
 64 203 64 203 64 220 c 0,11,12
 64 274 64 274 62 334 c 128,-1,13
 60 394 60 394 58 455 c 128,-1,14
 56 516 56 516 54 576 c 128,-1,15
 52 636 52 636 52 690 c 0,16,17
 52 713 52 713 67 725.5 c 128,-1,18
 82 738 82 738 105 738 c 0,19,20
 127 738 127 738 142.5 725.5 c 128,-1,21
 158 713 158 713 158 690 c 0,0,1
106 114 m 0,22,23
 130 114 130 114 147.5 96.5 c 128,-1,24
 165 79 165 79 165 54 c 0,25,26
 165 30 165 30 147.5 12 c 128,-1,27
 130 -6 130 -6 106 -6 c 0,28,29
 80 -6 80 -6 63 12 c 128,-1,30
 46 30 46 30 46 54 c 0,31,32
 46 79 46 79 63 96.5 c 128,-1,33
 80 114 80 114 106 114 c 0,22,23
EndSplineSet
EndChar
StartChar: quotedbl
Encoding: 34 34 331
Width: 291
Flags: W
LayerCount: 2
Back
Fore
SplineSet
73 768 m 0,0,1
 89 768 89 768 102.5 760 c 128,-1,2
 116 752 116 752 116 739 c 2,3,-1
 106 598 l 2,4,5
 106 587 106 587 98 577.5 c 128,-1,6
 90 568 90 568 73 568 c 256,7,8
 56 568 56 568 49 577.5 c 128,-1,9
 42 587 42 587 42 598 c 2,10,-1
 32 739 l 2,11,12
 32 752 32 752 45 760 c 128,-1,13
 58 768 58 768 73 768 c 0,0,1
217 768 m 0,14,15
 232 768 232 768 245.5 760 c 128,-1,16
 259 752 259 752 259 739 c 2,17,-1
 249 598 l 2,18,19
 249 587 249 587 241.5 577.5 c 128,-1,20
 234 568 234 568 217 568 c 256,21,22
 200 568 200 568 192.5 577.5 c 128,-1,23
 185 587 185 587 185 598 c 2,24,-1
 175 739 l 2,25,26
 175 752 175 752 188 760 c 128,-1,27
 201 768 201 768 217 768 c 0,14,15
EndSplineSet
EndChar
StartChar: numbersign
Encoding: 35 35 290
Width: 642
Flags: W
LayerCount: 2
Back
Fore
SplineSet
265 713 m 0,0,1
 285 713 285 713 299.5 703 c 128,-1,2
 314 693 314 693 314 671 c 2,3,-1
 290 528 l 1,4,-1
 406 528 l 1,5,-1
 434 690 l 2,6,7
 436 701 436 701 449 707 c 128,-1,8
 462 713 462 713 477 713 c 0,9,10
 496 713 496 713 510.5 703 c 128,-1,11
 525 693 525 693 526 671 c 1,12,-1
 501 528 l 1,13,-1
 586 528 l 2,14,15
 599 528 599 528 609 517 c 128,-1,16
 619 506 619 506 619 489 c 256,17,18
 619 472 619 472 609.5 460.5 c 128,-1,19
 600 449 600 449 588 449 c 2,20,-1
 487 449 l 1,21,-1
 463 312 l 1,22,-1
 548 312 l 2,23,24
 561 312 561 312 571.5 300.5 c 128,-1,25
 582 289 582 289 582 272 c 256,26,27
 582 255 582 255 572 243.5 c 128,-1,28
 562 232 562 232 550 232 c 2,29,-1
 448 232 l 1,30,-1
 418 57 l 2,31,32
 416 46 416 46 403 38.5 c 128,-1,33
 390 31 390 31 376 31 c 0,34,35
 356 31 356 31 340.5 41.5 c 128,-1,36
 325 52 325 52 325 72 c 2,37,-1
 352 232 l 1,38,-1
 237 232 l 1,39,-1
 207 58 l 2,40,41
 205 46 205 46 191.5 38.5 c 128,-1,42
 178 31 178 31 166 31 c 0,43,44
 146 31 146 31 130.5 41.5 c 128,-1,45
 115 52 115 52 115 72 c 2,46,-1
 140 232 l 1,47,-1
 56 232 l 2,48,49
 41 232 41 232 32.5 243 c 128,-1,50
 24 254 24 254 24 271 c 256,51,52
 24 288 24 288 32.5 300 c 128,-1,53
 41 312 41 312 54 312 c 2,54,-1
 156 312 l 1,55,-1
 179 449 l 1,56,-1
 94 449 l 2,57,58
 78 449 78 449 70 459.5 c 128,-1,59
 62 470 62 470 62 488 c 0,60,61
 62 505 62 505 70 516.5 c 128,-1,62
 78 528 78 528 92 528 c 2,63,-1
 195 528 l 1,64,-1
 222 690 l 2,65,66
 224 701 224 701 237 707 c 128,-1,67
 250 713 250 713 265 713 c 0,0,1
252 312 m 1,68,-1
 367 312 l 1,69,-1
 391 449 l 1,70,-1
 275 449 l 1,71,-1
 252 312 l 1,68,-1
EndSplineSet
EndChar
StartChar: dollar
Encoding: 36 36 190
Width: 515
Flags: W
LayerCount: 2
Back
Fore
SplineSet
239 2 m 1,0,1
 192 3 192 3 154 14.5 c 128,-1,2
 116 26 116 26 88.5 43.5 c 128,-1,3
 61 61 61 61 46 81.5 c 128,-1,4
 31 102 31 102 31 120 c 0,5,6
 31 129 31 129 34.5 139 c 128,-1,7
 38 149 38 149 44.5 157.5 c 128,-1,8
 51 166 51 166 59.5 171.5 c 128,-1,9
 68 177 68 177 77 177 c 0,10,11
 89 177 89 177 101.5 166 c 128,-1,12
 114 155 114 155 132 141 c 128,-1,13
 150 127 150 127 175.5 114.5 c 128,-1,14
 201 102 201 102 239 99 c 1,15,-1
 239 334 l 1,16,17
 205 346 205 346 171 360 c 128,-1,18
 137 374 137 374 110 396 c 128,-1,19
 83 418 83 418 66 450 c 128,-1,20
 49 482 49 482 49 530 c 0,21,22
 49 577 49 577 65.5 610.5 c 128,-1,23
 82 644 82 644 108.5 666.5 c 128,-1,24
 135 689 135 689 169 700.5 c 128,-1,25
 203 712 203 712 239 716 c 1,26,-1
 239 745 l 2,27,28
 239 754 239 754 247 761 c 128,-1,29
 255 768 255 768 268 768 c 0,30,31
 279 768 279 768 288.5 761 c 128,-1,32
 298 754 298 754 298 745 c 2,33,-1
 298 718 l 1,34,35
 323 717 323 717 352 712.5 c 128,-1,36
 381 708 381 708 405.5 699.5 c 128,-1,37
 430 691 430 691 446 677.5 c 128,-1,38
 462 664 462 664 462 646 c 0,39,40
 462 639 462 639 459.5 629 c 128,-1,41
 457 619 457 619 451.5 610 c 128,-1,42
 446 601 446 601 437.5 595 c 128,-1,43
 429 589 429 589 418 589 c 0,44,45
 409 589 409 589 399 594 c 128,-1,46
 389 599 389 599 375.5 605.5 c 128,-1,47
 362 612 362 612 343 618 c 128,-1,48
 324 624 324 624 298 626 c 1,49,-1
 298 423 l 1,50,51
 331 411 331 411 363.5 395.5 c 128,-1,52
 396 380 396 380 422 356 c 128,-1,53
 448 332 448 332 464 297 c 128,-1,54
 480 262 480 262 480 211 c 0,55,56
 480 119 480 119 429.5 67.5 c 128,-1,57
 379 16 379 16 298 5 c 1,58,-1
 298 -29 l 2,59,60
 298 -38 298 -38 288.5 -45 c 128,-1,61
 279 -52 279 -52 268 -52 c 0,62,63
 255 -52 255 -52 247 -45 c 128,-1,64
 239 -38 239 -38 239 -29 c 2,65,-1
 239 2 l 1,0,1
380 200 m 0,66,67
 380 247 380 247 354.5 271.5 c 128,-1,68
 329 296 329 296 292 312 c 1,69,-1
 292 101 l 1,70,71
 333 109 333 109 356.5 133 c 128,-1,72
 380 157 380 157 380 200 c 0,66,67
149 540 m 0,73,74
 149 519 149 519 156.5 503.5 c 128,-1,75
 164 488 164 488 177 477 c 128,-1,76
 190 466 190 466 207.5 457.5 c 128,-1,77
 225 449 225 449 245 442 c 1,78,-1
 245 624 l 1,79,80
 203 619 203 619 176 599 c 128,-1,81
 149 579 149 579 149 540 c 0,73,74
EndSplineSet
EndChar
StartChar: percent
Encoding: 37 37 319
Width: 774
Flags: W
LayerCount: 2
Back
Fore
SplineSet
166 337 m 0,0,1
 137 337 137 337 112.5 343.5 c 128,-1,2
 88 350 88 350 70 364.5 c 128,-1,3
 52 379 52 379 41.5 402.5 c 128,-1,4
 31 426 31 426 31 460 c 2,5,-1
 31 608 l 2,6,7
 31 675 31 675 69.5 703 c 128,-1,8
 108 731 108 731 166 731 c 0,9,10
 194 731 194 731 219 724.5 c 128,-1,11
 244 718 244 718 262 703.5 c 128,-1,12
 280 689 280 689 290.5 665.5 c 128,-1,13
 301 642 301 642 301 608 c 2,14,-1
 301 460 l 2,15,16
 301 426 301 426 290.5 402.5 c 128,-1,17
 280 379 280 379 262 364.5 c 128,-1,18
 244 350 244 350 219 343.5 c 128,-1,19
 194 337 194 337 166 337 c 0,0,1
229 608 m 2,20,21
 229 639 229 639 212 653 c 128,-1,22
 195 667 195 667 166 667 c 256,23,24
 137 667 137 667 120.5 653 c 128,-1,25
 104 639 104 639 104 608 c 2,26,-1
 104 460 l 2,27,28
 104 429 104 429 120.5 415 c 128,-1,29
 137 401 137 401 166 401 c 256,30,31
 195 401 195 401 212 415 c 128,-1,32
 229 429 229 429 229 460 c 2,33,-1
 229 608 l 2,20,21
608 -3 m 0,34,35
 579 -3 579 -3 554.5 3.5 c 128,-1,36
 530 10 530 10 512 24.5 c 128,-1,37
 494 39 494 39 483.5 62.5 c 128,-1,38
 473 86 473 86 473 120 c 2,39,-1
 473 268 l 2,40,41
 473 335 473 335 511.5 363 c 128,-1,42
 550 391 550 391 608 391 c 0,43,44
 636 391 636 391 661 384.5 c 128,-1,45
 686 378 686 378 704 363.5 c 128,-1,46
 722 349 722 349 732.5 325.5 c 128,-1,47
 743 302 743 302 743 268 c 2,48,-1
 743 120 l 2,49,50
 743 86 743 86 732.5 62.5 c 128,-1,51
 722 39 722 39 704 24.5 c 128,-1,52
 686 10 686 10 661 3.5 c 128,-1,53
 636 -3 636 -3 608 -3 c 0,34,35
671 268 m 2,54,55
 671 299 671 299 654 313 c 128,-1,56
 637 327 637 327 608 327 c 256,57,58
 579 327 579 327 562.5 313 c 128,-1,59
 546 299 546 299 546 268 c 2,60,-1
 546 120 l 2,61,62
 546 89 546 89 562.5 75 c 128,-1,63
 579 61 579 61 608 61 c 256,64,65
 637 61 637 61 654 75 c 128,-1,66
 671 89 671 89 671 120 c 2,67,-1
 671 268 l 2,54,55
569 770 m 0,68,69
 584 770 584 770 597.5 759.5 c 128,-1,70
 611 749 611 749 611 732 c 0,71,72
 611 723 611 723 608 716 c 2,73,-1
 241 -16 l 2,74,75
 236 -25 236 -25 227 -30 c 128,-1,76
 218 -35 218 -35 207 -35 c 0,77,78
 190 -35 190 -35 179 -23.5 c 128,-1,79
 168 -12 168 -12 168 2 c 0,80,81
 168 10 168 10 172 17 c 2,82,-1
 539 752 l 2,83,84
 544 762 544 762 552 766 c 128,-1,85
 560 770 560 770 569 770 c 0,68,69
EndSplineSet
Ligature2: "'frac' Diagonal Fractions in Latin lookup 9 subtable" zero slash zero
EndChar
StartChar: ampersand
Encoding: 38 38 142
Width: 629
Flags: W
LayerCount: 2
Back
Fore
SplineSet
269 -10 m 0,0,1
 212 -10 212 -10 167 7.5 c 128,-1,2
 122 25 122 25 90.5 55 c 128,-1,3
 59 85 59 85 42.5 124.5 c 128,-1,4
 26 164 26 164 26 207 c 0,5,6
 26 243 26 243 36.5 274 c 128,-1,7
 47 305 47 305 65 330.5 c 128,-1,8
 83 356 83 356 106.5 376 c 128,-1,9
 130 396 130 396 155 409 c 1,10,11
 126 443 126 443 103.5 480.5 c 128,-1,12
 81 518 81 518 81 571 c 0,13,14
 81 613 81 613 97 646 c 128,-1,15
 113 679 113 679 140 701.5 c 128,-1,16
 167 724 167 724 203 736 c 128,-1,17
 239 748 239 748 280 748 c 0,18,19
 324 748 324 748 358 736.5 c 128,-1,20
 392 725 392 725 415.5 708.5 c 128,-1,21
 439 692 439 692 451.5 673 c 128,-1,22
 464 654 464 654 464 639 c 0,23,24
 464 620 464 620 448.5 605 c 128,-1,25
 433 590 433 590 414 590 c 0,26,27
 400 590 400 590 389.5 601 c 128,-1,28
 379 612 379 612 365.5 625.5 c 128,-1,29
 352 639 352 639 333 650.5 c 128,-1,30
 314 662 314 662 282 662 c 0,31,32
 237 662 237 662 210 636.5 c 128,-1,33
 183 611 183 611 183 566 c 0,34,35
 183 543 183 543 192.5 521 c 128,-1,36
 202 499 202 499 216.5 478 c 128,-1,37
 231 457 231 457 248.5 437.5 c 128,-1,38
 266 418 266 418 282 401 c 2,39,-1
 459 211 l 1,40,41
 477 254 477 254 480 294 c 128,-1,42
 483 334 483 334 485 363 c 0,43,44
 487 380 487 380 496.5 389 c 128,-1,45
 506 398 506 398 533 398 c 256,46,47
 560 398 560 398 568.5 385 c 128,-1,48
 577 372 577 372 577 347 c 0,49,50
 577 330 577 330 574.5 306.5 c 128,-1,51
 572 283 572 283 566 256 c 128,-1,52
 560 229 560 229 549.5 200 c 128,-1,53
 539 171 539 171 524 144 c 1,54,-1
 609 54 l 2,55,56
 616 46 616 46 616 35 c 0,57,58
 616 18 616 18 601 5 c 128,-1,59
 586 -8 586 -8 567 -8 c 0,60,61
 560 -8 560 -8 554 -5.5 c 128,-1,62
 548 -3 548 -3 540 5 c 2,63,-1
 471 77 l 1,64,65
 436 39 436 39 386.5 14.5 c 128,-1,66
 337 -10 337 -10 269 -10 c 0,0,1
282 83 m 0,67,68
 327 83 327 83 357.5 99.5 c 128,-1,69
 388 116 388 116 408 142 c 1,70,-1
 215 346 l 1,71,72
 201 336 201 336 186.5 324 c 128,-1,73
 172 312 172 312 160 296.5 c 128,-1,74
 148 281 148 281 140.5 261 c 128,-1,75
 133 241 133 241 133 216 c 0,76,77
 133 189 133 189 143 164.5 c 128,-1,78
 153 140 153 140 171.5 122 c 128,-1,79
 190 104 190 104 218 93.5 c 128,-1,80
 246 83 246 83 282 83 c 0,67,68
EndSplineSet
EndChar
StartChar: quotesingle
Encoding: 39 39 338
Width: 148
Flags: W
LayerCount: 2
Back
Fore
SplineSet
73 768 m 0,0,1
 89 768 89 768 102.5 760 c 128,-1,2
 116 752 116 752 116 739 c 2,3,-1
 106 598 l 2,4,5
 106 587 106 587 98 577.5 c 128,-1,6
 90 568 90 568 73 568 c 256,7,8
 56 568 56 568 49 577.5 c 128,-1,9
 42 587 42 587 42 598 c 2,10,-1
 32 739 l 2,11,12
 32 752 32 752 45 760 c 128,-1,13
 58 768 58 768 73 768 c 0,0,1
EndSplineSet
EndChar
StartChar: parenleft
Encoding: 40 40 316
Width: 325
Flags: W
LayerCount: 2
Back
Fore
SplineSet
253 -20 m 0,0,1
 215 -20 215 -20 179 -9 c 128,-1,2
 143 2 143 2 115 24 c 128,-1,3
 87 46 87 46 70 80 c 128,-1,4
 53 114 53 114 53 160 c 2,5,-1
 53 574 l 2,6,7
 53 616 53 616 70.5 652 c 128,-1,8
 88 688 88 688 116.5 713.5 c 128,-1,9
 145 739 145 739 181.5 753.5 c 128,-1,10
 218 768 218 768 256 768 c 0,11,12
 286 768 286 768 297 754.5 c 128,-1,13
 308 741 308 741 308 722 c 0,14,15
 308 701 308 701 298 688 c 128,-1,16
 288 675 288 675 273 675 c 0,17,18
 246 675 246 675 224.5 666 c 128,-1,19
 203 657 203 657 188 643 c 128,-1,20
 173 629 173 629 165.5 610.5 c 128,-1,21
 158 592 158 592 158 574 c 2,22,-1
 158 160 l 2,23,24
 158 133 158 133 169 116.5 c 128,-1,25
 180 100 180 100 197 90 c 128,-1,26
 214 80 214 80 234 76.5 c 128,-1,27
 254 73 254 73 273 73 c 0,28,29
 294 73 294 73 301 58 c 128,-1,30
 308 43 308 43 308 26 c 0,31,32
 308 6 308 6 297 -7 c 128,-1,33
 286 -20 286 -20 253 -20 c 0,0,1
EndSplineSet
EndChar
StartChar: parenright
Encoding: 41 41 317
Width: 326
Flags: W
LayerCount: 2
Back
Fore
SplineSet
72 -20 m 0,0,1
 39 -20 39 -20 28.5 -7 c 128,-1,2
 18 6 18 6 18 26 c 0,3,4
 18 43 18 43 24.5 58 c 128,-1,5
 31 73 31 73 52 73 c 0,6,7
 71 73 71 73 91 76.5 c 128,-1,8
 111 80 111 80 128 90 c 128,-1,9
 145 100 145 100 156 116.5 c 128,-1,10
 167 133 167 133 167 160 c 2,11,-1
 167 574 l 2,12,13
 167 592 167 592 159.5 610.5 c 128,-1,14
 152 629 152 629 137 643 c 128,-1,15
 122 657 122 657 100.5 666 c 128,-1,16
 79 675 79 675 52 675 c 0,17,18
 37 675 37 675 27.5 688 c 128,-1,19
 18 701 18 701 18 722 c 0,20,21
 18 741 18 741 29 754.5 c 128,-1,22
 40 768 40 768 69 768 c 0,23,24
 107 768 107 768 144 753.5 c 128,-1,25
 181 739 181 739 209.5 713.5 c 128,-1,26
 238 688 238 688 255.5 652 c 128,-1,27
 273 616 273 616 273 574 c 2,28,-1
 273 160 l 2,29,30
 273 114 273 114 256 80 c 128,-1,31
 239 46 239 46 210.5 24 c 128,-1,32
 182 2 182 2 146 -9 c 128,-1,33
 110 -20 110 -20 72 -20 c 0,0,1
EndSplineSet
EndChar
StartChar: asterisk
Encoding: 42 42 152
Width: 451
Flags: W
LayerCount: 2
Back
Fore
SplineSet
362 407 m 2,0,1
 368 399 368 399 368 386 c 0,2,3
 368 369 368 369 354 358 c 128,-1,4
 340 347 340 347 324 347 c 0,5,6
 318 347 318 347 310.5 349.5 c 128,-1,7
 303 352 303 352 297 361 c 2,8,-1
 226 467 l 1,9,-1
 154 360 l 2,10,11
 146 347 146 347 129 347 c 0,12,13
 116 347 116 347 100 357 c 128,-1,14
 84 367 84 367 84 385 c 0,15,16
 84 398 84 398 92 408 c 2,17,-1
 166 509 l 1,18,-1
 49 543 l 2,19,20
 37 546 37 546 31 555.5 c 128,-1,21
 25 565 25 565 25 579 c 0,22,23
 25 594 25 594 36 607 c 128,-1,24
 47 620 47 620 64 620 c 0,25,26
 70 620 70 620 75 618 c 2,27,-1
 192 578 l 1,28,-1
 187 696 l 2,29,30
 188 714 188 714 199.5 722.5 c 128,-1,31
 211 731 211 731 226 731 c 256,32,33
 241 731 241 731 252 722.5 c 128,-1,34
 263 714 263 714 264 696 c 2,35,-1
 260 576 l 1,36,-1
 377 618 l 2,37,38
 385 620 385 620 388 620 c 0,39,40
 405 620 405 620 415.5 605.5 c 128,-1,41
 426 591 426 591 426 575 c 0,42,43
 426 564 426 564 420 555 c 128,-1,44
 414 546 414 546 401 543 c 2,45,-1
 286 513 l 1,46,-1
 362 407 l 2,0,1
EndSplineSet
EndChar
StartChar: plus
Encoding: 43 43 324
Width: 433
Flags: W
LayerCount: 2
Back
Fore
SplineSet
217 46 m 0,0,1
 198 46 198 46 185 55.5 c 128,-1,2
 172 65 172 65 172 80 c 2,3,-1
 172 196 l 1,4,-1
 56 196 l 2,5,6
 41 196 41 196 31.5 208 c 128,-1,7
 22 220 22 220 22 240 c 0,8,9
 22 259 22 259 31.5 272 c 128,-1,10
 41 285 41 285 56 285 c 2,11,-1
 172 285 l 1,12,-1
 172 400 l 2,13,14
 172 414 172 414 185 424.5 c 128,-1,15
 198 435 198 435 217 435 c 0,16,17
 237 435 237 435 249 424.5 c 128,-1,18
 261 414 261 414 261 400 c 2,19,-1
 261 285 l 1,20,-1
 376 285 l 2,21,22
 390 285 390 285 400.5 272 c 128,-1,23
 411 259 411 259 411 240 c 0,24,25
 411 220 411 220 400.5 208 c 128,-1,26
 390 196 390 196 376 196 c 2,27,-1
 261 196 l 1,28,-1
 261 80 l 2,29,30
 261 65 261 65 249 55.5 c 128,-1,31
 237 46 237 46 217 46 c 0,0,1
EndSplineSet
EndChar
StartChar: comma
Encoding: 44 44 178
Width: 185
Flags: W
LayerCount: 2
Back
Fore
SplineSet
92 114 m 0,0,1
 116 114 116 114 134 97 c 128,-1,2
 152 80 152 80 152 54 c 0,3,4
 152 51 152 51 151 45.5 c 128,-1,5
 150 40 150 40 145 26.5 c 128,-1,6
 140 13 140 13 130.5 -12 c 128,-1,7
 121 -37 121 -37 103 -79 c 0,8,9
 99 -87 99 -87 92.5 -90.5 c 128,-1,10
 86 -94 86 -94 79 -94 c 0,11,12
 67 -94 67 -94 55 -87 c 128,-1,13
 43 -80 43 -80 43 -66 c 0,14,15
 43 -63 43 -63 43.5 -60 c 128,-1,16
 44 -57 44 -57 46 -53 c 2,17,-1
 68 0 l 1,18,19
 52 7 52 7 42.5 21.5 c 128,-1,20
 33 36 33 36 33 54 c 0,21,22
 33 79 33 79 50 96.5 c 128,-1,23
 67 114 67 114 92 114 c 0,0,1
EndSplineSet
EndChar
StartChar: hyphen
Encoding: 45 45 246
Width: 412
Flags: W
LayerCount: 2
Back
Fore
SplineSet
41 240 m 0,0,1
 41 259 41 259 50.5 272 c 128,-1,2
 60 285 60 285 75 285 c 2,3,-1
 335 285 l 2,4,5
 349 285 349 285 360 272 c 128,-1,6
 371 259 371 259 371 240 c 0,7,8
 371 220 371 220 360 208 c 128,-1,9
 349 196 349 196 335 196 c 2,10,-1
 75 196 l 2,11,12
 60 196 60 196 50.5 208 c 128,-1,13
 41 220 41 220 41 240 c 0,0,1
EndSplineSet
EndChar
StartChar: period
Encoding: 46 46 320
Width: 184
Flags: W
LayerCount: 2
Back
Fore
SplineSet
93 114 m 0,0,1
 117 114 117 114 134.5 96.5 c 128,-1,2
 152 79 152 79 152 54 c 0,3,4
 152 30 152 30 134.5 12 c 128,-1,5
 117 -6 117 -6 93 -6 c 0,6,7
 67 -6 67 -6 50 12 c 128,-1,8
 33 30 33 30 33 54 c 0,9,10
 33 79 33 79 50 96.5 c 128,-1,11
 67 114 67 114 93 114 c 0,0,1
EndSplineSet
EndChar
StartChar: slash
Encoding: 47 47 363
Width: 481
Flags: W
LayerCount: 2
Back
Fore
SplineSet
420 770 m 0,0,1
 435 770 435 770 448.5 759.5 c 128,-1,2
 462 749 462 749 462 732 c 0,3,4
 462 723 462 723 458 716 c 2,5,-1
 91 -16 l 2,6,7
 81 -35 81 -35 58 -35 c 0,8,9
 41 -35 41 -35 30 -23.5 c 128,-1,10
 19 -12 19 -12 19 2 c 0,11,12
 19 9 19 9 22 17 c 2,13,-1
 390 752 l 2,14,15
 398 770 398 770 420 770 c 0,0,1
EndSplineSet
EndChar
StartChar: zero
Encoding: 48 48 415
Width: 551
Flags: W
LayerCount: 2
Back
Fore
SplineSet
276 -6 m 0,0,1
 228 -6 228 -6 187 6 c 128,-1,2
 146 18 146 18 116 44.5 c 128,-1,3
 86 71 86 71 69 113.5 c 128,-1,4
 52 156 52 156 52 217 c 2,5,-1
 52 508 l 2,6,7
 52 569 52 569 69 611.5 c 128,-1,8
 86 654 86 654 116 680.5 c 128,-1,9
 146 707 146 707 187 719 c 128,-1,10
 228 731 228 731 276 731 c 0,11,12
 323 731 323 731 364 719 c 128,-1,13
 405 707 405 707 435.5 680.5 c 128,-1,14
 466 654 466 654 483.5 611.5 c 128,-1,15
 501 569 501 569 501 508 c 2,16,-1
 501 217 l 2,17,18
 501 156 501 156 483.5 113.5 c 128,-1,19
 466 71 466 71 435.5 44.5 c 128,-1,20
 405 18 405 18 364 6 c 128,-1,21
 323 -6 323 -6 276 -6 c 0,0,1
395 508 m 2,22,23
 395 574 395 574 363.5 605.5 c 128,-1,24
 332 637 332 637 276 637 c 0,25,26
 219 637 219 637 188.5 605.5 c 128,-1,27
 158 574 158 574 158 508 c 2,28,-1
 158 217 l 2,29,30
 158 151 158 151 188.5 119.5 c 128,-1,31
 219 88 219 88 276 88 c 0,32,33
 332 88 332 88 363.5 119.5 c 128,-1,34
 395 151 395 151 395 217 c 2,35,-1
 395 508 l 2,22,23
277 404 m 0,36,37
 296 404 296 404 307.5 392.5 c 128,-1,38
 319 381 319 381 319 362 c 256,39,40
 319 343 319 343 307.5 331 c 128,-1,41
 296 319 296 319 277 319 c 0,42,43
 257 319 257 319 245.5 331 c 128,-1,44
 234 343 234 343 234 362 c 256,45,46
 234 381 234 381 245.5 392.5 c 128,-1,47
 257 404 257 404 277 404 c 0,36,37
EndSplineSet
EndChar
StartChar: one
Encoding: 49 49 301
Width: 267
Flags: W
LayerCount: 2
Back
Fore
SplineSet
100 591 m 1,0,-1
 65 547 l 2,1,2
 60 542 60 542 54 539.5 c 128,-1,3
 48 537 48 537 43 537 c 0,4,5
 27 537 27 537 17 550.5 c 128,-1,6
 7 564 7 564 7 580 c 0,7,8
 7 591 7 591 12.5 602.5 c 128,-1,9
 18 614 18 614 28 621 c 2,10,-1
 132 721 l 2,11,12
 143 732 143 732 159 732 c 0,13,14
 176 732 176 732 191 723 c 128,-1,15
 206 714 206 714 206 697 c 2,16,-1
 206 35 l 2,17,18
 206 18 206 18 189.5 9 c 128,-1,19
 173 0 173 0 153 0 c 256,20,21
 133 0 133 0 116.5 9 c 128,-1,22
 100 18 100 18 100 35 c 2,23,-1
 100 591 l 1,0,-1
EndSplineSet
Substitution2: "'lnum' Lining Figures in Latin lookup 8 subtable" one.lnum
Substitution2: "'aalt' Access All Alternates in Latin lookup 0 subtable" one.lnum
EndChar
StartChar: two
Encoding: 50 50 379
Width: 495
Flags: W
LayerCount: 2
Back
Fore
SplineSet
44 554 m 0,0,1
 44 594 44 594 60.5 626.5 c 128,-1,2
 77 659 77 659 105.5 682.5 c 128,-1,3
 134 706 134 706 171 718.5 c 128,-1,4
 208 731 208 731 249 731 c 0,5,6
 292 731 292 731 331 717 c 128,-1,7
 370 703 370 703 399.5 676.5 c 128,-1,8
 429 650 429 650 446 613.5 c 128,-1,9
 463 577 463 577 463 532 c 0,10,11
 463 478 463 478 439 435.5 c 128,-1,12
 415 393 415 393 379 358 c 128,-1,13
 343 323 343 323 301 294.5 c 128,-1,14
 259 266 259 266 223 239.5 c 128,-1,15
 187 213 187 213 163 187 c 128,-1,16
 139 161 139 161 139 132 c 2,17,-1
 139 94 l 1,18,-1
 433 94 l 2,19,20
 447 94 447 94 457.5 80.5 c 128,-1,21
 468 67 468 67 468 48 c 256,22,23
 468 29 468 29 457.5 14.5 c 128,-1,24
 447 0 447 0 433 0 c 2,25,-1
 77 0 l 2,26,27
 62 0 62 0 46 9.5 c 128,-1,28
 30 19 30 19 30 35 c 2,29,-1
 30 132 l 2,30,31
 30 172 30 172 54 206.5 c 128,-1,32
 78 241 78 241 114.5 272.5 c 128,-1,33
 151 304 151 304 193.5 333.5 c 128,-1,34
 236 363 236 363 272.5 393.5 c 128,-1,35
 309 424 309 424 333 457 c 128,-1,36
 357 490 357 490 357 529 c 0,37,38
 357 547 357 547 351 566 c 128,-1,39
 345 585 345 585 331.5 600 c 128,-1,40
 318 615 318 615 297.5 624.5 c 128,-1,41
 277 634 277 634 249 634 c 0,42,43
 207 634 207 634 177.5 610 c 128,-1,44
 148 586 148 586 148 535 c 0,45,46
 148 520 148 520 133 507.5 c 128,-1,47
 118 495 118 495 92 495 c 0,48,49
 71 495 71 495 57.5 507.5 c 128,-1,50
 44 520 44 520 44 554 c 0,0,1
EndSplineSet
EndChar
StartChar: three
Encoding: 51 51 372
Width: 509
Flags: W
LayerCount: 2
Back
Fore
SplineSet
246 88 m 0,0,1
 308 88 308 88 337.5 117 c 128,-1,2
 367 146 367 146 367 212 c 2,3,-1
 367 231 l 2,4,5
 367 291 367 291 333.5 315.5 c 128,-1,6
 300 340 300 340 245 340 c 0,7,8
 226 340 226 340 218.5 353 c 128,-1,9
 211 366 211 366 211 382 c 0,10,11
 211 399 211 399 218.5 412 c 128,-1,12
 226 425 226 425 245 425 c 0,13,14
 268 425 268 425 287 429.5 c 128,-1,15
 306 434 306 434 320 446 c 128,-1,16
 334 458 334 458 341.5 479.5 c 128,-1,17
 349 501 349 501 349 535 c 0,18,19
 349 590 349 590 323.5 614 c 128,-1,20
 298 638 298 638 249 638 c 0,21,22
 219 638 219 638 199 631 c 128,-1,23
 179 624 179 624 167 612.5 c 128,-1,24
 155 601 155 601 150 586 c 128,-1,25
 145 571 145 571 145 556 c 0,26,27
 145 536 145 536 134.5 524.5 c 128,-1,28
 124 513 124 513 95 513 c 0,29,30
 60 513 60 513 50 523 c 128,-1,31
 40 533 40 533 40 562 c 0,32,33
 40 586 40 586 49.5 615.5 c 128,-1,34
 59 645 59 645 83 670.5 c 128,-1,35
 107 696 107 696 147.5 713.5 c 128,-1,36
 188 731 188 731 250 731 c 0,37,38
 294 731 294 731 331 721.5 c 128,-1,39
 368 712 368 712 394.5 691 c 128,-1,40
 421 670 421 670 436 636 c 128,-1,41
 451 602 451 602 451 553 c 0,42,43
 451 490 451 490 429 446.5 c 128,-1,44
 407 403 407 403 371 386 c 1,45,46
 416 369 416 369 444.5 332 c 128,-1,47
 473 295 473 295 473 231 c 2,48,-1
 473 212 l 2,49,50
 473 152 473 152 455 110.5 c 128,-1,51
 437 69 437 69 406 43 c 128,-1,52
 375 17 375 17 333.5 5.5 c 128,-1,53
 292 -6 292 -6 245 -6 c 0,54,55
 186 -6 186 -6 144.5 10.5 c 128,-1,56
 103 27 103 27 76 52.5 c 128,-1,57
 49 78 49 78 36.5 109 c 128,-1,58
 24 140 24 140 24 170 c 0,59,60
 24 196 24 196 35 205.5 c 128,-1,61
 46 215 46 215 73 215 c 0,62,63
 106 215 106 215 117 205 c 128,-1,64
 128 195 128 195 128 175 c 0,65,66
 128 142 128 142 156.5 115 c 128,-1,67
 185 88 185 88 246 88 c 0,0,1
EndSplineSet
EndChar
StartChar: four
Encoding: 52 52 224
Width: 482
Flags: W
LayerCount: 2
Back
Fore
SplineSet
286 164 m 1,0,-1
 40 164 l 2,1,2
 24 164 24 164 13.5 174.5 c 128,-1,3
 3 185 3 185 3 203 c 0,4,5
 3 214 3 214 9 225 c 2,6,-1
 251 702 l 2,7,8
 259 718 259 718 271.5 724.5 c 128,-1,9
 284 731 284 731 297 731 c 0,10,11
 304 731 304 731 313.5 728 c 128,-1,12
 323 725 323 725 331 720 c 128,-1,13
 339 715 339 715 344.5 707 c 128,-1,14
 350 699 350 699 350 690 c 0,15,16
 350 684 350 684 345 674 c 2,17,-1
 139 263 l 1,18,-1
 286 263 l 1,19,-1
 286 401 l 2,20,21
 286 420 286 420 302.5 428 c 128,-1,22
 319 436 319 436 339 436 c 256,23,24
 359 436 359 436 375.5 428 c 128,-1,25
 392 420 392 420 392 401 c 2,26,-1
 392 263 l 1,27,-1
 441 263 l 2,28,29
 459 263 459 263 468 247.5 c 128,-1,30
 477 232 477 232 477 213 c 0,31,32
 477 195 477 195 466 179.5 c 128,-1,33
 455 164 455 164 441 164 c 2,34,-1
 392 164 l 1,35,-1
 392 35 l 2,36,37
 392 18 392 18 375.5 9 c 128,-1,38
 359 0 359 0 339 0 c 256,39,40
 319 0 319 0 302.5 9 c 128,-1,41
 286 18 286 18 286 35 c 2,42,-1
 286 164 l 1,0,-1
EndSplineSet
EndChar
StartChar: five
Encoding: 53 53 218
Width: 497
Flags: W
LayerCount: 2
Back
Fore
SplineSet
246 443 m 2,0,1
 294 443 294 443 335 432 c 128,-1,2
 376 421 376 421 406 396 c 128,-1,3
 436 371 436 371 453.5 331 c 128,-1,4
 471 291 471 291 471 233 c 2,5,-1
 471 214 l 2,6,7
 471 154 471 154 453.5 112 c 128,-1,8
 436 70 436 70 405.5 44 c 128,-1,9
 375 18 375 18 334 6 c 128,-1,10
 293 -6 293 -6 247 -6 c 0,11,12
 193 -6 193 -6 151 8.5 c 128,-1,13
 109 23 109 23 80.5 47.5 c 128,-1,14
 52 72 52 72 37 104 c 128,-1,15
 22 136 22 136 22 171 c 0,16,17
 22 200 22 200 36 210 c 128,-1,18
 50 220 50 220 74 220 c 0,19,20
 107 220 107 220 117.5 208 c 128,-1,21
 128 196 128 196 128 178 c 0,22,23
 128 135 128 135 162 111.5 c 128,-1,24
 196 88 196 88 245 88 c 0,25,26
 302 88 302 88 333.5 118.5 c 128,-1,27
 365 149 365 149 365 214 c 2,28,-1
 365 233 l 2,29,30
 365 297 365 297 333.5 328 c 128,-1,31
 302 359 302 359 246 359 c 2,32,-1
 101 359 l 2,33,34
 75 359 75 359 65.5 370 c 128,-1,35
 56 381 56 381 56 400 c 0,36,37
 56 405 56 405 56.5 412 c 128,-1,38
 57 419 57 419 58 424 c 2,39,-1
 81 696 l 2,40,41
 84 731 84 731 105 731 c 2,42,-1
 402 731 l 2,43,44
 419 731 419 731 427 716 c 128,-1,45
 435 701 435 701 435 684 c 0,46,47
 435 666 435 666 427 651.5 c 128,-1,48
 419 637 419 637 402 637 c 2,49,-1
 171 637 l 1,50,-1
 157 443 l 1,51,-1
 246 443 l 2,0,1
EndSplineSet
EndChar
StartChar: six
Encoding: 54 54 360
Width: 536
Flags: W
LayerCount: 2
Back
Fore
SplineSet
295 439 m 256,0,1
 337 439 337 439 374 429 c 128,-1,2
 411 419 411 419 439 395.5 c 128,-1,3
 467 372 467 372 483 332.5 c 128,-1,4
 499 293 499 293 499 235 c 2,5,-1
 499 217 l 2,6,7
 499 156 499 156 481.5 113.5 c 128,-1,8
 464 71 464 71 434 44.5 c 128,-1,9
 404 18 404 18 363 6 c 128,-1,10
 322 -6 322 -6 275 -6 c 0,11,12
 227 -6 227 -6 186 6 c 128,-1,13
 145 18 145 18 115 44.5 c 128,-1,14
 85 71 85 71 67.5 113.5 c 128,-1,15
 50 156 50 156 50 217 c 2,16,-1
 50 508 l 2,17,18
 50 569 50 569 67.5 611.5 c 128,-1,19
 85 654 85 654 116 680.5 c 128,-1,20
 147 707 147 707 189 719 c 128,-1,21
 231 731 231 731 279 731 c 0,22,23
 335 731 335 731 376.5 715 c 128,-1,24
 418 699 418 699 445 673.5 c 128,-1,25
 472 648 472 648 485.5 616.5 c 128,-1,26
 499 585 499 585 499 553 c 0,27,28
 499 527 499 527 486.5 517.5 c 128,-1,29
 474 508 474 508 449 508 c 0,30,31
 427 508 427 508 410.5 516 c 128,-1,32
 394 524 394 524 394 548 c 0,33,34
 394 569 394 569 384.5 585.5 c 128,-1,35
 375 602 375 602 359.5 613.5 c 128,-1,36
 344 625 344 625 322.5 631 c 128,-1,37
 301 637 301 637 277 637 c 0,38,39
 219 637 219 637 187 605.5 c 128,-1,40
 155 574 155 574 155 508 c 2,41,-1
 155 382 l 1,42,43
 181 414 181 414 217 426.5 c 128,-1,44
 253 439 253 439 295 439 c 256,0,1
155 211 m 2,45,46
 155 144 155 144 186.5 113 c 128,-1,47
 218 82 218 82 275 82 c 0,48,49
 331 82 331 82 362 113 c 128,-1,50
 393 144 393 144 393 211 c 2,51,-1
 393 228 l 2,52,53
 393 297 393 297 362 325.5 c 128,-1,54
 331 354 331 354 274 354 c 0,55,56
 220 354 220 354 187.5 327.5 c 128,-1,57
 155 301 155 301 155 237 c 2,58,-1
 155 211 l 2,45,46
EndSplineSet
EndChar
StartChar: seven
Encoding: 55 55 356
Width: 484
Flags: W
LayerCount: 2
Back
Fore
SplineSet
470 593 m 2,0,1
 470 580 470 580 464.5 564 c 128,-1,2
 459 548 459 548 451 534 c 2,3,-1
 182 13 l 2,4,5
 173 -3 173 -3 150 -3 c 0,6,7
 125 -3 125 -3 104.5 11.5 c 128,-1,8
 84 26 84 26 84 49 c 0,9,10
 84 60 84 60 89 69 c 2,11,-1
 364 575 l 1,12,-1
 364 637 l 1,13,-1
 127 637 l 1,14,-1
 127 543 l 2,15,16
 127 528 127 528 110.5 518 c 128,-1,17
 94 508 94 508 73 508 c 256,18,19
 52 508 52 508 36.5 518 c 128,-1,20
 21 528 21 528 21 543 c 2,21,-1
 21 696 l 2,22,23
 21 709 21 709 36 720 c 128,-1,24
 51 731 51 731 68 731 c 2,25,-1
 423 731 l 2,26,27
 439 731 439 731 454.5 720 c 128,-1,28
 470 709 470 709 470 696 c 2,29,-1
 470 593 l 2,0,1
EndSplineSet
EndChar
StartChar: eight
Encoding: 56 56 202
Width: 521
Flags: W
LayerCount: 2
Back
Fore
SplineSet
261 731 m 256,0,1
 305 731 305 731 342 721.5 c 128,-1,2
 379 712 379 712 406 691 c 128,-1,3
 433 670 433 670 448.5 636.5 c 128,-1,4
 464 603 464 603 464 555 c 0,5,6
 464 491 464 491 438 453 c 128,-1,7
 412 415 412 415 370 399 c 1,8,9
 422 380 422 380 453.5 335 c 128,-1,10
 485 290 485 290 485 212 c 2,11,-1
 485 200 l 2,12,13
 485 144 485 144 467.5 105 c 128,-1,14
 450 66 450 66 420 41 c 128,-1,15
 390 16 390 16 349 5 c 128,-1,16
 308 -6 308 -6 261 -6 c 256,17,18
 214 -6 214 -6 173 5 c 128,-1,19
 132 16 132 16 101.5 41 c 128,-1,20
 71 66 71 66 53.5 105 c 128,-1,21
 36 144 36 144 36 200 c 2,22,-1
 36 212 l 2,23,24
 36 290 36 290 67.5 335 c 128,-1,25
 99 380 99 380 151 399 c 1,26,27
 109 415 109 415 83.5 453 c 128,-1,28
 58 491 58 491 58 555 c 0,29,30
 58 603 58 603 73.5 636.5 c 128,-1,31
 89 670 89 670 116 691 c 128,-1,32
 143 712 143 712 180 721.5 c 128,-1,33
 217 731 217 731 261 731 c 256,0,1
379 229 m 2,34,35
 379 294 379 294 348 324 c 128,-1,36
 317 354 317 354 261 354 c 256,37,38
 205 354 205 354 173.5 324 c 128,-1,39
 142 294 142 294 142 229 c 2,40,-1
 142 211 l 2,41,42
 142 144 142 144 174 113 c 128,-1,43
 206 82 206 82 261 82 c 0,44,45
 318 82 318 82 348.5 113.5 c 128,-1,46
 379 145 379 145 379 211 c 2,47,-1
 379 229 l 2,34,35
261 643 m 256,48,49
 213 643 213 643 187 620 c 128,-1,50
 161 597 161 597 161 543 c 256,51,52
 161 489 161 489 187 465.5 c 128,-1,53
 213 442 213 442 261 442 c 256,54,55
 309 442 309 442 335 465.5 c 128,-1,56
 361 489 361 489 361 543 c 256,57,58
 361 597 361 597 335 620 c 128,-1,59
 309 643 309 643 261 643 c 256,48,49
EndSplineSet
EndChar
StartChar: nine
Encoding: 57 57 285
Width: 536
Flags: W
LayerCount: 2
Back
Fore
SplineSet
241 286 m 256,0,1
 199 286 199 286 162 296 c 128,-1,2
 125 306 125 306 97 329.5 c 128,-1,3
 69 353 69 353 53 392 c 128,-1,4
 37 431 37 431 37 490 c 2,5,-1
 37 508 l 2,6,7
 37 569 37 569 54.5 611.5 c 128,-1,8
 72 654 72 654 102 680.5 c 128,-1,9
 132 707 132 707 173 719 c 128,-1,10
 214 731 214 731 261 731 c 0,11,12
 309 731 309 731 350 719 c 128,-1,13
 391 707 391 707 421 680.5 c 128,-1,14
 451 654 451 654 468.5 611.5 c 128,-1,15
 486 569 486 569 486 508 c 2,16,-1
 486 217 l 2,17,18
 486 156 486 156 468.5 113.5 c 128,-1,19
 451 71 451 71 420 44.5 c 128,-1,20
 389 18 389 18 347 6 c 128,-1,21
 305 -6 305 -6 256 -6 c 0,22,23
 200 -6 200 -6 159 10 c 128,-1,24
 118 26 118 26 91 51.5 c 128,-1,25
 64 77 64 77 50.5 108.5 c 128,-1,26
 37 140 37 140 37 172 c 0,27,28
 37 198 37 198 49.5 207.5 c 128,-1,29
 62 217 62 217 87 217 c 0,30,31
 109 217 109 217 125.5 209 c 128,-1,32
 142 201 142 201 142 177 c 0,33,34
 142 156 142 156 151.5 139.5 c 128,-1,35
 161 123 161 123 176.5 111.5 c 128,-1,36
 192 100 192 100 213.5 94 c 128,-1,37
 235 88 235 88 259 88 c 0,38,39
 316 88 316 88 348 119.5 c 128,-1,40
 380 151 380 151 380 217 c 2,41,-1
 380 343 l 1,42,43
 355 311 355 311 319 298.5 c 128,-1,44
 283 286 283 286 241 286 c 256,0,1
380 514 m 2,45,46
 380 581 380 581 349 612 c 128,-1,47
 318 643 318 643 261 643 c 0,48,49
 205 643 205 643 174 612 c 128,-1,50
 143 581 143 581 143 514 c 2,51,-1
 143 497 l 2,52,53
 143 428 143 428 174 399.5 c 128,-1,54
 205 371 205 371 262 371 c 0,55,56
 316 371 316 371 348 397.5 c 128,-1,57
 380 424 380 424 380 488 c 2,58,-1
 380 514 l 2,45,46
EndSplineSet
EndChar
StartChar: colon
Encoding: 58 58 177
Width: 219
Flags: W
LayerCount: 2
Back
Fore
SplineSet
110 114 m 0,0,1
 134 114 134 114 151.5 96.5 c 128,-1,2
 169 79 169 79 169 54 c 0,3,4
 169 30 169 30 151.5 12 c 128,-1,5
 134 -6 134 -6 110 -6 c 0,6,7
 84 -6 84 -6 67 12 c 128,-1,8
 50 30 50 30 50 54 c 0,9,10
 50 79 50 79 67 96.5 c 128,-1,11
 84 114 84 114 110 114 c 0,0,1
110 422 m 0,12,13
 134 422 134 422 151.5 404.5 c 128,-1,14
 169 387 169 387 169 362 c 0,15,16
 169 338 169 338 151.5 320 c 128,-1,17
 134 302 134 302 110 302 c 0,18,19
 84 302 84 302 67 320 c 128,-1,20
 50 338 50 338 50 362 c 0,21,22
 50 387 50 387 67 404.5 c 128,-1,23
 84 422 84 422 110 422 c 0,12,13
EndSplineSet
EndChar
StartChar: semicolon
Encoding: 59 59 355
Width: 219
Flags: W
LayerCount: 2
Back
Fore
SplineSet
107 114 m 0,0,1
 131 114 131 114 149 97 c 128,-1,2
 167 80 167 80 167 54 c 0,3,4
 167 51 167 51 166 45.5 c 128,-1,5
 165 40 165 40 160 26.5 c 128,-1,6
 155 13 155 13 145.5 -12 c 128,-1,7
 136 -37 136 -37 118 -79 c 0,8,9
 114 -87 114 -87 107.5 -90.5 c 128,-1,10
 101 -94 101 -94 94 -94 c 0,11,12
 82 -94 82 -94 70 -87 c 128,-1,13
 58 -80 58 -80 58 -66 c 0,14,15
 58 -63 58 -63 58.5 -60 c 128,-1,16
 59 -57 59 -57 61 -53 c 2,17,-1
 83 0 l 1,18,19
 67 7 67 7 57.5 21.5 c 128,-1,20
 48 36 48 36 48 54 c 0,21,22
 48 79 48 79 65 96.5 c 128,-1,23
 82 114 82 114 107 114 c 0,0,1
112 422 m 0,24,25
 136 422 136 422 153.5 404.5 c 128,-1,26
 171 387 171 387 171 362 c 0,27,28
 171 338 171 338 153.5 320 c 128,-1,29
 136 302 136 302 112 302 c 0,30,31
 86 302 86 302 69 320 c 128,-1,32
 52 338 52 338 52 362 c 0,33,34
 52 387 52 387 69 404.5 c 128,-1,35
 86 422 86 422 112 422 c 0,24,25
EndSplineSet
EndChar
StartChar: less
Encoding: 60 60 269
Width: 411
Flags: W
LayerCount: 2
Back
Fore
SplineSet
21 277 m 256,0,1
 21 287 21 287 26.5 298.5 c 128,-1,2
 32 310 32 310 43 318 c 2,3,-1
 306 490 l 2,4,5
 311 494 311 494 321 494 c 0,6,7
 337 494 337 494 353 479.5 c 128,-1,8
 369 465 369 465 369 444 c 0,9,10
 369 425 369 425 354 415 c 2,11,-1
 144 277 l 1,12,-1
 354 139 l 2,13,14
 369 131 369 131 369 110 c 256,15,16
 369 89 369 89 353 75 c 128,-1,17
 337 61 337 61 321 61 c 0,18,19
 311 61 311 61 306 65 c 2,20,-1
 43 237 l 2,21,22
 32 245 32 245 26.5 256 c 128,-1,23
 21 267 21 267 21 277 c 256,0,1
EndSplineSet
EndChar
StartChar: equal
Encoding: 61 61 211
Width: 442
Flags: W
LayerCount: 2
Back
Fore
SplineSet
58 152 m 0,0,1
 58 171 58 171 67.5 184 c 128,-1,2
 77 197 77 197 93 197 c 2,3,-1
 348 197 l 2,4,5
 362 197 362 197 373 184 c 128,-1,6
 384 171 384 171 384 152 c 0,7,8
 384 132 384 132 373 120 c 128,-1,9
 362 108 362 108 348 108 c 2,10,-1
 93 108 l 2,11,12
 77 108 77 108 67.5 120 c 128,-1,13
 58 132 58 132 58 152 c 0,0,1
58 355 m 0,14,15
 58 374 58 374 67.5 387 c 128,-1,16
 77 400 77 400 93 400 c 2,17,-1
 348 400 l 2,18,19
 362 400 362 400 373 387 c 128,-1,20
 384 374 384 374 384 355 c 0,21,22
 384 335 384 335 373 323 c 128,-1,23
 362 311 362 311 348 311 c 2,24,-1
 93 311 l 2,25,26
 77 311 77 311 67.5 323 c 128,-1,27
 58 335 58 335 58 355 c 0,14,15
EndSplineSet
EndChar
StartChar: greater
Encoding: 62 62 236
Width: 410
Flags: W
LayerCount: 2
Back
Fore
SplineSet
389 277 m 256,0,1
 389 267 389 267 384 256 c 128,-1,2
 379 245 379 245 367 237 c 2,3,-1
 104 65 l 2,4,5
 99 61 99 61 90 61 c 0,6,7
 73 61 73 61 57.5 75 c 128,-1,8
 42 89 42 89 42 110 c 0,9,10
 42 130 42 130 56 139 c 2,11,-1
 267 277 l 1,12,-1
 56 415 l 2,13,14
 42 425 42 425 42 444 c 0,15,16
 42 465 42 465 57.5 479.5 c 128,-1,17
 73 494 73 494 90 494 c 0,18,19
 99 494 99 494 104 490 c 2,20,-1
 367 318 l 2,21,22
 378 310 378 310 383.5 298.5 c 128,-1,23
 389 287 389 287 389 277 c 256,0,1
EndSplineSet
EndChar
StartChar: question
Encoding: 63 63 329
Width: 422
Flags: W
LayerCount: 2
Back
Fore
SplineSet
395 566 m 0,0,1
 395 524 395 524 380.5 491.5 c 128,-1,2
 366 459 366 459 345.5 433.5 c 128,-1,3
 325 408 325 408 304 390 c 128,-1,4
 283 372 283 372 271 359 c 0,5,6
 255 344 255 344 246 329.5 c 128,-1,7
 237 315 237 315 233 298.5 c 128,-1,8
 229 282 229 282 228 262.5 c 128,-1,9
 227 243 227 243 227 219 c 0,10,11
 227 207 227 207 218 197.5 c 128,-1,12
 209 188 209 188 185 188 c 0,13,14
 165 188 165 188 155.5 198 c 128,-1,15
 146 208 146 208 146 234 c 0,16,17
 146 271 146 271 150.5 298 c 128,-1,18
 155 325 155 325 162.5 344 c 128,-1,19
 170 363 170 363 180 376 c 128,-1,20
 190 389 190 389 200 398 c 0,21,22
 215 411 215 411 233.5 426 c 128,-1,23
 252 441 252 441 268.5 459.5 c 128,-1,24
 285 478 285 478 296 501.5 c 128,-1,25
 307 525 307 525 307 556 c 0,26,27
 307 604 307 604 276.5 630.5 c 128,-1,28
 246 657 246 657 192 657 c 0,29,30
 156 657 156 657 137 647.5 c 128,-1,31
 118 638 118 638 106 626 c 128,-1,32
 94 614 94 614 85.5 604.5 c 128,-1,33
 77 595 77 595 63 595 c 256,34,35
 49 595 49 595 35.5 605.5 c 128,-1,36
 22 616 22 616 22 636 c 0,37,38
 22 652 22 652 34 670 c 128,-1,39
 46 688 46 688 68 703 c 128,-1,40
 90 718 90 718 122 728 c 128,-1,41
 154 738 154 738 195 738 c 0,42,43
 243 738 243 738 280 725 c 128,-1,44
 317 712 317 712 342.5 688.5 c 128,-1,45
 368 665 368 665 381.5 633.5 c 128,-1,46
 395 602 395 602 395 566 c 0,0,1
186 114 m 0,47,48
 210 114 210 114 227.5 96.5 c 128,-1,49
 245 79 245 79 245 54 c 0,50,51
 245 30 245 30 228 12 c 128,-1,52
 211 -6 211 -6 186 -6 c 0,53,54
 160 -6 160 -6 143.5 12 c 128,-1,55
 127 30 127 30 127 54 c 0,56,57
 127 79 127 79 144 96.5 c 128,-1,58
 161 114 161 114 186 114 c 0,47,48
EndSplineSet
EndChar
StartChar: at
Encoding: 64 64 153
Width: 729
Flags: W
LayerCount: 2
Back
Fore
SplineSet
233 365 m 0,0,1
 233 377 233 377 245 388 c 128,-1,2
 257 399 257 399 276.5 407 c 128,-1,3
 296 415 296 415 320.5 419.5 c 128,-1,4
 345 424 345 424 369 424 c 0,5,6
 402 424 402 424 430 415.5 c 128,-1,7
 458 407 458 407 478.5 390.5 c 128,-1,8
 499 374 499 374 511 349.5 c 128,-1,9
 523 325 523 325 523 293 c 2,10,-1
 523 125 l 1,11,12
 527 100 527 100 538.5 88 c 128,-1,13
 550 76 550 76 567 76 c 0,14,15
 587 76 587 76 599 91 c 128,-1,16
 611 106 611 106 617.5 128.5 c 128,-1,17
 624 151 624 151 626 176.5 c 128,-1,18
 628 202 628 202 628 223 c 0,19,20
 628 357 628 357 567 429 c 128,-1,21
 506 501 506 501 375 501 c 0,22,23
 300 501 300 501 250 477.5 c 128,-1,24
 200 454 200 454 170 414 c 128,-1,25
 140 374 140 374 127.5 322 c 128,-1,26
 115 270 115 270 115 213 c 0,27,28
 115 160 115 160 126 111 c 128,-1,29
 137 62 137 62 163.5 24.5 c 128,-1,30
 190 -13 190 -13 234 -35 c 128,-1,31
 278 -57 278 -57 344 -57 c 0,32,33
 375 -57 375 -57 397.5 -53 c 128,-1,34
 420 -49 420 -49 436 -43.5 c 128,-1,35
 452 -38 452 -38 462.5 -34 c 128,-1,36
 473 -30 473 -30 481 -30 c 0,37,38
 494 -30 494 -30 501 -41.5 c 128,-1,39
 508 -53 508 -53 508 -61 c 0,40,41
 508 -75 508 -75 490 -86 c 128,-1,42
 472 -97 472 -97 445.5 -105 c 128,-1,43
 419 -113 419 -113 388.5 -117 c 128,-1,44
 358 -121 358 -121 332 -121 c 0,45,46
 276 -121 276 -121 224 -101 c 128,-1,47
 172 -81 172 -81 132 -40 c 128,-1,48
 92 1 92 1 68 63.5 c 128,-1,49
 44 126 44 126 44 212 c 0,50,51
 44 286 44 286 63.5 350.5 c 128,-1,52
 83 415 83 415 123.5 462.5 c 128,-1,53
 164 510 164 510 227 537.5 c 128,-1,54
 290 565 290 565 376 565 c 0,55,56
 531 565 531 565 614.5 479 c 128,-1,57
 698 393 698 393 698 237 c 0,58,59
 698 193 698 193 690.5 153.5 c 128,-1,60
 683 114 683 114 666.5 84 c 128,-1,61
 650 54 650 54 624 36.5 c 128,-1,62
 598 19 598 19 561 19 c 0,63,64
 519 19 519 19 492 39.5 c 128,-1,65
 465 60 465 60 459 89 c 1,66,67
 433 60 433 60 405 43 c 128,-1,68
 377 26 377 26 335 26 c 0,69,70
 311 26 311 26 288.5 32.5 c 128,-1,71
 266 39 266 39 248 52.5 c 128,-1,72
 230 66 230 66 219.5 87.5 c 128,-1,73
 209 109 209 109 209 139 c 0,74,75
 209 174 209 174 223.5 197 c 128,-1,76
 238 220 238 220 264.5 233.5 c 128,-1,77
 291 247 291 247 327.5 252.5 c 128,-1,78
 364 258 364 258 408 258 c 2,79,-1
 445 258 l 1,80,-1
 445 275 l 2,81,82
 445 350 445 350 357 350 c 0,83,84
 334 350 334 350 318 346 c 128,-1,85
 302 342 302 342 291.5 337 c 128,-1,86
 281 332 281 332 273.5 328 c 128,-1,87
 266 324 266 324 260 324 c 0,88,89
 248 324 248 324 240.5 339 c 128,-1,90
 233 354 233 354 233 365 c 0,0,1
448 208 m 1,91,-1
 418 208 l 2,92,93
 361 208 361 208 328 194 c 128,-1,94
 295 180 295 180 295 140 c 0,95,96
 295 112 295 112 311 99 c 128,-1,97
 327 86 327 86 352 86 c 0,98,99
 372 86 372 86 389.5 93 c 128,-1,100
 407 100 407 100 420 111.5 c 128,-1,101
 433 123 433 123 440.5 137.5 c 128,-1,102
 448 152 448 152 448 167 c 2,103,-1
 448 208 l 1,91,-1
EndSplineSet
EndChar
StartChar: A
Encoding: 65 65 1
Width: 562
Flags: W
LayerCount: 2
Back
Fore
SplineSet
80 0 m 0,0,1
 69 0 69 0 57.5 3 c 128,-1,2
 46 6 46 6 36 12 c 128,-1,3
 26 18 26 18 20 26 c 128,-1,4
 14 34 14 34 14 44 c 0,5,6
 14 50 14 50 15 53 c 2,7,-1
 214 701 l 2,8,9
 220 719 220 719 239 728 c 128,-1,10
 258 737 258 737 281 737 c 256,11,12
 304 737 304 737 323.5 728 c 128,-1,13
 343 719 343 719 349 701 c 2,14,-1
 547 53 l 2,15,16
 549 47 549 47 549 44 c 0,17,18
 549 35 549 35 542.5 27 c 128,-1,19
 536 19 536 19 526.5 13 c 128,-1,20
 517 7 517 7 505 3.5 c 128,-1,21
 493 0 493 0 482 0 c 0,22,23
 469 0 469 0 459.5 5 c 128,-1,24
 450 10 450 10 446 22 c 2,25,-1
 405 164 l 1,26,-1
 158 164 l 1,27,-1
 117 22 l 2,28,29
 113 10 113 10 103.5 5 c 128,-1,30
 94 0 94 0 80 0 c 0,0,1
381 249 m 1,31,-1
 281 592 l 1,32,-1
 181 249 l 1,33,-1
 381 249 l 1,31,-1
EndSplineSet
EndChar
StartChar: B
Encoding: 66 66 13
Width: 553
Flags: W
LayerCount: 2
Back
Fore
SplineSet
66 696 m 2,0,1
 66 713 66 713 80.5 722 c 128,-1,2
 95 731 95 731 113 731 c 2,3,-1
 295 731 l 2,4,5
 335 731 335 731 371.5 724 c 128,-1,6
 408 717 408 717 436 697.5 c 128,-1,7
 464 678 464 678 480.5 644.5 c 128,-1,8
 497 611 497 611 497 558 c 0,9,10
 497 495 497 495 474 454 c 128,-1,11
 451 413 451 413 412 396 c 1,12,13
 435 387 435 387 454 374 c 128,-1,14
 473 361 473 361 486.5 341.5 c 128,-1,15
 500 322 500 322 507.5 294.5 c 128,-1,16
 515 267 515 267 515 229 c 2,17,-1
 515 210 l 2,18,19
 515 152 515 152 499.5 112 c 128,-1,20
 484 72 484 72 457.5 47 c 128,-1,21
 431 22 431 22 394.5 11 c 128,-1,22
 358 0 358 0 316 0 c 2,23,-1
 113 0 l 2,24,25
 91 0 91 0 78.5 10 c 128,-1,26
 66 20 66 20 66 34 c 2,27,-1
 66 696 l 2,0,1
296 94 m 2,28,29
 350 94 350 94 379.5 123.5 c 128,-1,30
 409 153 409 153 409 218 c 2,31,-1
 409 234 l 2,32,33
 409 300 409 300 379.5 327 c 128,-1,34
 350 354 350 354 296 354 c 2,35,-1
 171 354 l 1,36,-1
 171 94 l 1,37,-1
 296 94 l 2,28,29
171 438 m 1,38,-1
 290 438 l 2,39,40
 391 438 391 438 391 541 c 0,41,42
 391 592 391 592 363.5 614.5 c 128,-1,43
 336 637 336 637 288 637 c 2,44,-1
 171 637 l 1,45,-1
 171 438 l 1,38,-1
EndSplineSet
EndChar
StartChar: C
Encoding: 67 67 14
Width: 541
Flags: W
LayerCount: 2
Back
Fore
SplineSet
402 530 m 0,0,1
 401 543 401 543 397 561.5 c 128,-1,2
 393 580 393 580 381 596.5 c 128,-1,3
 369 613 369 613 346.5 625 c 128,-1,4
 324 637 324 637 285 637 c 0,5,6
 227 637 227 637 196 605.5 c 128,-1,7
 165 574 165 574 165 508 c 2,8,-1
 165 217 l 2,9,10
 165 151 165 151 196 119.5 c 128,-1,11
 227 88 227 88 287 88 c 0,12,13
 325 88 325 88 347.5 99.5 c 128,-1,14
 370 111 370 111 381.5 128 c 128,-1,15
 393 145 393 145 396.5 164.5 c 128,-1,16
 400 184 400 184 402 201 c 0,17,18
 404 221 404 221 418 228.5 c 128,-1,19
 432 236 432 236 454 236 c 0,20,21
 482 236 482 236 495 225 c 128,-1,22
 508 214 508 214 508 181 c 0,23,24
 508 140 508 140 491.5 105.5 c 128,-1,25
 475 71 475 71 445 46 c 128,-1,26
 415 21 415 21 373 7.5 c 128,-1,27
 331 -6 331 -6 280 -6 c 0,28,29
 235 -6 235 -6 194.5 6 c 128,-1,30
 154 18 154 18 124 44.5 c 128,-1,31
 94 71 94 71 76.5 113.5 c 128,-1,32
 59 156 59 156 59 217 c 2,33,-1
 59 508 l 2,34,35
 59 569 59 569 76.5 611.5 c 128,-1,36
 94 654 94 654 124.5 680.5 c 128,-1,37
 155 707 155 707 195.5 719 c 128,-1,38
 236 731 236 731 281 731 c 0,39,40
 332 731 332 731 374 717.5 c 128,-1,41
 416 704 416 704 446 680 c 128,-1,42
 476 656 476 656 492 623 c 128,-1,43
 508 590 508 590 508 550 c 0,44,45
 508 516 508 516 495 505.5 c 128,-1,46
 482 495 482 495 455 495 c 0,47,48
 431 495 431 495 417 503.5 c 128,-1,49
 403 512 403 512 402 530 c 0,0,1
EndSplineSet
EndChar
StartChar: D
Encoding: 68 68 21
Width: 573
Flags: W
LayerCount: 2
Back
Fore
SplineSet
290 731 m 2,0,1
 338 731 338 731 379 719 c 128,-1,2
 420 707 420 707 450 680.5 c 128,-1,3
 480 654 480 654 497.5 611.5 c 128,-1,4
 515 569 515 569 515 508 c 2,5,-1
 515 223 l 2,6,7
 515 162 515 162 497.5 119.5 c 128,-1,8
 480 77 480 77 450 50.5 c 128,-1,9
 420 24 420 24 379 12 c 128,-1,10
 338 0 338 0 290 0 c 2,11,-1
 113 0 l 2,12,13
 92 0 92 0 79 10 c 128,-1,14
 66 20 66 20 66 34 c 2,15,-1
 66 697 l 2,16,17
 66 711 66 711 79 721 c 128,-1,18
 92 731 92 731 113 731 c 2,19,-1
 290 731 l 2,0,1
172 637 m 1,20,-1
 172 94 l 1,21,-1
 290 94 l 2,22,23
 347 94 347 94 378 125.5 c 128,-1,24
 409 157 409 157 409 223 c 2,25,-1
 409 508 l 2,26,27
 409 574 409 574 378 605.5 c 128,-1,28
 347 637 347 637 290 637 c 2,29,-1
 172 637 l 1,20,-1
EndSplineSet
EndChar
StartChar: E
Encoding: 69 69 25
Width: 523
Flags: W
LayerCount: 2
Back
Fore
SplineSet
172 408 m 1,0,-1
 326 408 l 2,1,2
 343 408 343 408 352 395 c 128,-1,3
 361 382 361 382 361 365 c 0,4,5
 361 351 361 351 352.5 337.5 c 128,-1,6
 344 324 344 324 326 324 c 2,7,-1
 172 324 l 1,8,-1
 172 94 l 1,9,-1
 469 94 l 2,10,11
 486 94 486 94 495 80 c 128,-1,12
 504 66 504 66 504 46 c 0,13,14
 504 29 504 29 495.5 14.5 c 128,-1,15
 487 0 487 0 469 0 c 2,16,-1
 113 0 l 2,17,18
 96 0 96 0 81 9 c 128,-1,19
 66 18 66 18 66 35 c 2,20,-1
 66 696 l 2,21,22
 66 713 66 713 81 722 c 128,-1,23
 96 731 96 731 113 731 c 2,24,-1
 469 731 l 2,25,26
 487 731 487 731 495.5 716.5 c 128,-1,27
 504 702 504 702 504 685 c 0,28,29
 504 665 504 665 495 651 c 128,-1,30
 486 637 486 637 469 637 c 2,31,-1
 172 637 l 1,32,-1
 172 408 l 1,0,-1
EndSplineSet
EndChar
StartChar: F
Encoding: 70 70 38
Width: 502
Flags: W
LayerCount: 2
Back
Fore
SplineSet
66 696 m 2,0,1
 66 713 66 713 81 722 c 128,-1,2
 96 731 96 731 113 731 c 2,3,-1
 464 731 l 2,4,5
 482 731 482 731 490 716.5 c 128,-1,6
 498 702 498 702 498 685 c 0,7,8
 498 665 498 665 489.5 651 c 128,-1,9
 481 637 481 637 464 637 c 2,10,-1
 172 637 l 1,11,-1
 172 408 l 1,12,-1
 327 408 l 2,13,14
 344 408 344 408 352.5 395 c 128,-1,15
 361 382 361 382 361 365 c 0,16,17
 361 351 361 351 353 337.5 c 128,-1,18
 345 324 345 324 327 324 c 2,19,-1
 172 324 l 1,20,-1
 172 35 l 2,21,22
 172 17 172 17 155.5 8.5 c 128,-1,23
 139 0 139 0 119 0 c 256,24,25
 99 0 99 0 82.5 8.5 c 128,-1,26
 66 17 66 17 66 35 c 2,27,-1
 66 696 l 2,0,1
EndSplineSet
EndChar
StartChar: H
Encoding: 72 72 44
Width: 593
Flags: W
LayerCount: 2
Back
Fore
SplineSet
421 337 m 1,0,-1
 172 337 l 1,1,-1
 172 35 l 2,2,3
 172 18 172 18 155.5 9 c 128,-1,4
 139 0 139 0 119 0 c 256,5,6
 99 0 99 0 82.5 9 c 128,-1,7
 66 18 66 18 66 35 c 2,8,-1
 66 697 l 2,9,10
 66 715 66 715 82.5 723 c 128,-1,11
 99 731 99 731 119 731 c 256,12,13
 139 731 139 731 155.5 723 c 128,-1,14
 172 715 172 715 172 697 c 2,15,-1
 172 421 l 1,16,-1
 421 421 l 1,17,-1
 421 697 l 2,18,19
 421 715 421 715 437.5 723 c 128,-1,20
 454 731 454 731 474 731 c 256,21,22
 494 731 494 731 510.5 723 c 128,-1,23
 527 715 527 715 527 697 c 2,24,-1
 527 35 l 2,25,26
 527 18 527 18 510.5 9 c 128,-1,27
 494 0 494 0 474 0 c 256,28,29
 454 0 454 0 437.5 9 c 128,-1,30
 421 18 421 18 421 35 c 2,31,-1
 421 337 l 1,0,-1
EndSplineSet
EndChar
StartChar: J
Encoding: 74 74 58
Width: 530
Flags: W
LayerCount: 2
Back
Fore
SplineSet
244 637 m 2,0,1
 227 637 227 637 218 651 c 128,-1,2
 209 665 209 665 209 685 c 0,3,4
 209 702 209 702 217 716.5 c 128,-1,5
 225 731 225 731 244 731 c 2,6,-1
 420 731 l 2,7,8
 437 731 437 731 452 722 c 128,-1,9
 467 713 467 713 467 696 c 2,10,-1
 467 217 l 2,11,12
 467 156 467 156 449.5 113.5 c 128,-1,13
 432 71 432 71 402 44.5 c 128,-1,14
 372 18 372 18 331.5 6 c 128,-1,15
 291 -6 291 -6 245 -6 c 0,16,17
 195 -6 195 -6 153 7.5 c 128,-1,18
 111 21 111 21 81 46 c 128,-1,19
 51 71 51 71 34 106 c 128,-1,20
 17 141 17 141 17 185 c 0,21,22
 17 215 17 215 30.5 225.5 c 128,-1,23
 44 236 44 236 71 236 c 0,24,25
 91 236 91 236 106.5 228.5 c 128,-1,26
 122 221 122 221 123 201 c 0,27,28
 124 178 124 178 130.5 158 c 128,-1,29
 137 138 137 138 151.5 122 c 128,-1,30
 166 106 166 106 188 97 c 128,-1,31
 210 88 210 88 241 88 c 0,32,33
 298 88 298 88 329.5 119.5 c 128,-1,34
 361 151 361 151 361 217 c 2,35,-1
 361 637 l 1,36,-1
 244 637 l 2,0,1
EndSplineSet
EndChar
StartChar: K
Encoding: 75 75 60
Width: 541
Flags: W
LayerCount: 2
Back
Fore
SplineSet
66 697 m 2,0,1
 66 715 66 715 82.5 723 c 128,-1,2
 99 731 99 731 119 731 c 256,3,4
 139 731 139 731 155.5 723 c 128,-1,5
 172 715 172 715 172 697 c 2,6,-1
 172 393 l 1,7,-1
 416 716 l 2,8,9
 426 731 426 731 446 731 c 0,10,11
 456 731 456 731 467 726 c 128,-1,12
 478 721 478 721 487 713.5 c 128,-1,13
 496 706 496 706 501.5 696 c 128,-1,14
 507 686 507 686 507 676 c 0,15,16
 507 672 507 672 505.5 666 c 128,-1,17
 504 660 504 660 499 655 c 2,18,-1
 307 415 l 1,19,-1
 535 68 l 2,20,21
 541 59 541 59 541 49 c 0,22,23
 541 29 541 29 521.5 13 c 128,-1,24
 502 -3 502 -3 479 -3 c 0,25,26
 454 -3 454 -3 441 17 c 2,27,-1
 237 326 l 1,28,-1
 172 244 l 1,29,-1
 172 35 l 2,30,31
 172 18 172 18 155.5 9 c 128,-1,32
 139 0 139 0 119 0 c 256,33,34
 99 0 99 0 82.5 9 c 128,-1,35
 66 18 66 18 66 35 c 2,36,-1
 66 697 l 2,0,1
EndSplineSet
EndChar
StartChar: L
Encoding: 76 76 62
Width: 477
Flags: W
LayerCount: 2
Back
Fore
SplineSet
113 0 m 2,0,1
 96 0 96 0 81 9 c 128,-1,2
 66 18 66 18 66 35 c 2,3,-1
 66 697 l 2,4,5
 66 715 66 715 82.5 723 c 128,-1,6
 99 731 99 731 119 731 c 256,7,8
 139 731 139 731 155.5 723 c 128,-1,9
 172 715 172 715 172 697 c 2,10,-1
 172 94 l 1,11,-1
 432 94 l 2,12,13
 448 94 448 94 456 79.5 c 128,-1,14
 464 65 464 65 464 47 c 0,15,16
 464 30 464 30 456 15 c 128,-1,17
 448 0 448 0 432 0 c 2,18,-1
 113 0 l 2,0,1
EndSplineSet
EndChar
StartChar: M
Encoding: 77 77 68
Width: 687
Flags: W
LayerCount: 2
Back
Fore
SplineSet
381 267 m 2,0,1
 373 253 373 253 363 248 c 128,-1,2
 353 243 353 243 342 243 c 0,3,4
 332 243 332 243 322.5 248 c 128,-1,5
 313 253 313 253 306 267 c 2,6,-1
 172 521 l 1,7,-1
 172 35 l 2,8,9
 172 18 172 18 155.5 9 c 128,-1,10
 139 0 139 0 119 0 c 256,11,12
 99 0 99 0 82.5 9 c 128,-1,13
 66 18 66 18 66 35 c 2,14,-1
 66 678 l 2,15,16
 66 707 66 707 82.5 719 c 128,-1,17
 99 731 99 731 119 731 c 0,18,19
 148 731 148 731 166 718.5 c 128,-1,20
 184 706 184 706 203 671 c 2,21,-1
 343 406 l 1,22,-1
 485 671 l 2,23,24
 504 706 504 706 521.5 718.5 c 128,-1,25
 539 731 539 731 568 731 c 0,26,27
 589 731 589 731 605 719 c 128,-1,28
 621 707 621 707 621 678 c 2,29,-1
 621 35 l 2,30,31
 621 18 621 18 604.5 9 c 128,-1,32
 588 0 588 0 568 0 c 256,33,34
 548 0 548 0 531.5 9 c 128,-1,35
 515 18 515 18 515 35 c 2,36,-1
 515 515 l 1,37,-1
 381 267 l 2,0,1
EndSplineSet
EndChar
StartChar: N
Encoding: 78 78 69
Width: 593
Flags: W
LayerCount: 2
Back
Fore
SplineSet
474 0 m 256,0,1
 454 0 454 0 438 9.5 c 128,-1,2
 422 19 422 19 411 39 c 2,3,-1
 172 494 l 1,4,-1
 172 35 l 2,5,6
 172 18 172 18 155.5 9 c 128,-1,7
 139 0 139 0 119 0 c 256,8,9
 99 0 99 0 82.5 9 c 128,-1,10
 66 18 66 18 66 35 c 2,11,-1
 66 696 l 2,12,13
 66 715 66 715 82.5 723 c 128,-1,14
 99 731 99 731 119 731 c 0,15,16
 148 731 148 731 164.5 718.5 c 128,-1,17
 181 706 181 706 199 671 c 2,18,-1
 421 238 l 1,19,-1
 421 697 l 2,20,21
 421 715 421 715 437.5 723 c 128,-1,22
 454 731 454 731 474 731 c 256,23,24
 494 731 494 731 510.5 723 c 128,-1,25
 527 715 527 715 527 697 c 2,26,-1
 527 35 l 2,27,28
 527 18 527 18 510.5 9 c 128,-1,29
 494 0 494 0 474 0 c 256,0,1
EndSplineSet
EndChar
StartChar: O
Encoding: 79 79 74
Width: 566
Flags: W
LayerCount: 2
Back
Fore
SplineSet
283 -6 m 0,0,1
 235 -6 235 -6 194 6 c 128,-1,2
 153 18 153 18 123 44.5 c 128,-1,3
 93 71 93 71 76 113.5 c 128,-1,4
 59 156 59 156 59 217 c 2,5,-1
 59 508 l 2,6,7
 59 569 59 569 76 611.5 c 128,-1,8
 93 654 93 654 123 680.5 c 128,-1,9
 153 707 153 707 194 719 c 128,-1,10
 235 731 235 731 283 731 c 0,11,12
 330 731 330 731 371 719 c 128,-1,13
 412 707 412 707 442.5 680.5 c 128,-1,14
 473 654 473 654 490.5 611.5 c 128,-1,15
 508 569 508 569 508 508 c 2,16,-1
 508 217 l 2,17,18
 508 156 508 156 490.5 113.5 c 128,-1,19
 473 71 473 71 442.5 44.5 c 128,-1,20
 412 18 412 18 371 6 c 128,-1,21
 330 -6 330 -6 283 -6 c 0,0,1
402 508 m 2,22,23
 402 574 402 574 370.5 605.5 c 128,-1,24
 339 637 339 637 283 637 c 0,25,26
 226 637 226 637 195.5 605.5 c 128,-1,27
 165 574 165 574 165 508 c 2,28,-1
 165 217 l 2,29,30
 165 151 165 151 195.5 119.5 c 128,-1,31
 226 88 226 88 283 88 c 0,32,33
 339 88 339 88 370.5 119.5 c 128,-1,34
 402 151 402 151 402 217 c 2,35,-1
 402 508 l 2,22,23
EndSplineSet
EndChar
StartChar: P
Encoding: 80 80 87
Width: 545
Flags: W
LayerCount: 2
Back
Fore
SplineSet
66 697 m 2,0,1
 66 711 66 711 77 721 c 128,-1,2
 88 731 88 731 107 731 c 2,3,-1
 302 731 l 2,4,5
 348 731 348 731 388 719.5 c 128,-1,6
 428 708 428 708 457.5 681.5 c 128,-1,7
 487 655 487 655 504 613 c 128,-1,8
 521 571 521 571 521 511 c 2,9,-1
 521 503 l 2,10,11
 521 443 521 443 503.5 401 c 128,-1,12
 486 359 486 359 455.5 332.5 c 128,-1,13
 425 306 425 306 384 294 c 128,-1,14
 343 282 343 282 296 282 c 2,15,-1
 172 282 l 1,16,-1
 172 35 l 2,17,18
 172 18 172 18 155.5 9 c 128,-1,19
 139 0 139 0 119 0 c 256,20,21
 99 0 99 0 82.5 9 c 128,-1,22
 66 18 66 18 66 35 c 2,23,-1
 66 697 l 2,0,1
172 637 m 1,24,-1
 172 366 l 1,25,-1
 296 366 l 2,26,27
 352 366 352 366 383.5 398 c 128,-1,28
 415 430 415 430 415 496 c 2,29,-1
 415 508 l 2,30,31
 415 574 415 574 383.5 605.5 c 128,-1,32
 352 637 352 637 296 637 c 2,33,-1
 172 637 l 1,24,-1
EndSplineSet
EndChar
StartChar: Q
Encoding: 81 81 88
Width: 566
Flags: W
LayerCount: 2
Back
Fore
SplineSet
283 -109 m 256,0,1
 269 -109 269 -109 258.5 -100 c 128,-1,2
 248 -91 248 -91 248 -74 c 2,3,-1
 248 -4 l 1,4,5
 207 0 207 0 172.5 14 c 128,-1,6
 138 28 138 28 112.5 54.5 c 128,-1,7
 87 81 87 81 73 121 c 128,-1,8
 59 161 59 161 59 217 c 2,9,-1
 59 508 l 2,10,11
 59 569 59 569 76 611.5 c 128,-1,12
 93 654 93 654 123 680.5 c 128,-1,13
 153 707 153 707 194 719 c 128,-1,14
 235 731 235 731 283 731 c 0,15,16
 330 731 330 731 371 719 c 128,-1,17
 412 707 412 707 442.5 680.5 c 128,-1,18
 473 654 473 654 490.5 611.5 c 128,-1,19
 508 569 508 569 508 508 c 2,20,-1
 508 217 l 2,21,22
 508 162 508 162 493.5 122 c 128,-1,23
 479 82 479 82 454 55 c 128,-1,24
 429 28 429 28 394 14 c 128,-1,25
 359 0 359 0 319 -4 c 1,26,-1
 319 -74 l 2,27,28
 319 -91 319 -91 308 -100 c 128,-1,29
 297 -109 297 -109 283 -109 c 256,0,1
402 508 m 2,30,31
 402 574 402 574 370.5 605.5 c 128,-1,32
 339 637 339 637 283 637 c 0,33,34
 226 637 226 637 195.5 605.5 c 128,-1,35
 165 574 165 574 165 508 c 2,36,-1
 165 217 l 2,37,38
 165 111 165 111 248 94 c 1,39,-1
 248 155 l 2,40,41
 248 173 248 173 258.5 181 c 128,-1,42
 269 189 269 189 283 189 c 256,43,44
 297 189 297 189 308 181 c 128,-1,45
 319 173 319 173 319 155 c 2,46,-1
 319 95 l 1,47,48
 358 103 358 103 380 133 c 128,-1,49
 402 163 402 163 402 217 c 2,50,-1
 402 508 l 2,30,31
EndSplineSet
EndChar
StartChar: R
Encoding: 82 82 89
Width: 559
Flags: W
LayerCount: 2
Back
Fore
SplineSet
66 697 m 2,0,1
 66 711 66 711 75.5 721 c 128,-1,2
 85 731 85 731 101 731 c 2,3,-1
 291 731 l 2,4,5
 338 731 338 731 380 721 c 128,-1,6
 422 711 422 711 453.5 687 c 128,-1,7
 485 663 485 663 503 624 c 128,-1,8
 521 585 521 585 521 527 c 0,9,10
 521 482 521 482 510 448.5 c 128,-1,11
 499 415 499 415 480.5 391 c 128,-1,12
 462 367 462 367 436 351.5 c 128,-1,13
 410 336 410 336 380 329 c 1,14,-1
 520 66 l 2,15,16
 524 59 524 59 524 51 c 0,17,18
 524 41 524 41 518 31 c 128,-1,19
 512 21 512 21 503 13.5 c 128,-1,20
 494 6 494 6 482.5 1.5 c 128,-1,21
 471 -3 471 -3 460 -3 c 0,22,23
 434 -3 434 -3 418 28 c 2,24,-1
 272 314 l 1,25,-1
 171 314 l 1,26,-1
 171 35 l 2,27,28
 171 18 171 18 154.5 9 c 128,-1,29
 138 0 138 0 118 0 c 256,30,31
 98 0 98 0 82 9 c 128,-1,32
 66 18 66 18 66 35 c 2,33,-1
 66 697 l 2,0,1
171 637 m 1,34,-1
 171 399 l 1,35,-1
 291 399 l 2,36,37
 347 399 347 399 381 426 c 128,-1,38
 415 453 415 453 415 518 c 256,39,40
 415 583 415 583 381 610 c 128,-1,41
 347 637 347 637 291 637 c 2,42,-1
 171 637 l 1,34,-1
EndSplineSet
EndChar
StartChar: S
Encoding: 83 83 93
Width: 512
Flags: W
LayerCount: 2
Back
Fore
SplineSet
246 88 m 0,0,1
 300 88 300 88 336 114 c 128,-1,2
 372 140 372 140 372 194 c 0,3,4
 372 238 372 238 348 264.5 c 128,-1,5
 324 291 324 291 288 309.5 c 128,-1,6
 252 328 252 328 209.5 344.5 c 128,-1,7
 167 361 167 361 131 384.5 c 128,-1,8
 95 408 95 408 71 445 c 128,-1,9
 47 482 47 482 47 542 c 0,10,11
 47 597 47 597 68 634 c 128,-1,12
 89 671 89 671 122.5 693.5 c 128,-1,13
 156 716 156 716 197 725 c 128,-1,14
 238 734 238 734 278 734 c 0,15,16
 302 734 302 734 333.5 730.5 c 128,-1,17
 365 727 365 727 393 718.5 c 128,-1,18
 421 710 421 710 440.5 696.5 c 128,-1,19
 460 683 460 683 460 662 c 0,20,21
 460 654 460 654 457.5 644.5 c 128,-1,22
 455 635 455 635 449.5 626 c 128,-1,23
 444 617 444 617 435.5 611 c 128,-1,24
 427 605 427 605 416 605 c 0,25,26
 406 605 406 605 395 611 c 128,-1,27
 384 617 384 617 368.5 624 c 128,-1,28
 353 631 353 631 331.5 637 c 128,-1,29
 310 643 310 643 278 643 c 0,30,31
 223 643 223 643 188 621.5 c 128,-1,32
 153 600 153 600 153 552 c 0,33,34
 153 515 153 515 177 493.5 c 128,-1,35
 201 472 201 472 237 455.5 c 128,-1,36
 273 439 273 439 315.5 423 c 128,-1,37
 358 407 358 407 394 380.5 c 128,-1,38
 430 354 430 354 454 312.5 c 128,-1,39
 478 271 478 271 478 205 c 0,40,41
 478 151 478 151 461 111 c 128,-1,42
 444 71 444 71 413.5 44.5 c 128,-1,43
 383 18 383 18 341 5 c 128,-1,44
 299 -8 299 -8 250 -8 c 256,45,46
 201 -8 201 -8 160.5 3.5 c 128,-1,47
 120 15 120 15 90.5 32.5 c 128,-1,48
 61 50 61 50 45 70.5 c 128,-1,49
 29 91 29 91 29 110 c 0,50,51
 29 119 29 119 32.5 129 c 128,-1,52
 36 139 36 139 42.5 147.5 c 128,-1,53
 49 156 49 156 57.5 161.5 c 128,-1,54
 66 167 66 167 75 167 c 0,55,56
 88 167 88 167 101 154.5 c 128,-1,57
 114 142 114 142 132.5 127.5 c 128,-1,58
 151 113 151 113 177.5 100.5 c 128,-1,59
 204 88 204 88 246 88 c 0,0,1
EndSplineSet
EndChar
StartChar: T
Encoding: 84 84 99
Width: 513
Flags: W
LayerCount: 2
Back
Fore
SplineSet
464 731 m 2,0,1
 482 731 482 731 490.5 716 c 128,-1,2
 499 701 499 701 499 684 c 0,3,4
 499 664 499 664 490 649 c 128,-1,5
 481 634 481 634 464 634 c 2,6,-1
 310 634 l 1,7,-1
 310 35 l 2,8,9
 310 18 310 18 293.5 9 c 128,-1,10
 277 0 277 0 257 0 c 256,11,12
 237 0 237 0 220.5 9 c 128,-1,13
 204 18 204 18 204 35 c 2,14,-1
 204 634 l 1,15,-1
 49 634 l 2,16,17
 32 634 32 634 23 648.5 c 128,-1,18
 14 663 14 663 14 683 c 0,19,20
 14 700 14 700 22.5 715.5 c 128,-1,21
 31 731 31 731 49 731 c 2,22,-1
 464 731 l 2,0,1
EndSplineSet
EndChar
StartChar: U
Encoding: 85 85 104
Width: 583
Flags: W
LayerCount: 2
Back
Fore
SplineSet
414 697 m 2,0,1
 414 715 414 715 430.5 723 c 128,-1,2
 447 731 447 731 467 731 c 256,3,4
 487 731 487 731 503.5 723 c 128,-1,5
 520 715 520 715 520 697 c 2,6,-1
 520 217 l 2,7,8
 520 156 520 156 502.5 113.5 c 128,-1,9
 485 71 485 71 454 44.5 c 128,-1,10
 423 18 423 18 381 6 c 128,-1,11
 339 -6 339 -6 291 -6 c 256,12,13
 243 -6 243 -6 201.5 6 c 128,-1,14
 160 18 160 18 129 44.5 c 128,-1,15
 98 71 98 71 80.5 113.5 c 128,-1,16
 63 156 63 156 63 217 c 2,17,-1
 63 697 l 2,18,19
 63 715 63 715 79.5 723 c 128,-1,20
 96 731 96 731 116 731 c 256,21,22
 136 731 136 731 152.5 723 c 128,-1,23
 169 715 169 715 169 697 c 2,24,-1
 169 217 l 2,25,26
 169 151 169 151 201.5 119.5 c 128,-1,27
 234 88 234 88 291 88 c 0,28,29
 349 88 349 88 381.5 119.5 c 128,-1,30
 414 151 414 151 414 217 c 2,31,-1
 414 697 l 2,0,1
EndSplineSet
EndChar
StartChar: V
Encoding: 86 86 115
Width: 561
Flags: W
LayerCount: 2
Back
Fore
SplineSet
14 678 m 2,0,1
 13 681 13 681 13 687 c 0,2,3
 13 697 13 697 19 705 c 128,-1,4
 25 713 25 713 35 719 c 128,-1,5
 45 725 45 725 56.5 728 c 128,-1,6
 68 731 68 731 79 731 c 0,7,8
 93 731 93 731 102.5 726 c 128,-1,9
 112 721 112 721 116 709 c 2,10,-1
 281 139 l 1,11,-1
 445 709 l 2,12,13
 449 721 449 721 458.5 726 c 128,-1,14
 468 731 468 731 481 731 c 0,15,16
 492 731 492 731 504 727.5 c 128,-1,17
 516 724 516 724 525.5 718 c 128,-1,18
 535 712 535 712 541.5 704 c 128,-1,19
 548 696 548 696 548 687 c 0,20,21
 548 684 548 684 546 678 c 2,22,-1
 348 30 l 2,23,24
 343 12 343 12 323.5 3 c 128,-1,25
 304 -6 304 -6 281 -6 c 256,26,27
 258 -6 258 -6 239 3 c 128,-1,28
 220 12 220 12 214 30 c 2,29,-1
 14 678 l 2,0,1
EndSplineSet
EndChar
StartChar: W
Encoding: 87 87 116
Width: 847
Flags: W
LayerCount: 2
Back
Fore
SplineSet
634 30 m 2,0,1
 628 12 628 12 608 3 c 128,-1,2
 588 -6 588 -6 566 -6 c 256,3,4
 544 -6 544 -6 524.5 3 c 128,-1,5
 505 12 505 12 500 30 c 2,6,-1
 424 332 l 1,7,-1
 348 30 l 2,8,9
 343 12 343 12 323.5 3 c 128,-1,10
 304 -6 304 -6 281 -6 c 256,11,12
 258 -6 258 -6 238.5 3 c 128,-1,13
 219 12 219 12 214 30 c 2,14,-1
 15 678 l 2,15,16
 14 681 14 681 14 688 c 0,17,18
 14 697 14 697 20 705 c 128,-1,19
 26 713 26 713 35.5 719 c 128,-1,20
 45 725 45 725 57 728 c 128,-1,21
 69 731 69 731 80 731 c 0,22,23
 93 731 93 731 103.5 725.5 c 128,-1,24
 114 720 114 720 117 709 c 2,25,-1
 281 139 l 1,26,-1
 371 497 l 2,27,28
 375 514 375 514 389.5 521 c 128,-1,29
 404 528 404 528 424 528 c 0,30,31
 442 528 442 528 456.5 521 c 128,-1,32
 471 514 471 514 476 497 c 2,33,-1
 567 139 l 1,34,-1
 730 709 l 2,35,36
 733 720 733 720 743.5 725.5 c 128,-1,37
 754 731 754 731 767 731 c 0,38,39
 778 731 778 731 790 728 c 128,-1,40
 802 725 802 725 811.5 719 c 128,-1,41
 821 713 821 713 827 705 c 128,-1,42
 833 697 833 697 833 688 c 0,43,44
 833 681 833 681 832 678 c 2,45,-1
 634 30 l 2,0,1
EndSplineSet
EndChar
StartChar: X
Encoding: 88 88 121
Width: 533
Flags: W
LayerCount: 2
Back
Fore
SplineSet
266 287 m 1,0,-1
 120 21 l 2,1,2
 115 12 115 12 106 4.5 c 128,-1,3
 97 -3 97 -3 86 -3 c 256,4,5
 75 -3 75 -3 63 1 c 128,-1,6
 51 5 51 5 41 12 c 128,-1,7
 31 19 31 19 24.5 28.5 c 128,-1,8
 18 38 18 38 18 49 c 0,9,10
 18 58 18 58 24 70 c 2,11,-1
 197 366 l 1,12,-1
 29 660 l 2,13,14
 21 674 21 674 21 686 c 0,15,16
 21 696 21 696 27 705 c 128,-1,17
 33 714 33 714 43 720.5 c 128,-1,18
 53 727 53 727 64.5 730.5 c 128,-1,19
 76 734 76 734 88 734 c 0,20,21
 102 734 102 734 111.5 725.5 c 128,-1,22
 121 717 121 717 128 704 c 2,23,-1
 266 448 l 1,24,-1
 406 704 l 2,25,26
 412 717 412 717 422 725.5 c 128,-1,27
 432 734 432 734 446 734 c 0,28,29
 457 734 457 734 469 730.5 c 128,-1,30
 481 727 481 727 490.5 720.5 c 128,-1,31
 500 714 500 714 506 705 c 128,-1,32
 512 696 512 696 512 686 c 0,33,34
 512 674 512 674 504 660 c 2,35,-1
 336 366 l 1,36,-1
 509 70 l 2,37,38
 516 56 516 56 516 49 c 0,39,40
 516 38 516 38 509.5 28.5 c 128,-1,41
 503 19 503 19 493 12 c 128,-1,42
 483 5 483 5 470.5 1 c 128,-1,43
 458 -3 458 -3 447 -3 c 256,44,45
 436 -3 436 -3 427.5 4.5 c 128,-1,46
 419 12 419 12 414 21 c 2,47,-1
 266 287 l 1,0,-1
EndSplineSet
EndChar
StartChar: Y
Encoding: 89 89 122
Width: 558
Flags: W
LayerCount: 2
Back
Fore
SplineSet
227 288 m 2,0,1
 227 291 227 291 226 294 c 128,-1,2
 225 297 225 297 224 299 c 2,3,-1
 17 672 l 2,4,5
 13 680 13 680 13 687 c 0,6,7
 13 697 13 697 19.5 705 c 128,-1,8
 26 713 26 713 36 719 c 128,-1,9
 46 725 46 725 57.5 728 c 128,-1,10
 69 731 69 731 80 731 c 0,11,12
 93 731 93 731 100.5 725 c 128,-1,13
 108 719 108 719 115 707 c 2,14,-1
 280 390 l 1,15,-1
 444 707 l 2,16,17
 456 731 456 731 479 731 c 0,18,19
 489 731 489 731 501 728 c 128,-1,20
 513 725 513 725 522.5 719 c 128,-1,21
 532 713 532 713 538.5 705 c 128,-1,22
 545 697 545 697 545 687 c 0,23,24
 545 684 545 684 544.5 680.5 c 128,-1,25
 544 677 544 677 542 672 c 2,26,-1
 335 299 l 2,27,28
 333 293 333 293 333 288 c 2,29,-1
 333 35 l 2,30,31
 333 18 333 18 316.5 9 c 128,-1,32
 300 0 300 0 280 0 c 256,33,34
 260 0 260 0 243.5 9 c 128,-1,35
 227 18 227 18 227 35 c 2,36,-1
 227 288 l 2,0,1
EndSplineSet
EndChar
StartChar: Z
Encoding: 90 90 127
Width: 508
Flags: W
LayerCount: 2
Back
Fore
SplineSet
153 94 m 1,0,-1
 456 94 l 2,1,2
 473 94 473 94 482 79 c 128,-1,3
 491 64 491 64 491 47 c 256,4,5
 491 30 491 30 482 15 c 128,-1,6
 473 0 473 0 456 0 c 2,7,-1
 51 0 l 2,8,9
 34 0 34 0 26 8.5 c 128,-1,10
 18 17 18 17 18 31 c 0,11,12
 18 50 18 50 29 68 c 2,13,-1
 339 637 l 1,14,-1
 68 637 l 2,15,16
 51 637 51 637 42 651 c 128,-1,17
 33 665 33 665 33 684 c 0,18,19
 33 701 33 701 41.5 716 c 128,-1,20
 50 731 50 731 68 731 c 2,21,-1
 441 731 l 2,22,23
 458 731 458 731 466.5 723 c 128,-1,24
 475 715 475 715 475 701 c 0,25,26
 475 683 475 683 463 662 c 2,27,-1
 153 94 l 1,0,-1
EndSplineSet
EndChar
StartChar: bracketleft
Encoding: 91 91 161
Width: 328
Flags: W
LayerCount: 2
Back
Fore
SplineSet
166 73 m 1,0,-1
 275 73 l 2,1,2
 291 73 291 73 300.5 59 c 128,-1,3
 310 45 310 45 310 25 c 0,4,5
 310 8 310 8 301 -6.5 c 128,-1,6
 292 -21 292 -21 275 -21 c 2,7,-1
 108 -21 l 2,8,9
 90 -21 90 -21 75 -12 c 128,-1,10
 60 -3 60 -3 60 14 c 2,11,-1
 60 733 l 2,12,13
 60 750 60 750 75 759 c 128,-1,14
 90 768 90 768 108 768 c 2,15,-1
 275 768 l 2,16,17
 292 768 292 768 301 753.5 c 128,-1,18
 310 739 310 739 310 722 c 0,19,20
 310 702 310 702 300.5 688 c 128,-1,21
 291 674 291 674 275 674 c 2,22,-1
 166 674 l 1,23,-1
 166 73 l 1,0,-1
EndSplineSet
EndChar
StartChar: backslash
Encoding: 92 92 157
Width: 362
Flags: W
LayerCount: 2
Back
Fore
SplineSet
24 705 m 2,0,1
 21 711 21 711 21 717 c 0,2,3
 21 732 21 732 33.5 743.5 c 128,-1,4
 46 755 46 755 63 755 c 0,5,6
 73 755 73 755 81.5 749.5 c 128,-1,7
 90 744 90 744 95 733 c 2,8,-1
 340 48 l 2,9,10
 341 44 341 44 341 37 c 0,11,12
 341 23 341 23 329.5 11 c 128,-1,13
 318 -1 318 -1 302 -1 c 0,14,15
 291 -1 291 -1 281.5 5.5 c 128,-1,16
 272 12 272 12 268 23 c 2,17,-1
 24 705 l 2,0,1
EndSplineSet
EndChar
StartChar: bracketright
Encoding: 93 93 162
Width: 327
Flags: W
LayerCount: 2
Back
Fore
SplineSet
161 674 m 1,0,-1
 52 674 l 2,1,2
 36 674 36 674 27 688 c 128,-1,3
 18 702 18 702 18 722 c 0,4,5
 18 739 18 739 26.5 753.5 c 128,-1,6
 35 768 35 768 52 768 c 2,7,-1
 220 768 l 2,8,9
 238 768 238 768 252.5 759 c 128,-1,10
 267 750 267 750 267 733 c 2,11,-1
 267 14 l 2,12,13
 267 -3 267 -3 252 -12 c 128,-1,14
 237 -21 237 -21 220 -21 c 2,15,-1
 52 -21 l 2,16,17
 35 -21 35 -21 26.5 -6.5 c 128,-1,18
 18 8 18 8 18 25 c 0,19,20
 18 45 18 45 27 59 c 128,-1,21
 36 73 36 73 52 73 c 2,22,-1
 161 73 l 1,23,-1
 161 674 l 1,0,-1
EndSplineSet
EndChar
StartChar: asciicircum
Encoding: 94 94 150
Width: 279
Flags: W
LayerCount: 2
Back
Fore
SplineSet
35 585 m 2,0,1
 30 582 30 582 26 582 c 0,2,3
 15 582 15 582 7.5 592.5 c 128,-1,4
 0 603 0 603 0 617 c 0,5,6
 0 626 0 626 4 634.5 c 128,-1,7
 8 643 8 643 18 648 c 2,8,-1
 122 704 l 2,9,10
 132 709 132 709 139 709 c 0,11,12
 148 709 148 709 156 704 c 2,13,-1
 260 649 l 2,14,15
 279 637 279 637 279 616 c 0,16,17
 279 603 279 603 271.5 592.5 c 128,-1,18
 264 582 264 582 253 582 c 0,19,20
 251 582 251 582 248.5 583 c 128,-1,21
 246 584 246 584 243 585 c 2,22,-1
 139 641 l 1,23,-1
 35 585 l 2,0,1
EndSplineSet
EndChar
StartChar: underscore
Encoding: 95 95 392
Width: 324
Flags: W
LayerCount: 2
Back
Fore
SplineSet
-32 -45 m 0,0,1
 -32 -26 -32 -26 -22.5 -13 c 128,-1,2
 -13 0 -13 0 2 0 c 2,3,-1
 322 0 l 2,4,5
 336 0 336 0 347 -13 c 128,-1,6
 358 -26 358 -26 358 -45 c 0,7,8
 358 -65 358 -65 347 -77 c 128,-1,9
 336 -89 336 -89 322 -89 c 2,10,-1
 2 -89 l 2,11,12
 -13 -89 -13 -89 -22.5 -77 c 128,-1,13
 -32 -65 -32 -65 -32 -45 c 0,0,1
EndSplineSet
EndChar
StartChar: grave
Encoding: 96 96 235
Width: 184
Flags: W
LayerCount: 2
Back
Fore
SplineSet
16 641 m 2,0,1
 8 645 8 645 4 652.5 c 128,-1,2
 0 660 0 660 0 668 c 0,3,4
 0 682 0 682 9.5 695.5 c 128,-1,5
 19 709 19 709 34 709 c 0,6,7
 37 709 37 709 45 707 c 2,8,-1
 169 644 l 2,9,10
 184 636 184 636 184 618 c 0,11,12
 184 604 184 604 174 590.5 c 128,-1,13
 164 577 164 577 150 577 c 0,14,15
 143 577 143 577 137 580 c 2,16,-1
 16 641 l 2,0,1
EndSplineSet
EndChar
StartChar: b
Encoding: 98 98 155
Width: 506
Flags: W
LayerCount: 2
Back
Fore
SplineSet
107 756 m 256,0,1
 130 756 130 756 145.5 746.5 c 128,-1,2
 161 737 161 737 161 722 c 2,3,-1
 161 404 l 1,4,5
 177 433 177 433 209.5 456.5 c 128,-1,6
 242 480 242 480 290 480 c 0,7,8
 327 480 327 480 359.5 464.5 c 128,-1,9
 392 449 392 449 416.5 422 c 128,-1,10
 441 395 441 395 455 359 c 128,-1,11
 469 323 469 323 469 283 c 2,12,-1
 469 191 l 2,13,14
 469 152 469 152 454.5 116 c 128,-1,15
 440 80 440 80 416 52.5 c 128,-1,16
 392 25 392 25 360 8.5 c 128,-1,17
 328 -8 328 -8 293 -8 c 0,18,19
 245 -8 245 -8 208 15.5 c 128,-1,20
 171 39 171 39 155 70 c 1,21,-1
 155 35 l 2,22,23
 155 22 155 22 141 11 c 128,-1,24
 127 0 127 0 107 0 c 0,25,26
 84 0 84 0 70 11 c 128,-1,27
 56 22 56 22 56 35 c 2,28,-1
 56 722 l 2,29,30
 56 737 56 737 70 746.5 c 128,-1,31
 84 756 84 756 107 756 c 256,0,1
364 283 m 2,32,33
 364 302 364 302 356 321 c 128,-1,34
 348 340 348 340 334 354.5 c 128,-1,35
 320 369 320 369 301.5 378 c 128,-1,36
 283 387 283 387 262 387 c 0,37,38
 244 387 244 387 225.5 380 c 128,-1,39
 207 373 207 373 193 359.5 c 128,-1,40
 179 346 179 346 170 326.5 c 128,-1,41
 161 307 161 307 161 283 c 2,42,-1
 161 168 l 2,43,44
 161 159 161 159 169 145 c 128,-1,45
 177 131 177 131 190.5 117.5 c 128,-1,46
 204 104 204 104 222.5 94.5 c 128,-1,47
 241 85 241 85 263 85 c 0,48,49
 284 85 284 85 302 94 c 128,-1,50
 320 103 320 103 334 118 c 128,-1,51
 348 133 348 133 356 152 c 128,-1,52
 364 171 364 171 364 191 c 2,53,-1
 364 283 l 2,32,33
EndSplineSet
Substitution2: "'ss02' Style Set 2 in Latin lookup 4 subtable" b.ss02
Substitution2: "'salt' Stylistic Alternatives in Latin lookup 2 subtable" b.ss02
Substitution2: "'aalt' Access All Alternates in Latin lookup 0 subtable" b.ss02
EndChar
StartChar: c
Encoding: 99 99 166
Width: 426
Flags: W
LayerCount: 2
Back
Fore
SplineSet
247 -8 m 0,0,1
 193 -8 193 -8 153.5 7 c 128,-1,2
 114 22 114 22 88.5 48.5 c 128,-1,3
 63 75 63 75 51 111.5 c 128,-1,4
 39 148 39 148 39 191 c 2,5,-1
 39 281 l 2,6,7
 39 323 39 323 51 359.5 c 128,-1,8
 63 396 63 396 88.5 422.5 c 128,-1,9
 114 449 114 449 153 464.5 c 128,-1,10
 192 480 192 480 246 480 c 0,11,12
 280 480 280 480 308 473.5 c 128,-1,13
 336 467 336 467 356.5 456.5 c 128,-1,14
 377 446 377 446 388 433 c 128,-1,15
 399 420 399 420 399 407 c 0,16,17
 399 392 399 392 387.5 374 c 128,-1,18
 376 356 376 356 357 356 c 0,19,20
 349 356 349 356 341 361 c 128,-1,21
 333 366 333 366 321.5 371.5 c 128,-1,22
 310 377 310 377 294 382 c 128,-1,23
 278 387 278 387 254 387 c 0,24,25
 197 387 197 387 170.5 359 c 128,-1,26
 144 331 144 331 144 281 c 2,27,-1
 144 191 l 2,28,29
 144 141 144 141 170.5 113 c 128,-1,30
 197 85 197 85 255 85 c 0,31,32
 280 85 280 85 296 90 c 128,-1,33
 312 95 312 95 323.5 101.5 c 128,-1,34
 335 108 335 108 343 113 c 128,-1,35
 351 118 351 118 360 118 c 0,36,37
 381 118 381 118 393 101 c 128,-1,38
 405 84 405 84 405 68 c 0,39,40
 405 55 405 55 393 41.5 c 128,-1,41
 381 28 381 28 360 17 c 128,-1,42
 339 6 339 6 310 -1 c 128,-1,43
 281 -8 281 -8 247 -8 c 0,0,1
EndSplineSet
EndChar
StartChar: d
Encoding: 100 100 182
Width: 507
Flags: W
LayerCount: 2
Back
Fore
SplineSet
399 756 m 256,0,1
 422 756 422 756 436.5 746.5 c 128,-1,2
 451 737 451 737 451 722 c 2,3,-1
 451 35 l 2,4,5
 451 22 451 22 436.5 11 c 128,-1,6
 422 0 422 0 399 0 c 0,7,8
 379 0 379 0 365 11 c 128,-1,9
 351 22 351 22 351 35 c 2,10,-1
 351 70 l 1,11,12
 336 39 336 39 298.5 15.5 c 128,-1,13
 261 -8 261 -8 213 -8 c 0,14,15
 178 -8 178 -8 146 8.5 c 128,-1,16
 114 25 114 25 90 52.5 c 128,-1,17
 66 80 66 80 51.5 116 c 128,-1,18
 37 152 37 152 37 191 c 2,19,-1
 37 283 l 2,20,21
 37 323 37 323 51 359 c 128,-1,22
 65 395 65 395 89.5 422 c 128,-1,23
 114 449 114 449 146.5 464.5 c 128,-1,24
 179 480 179 480 216 480 c 0,25,26
 264 480 264 480 296.5 456.5 c 128,-1,27
 329 433 329 433 346 404 c 1,28,-1
 346 722 l 2,29,30
 346 737 346 737 361 746.5 c 128,-1,31
 376 756 376 756 399 756 c 256,0,1
142 191 m 2,32,33
 142 171 142 171 150 152 c 128,-1,34
 158 133 158 133 172 118 c 128,-1,35
 186 103 186 103 204 94 c 128,-1,36
 222 85 222 85 243 85 c 0,37,38
 265 85 265 85 283.5 94.5 c 128,-1,39
 302 104 302 104 316 117.5 c 128,-1,40
 330 131 330 131 338 145 c 128,-1,41
 346 159 346 159 346 168 c 2,42,-1
 346 283 l 2,43,44
 346 307 346 307 337 326.5 c 128,-1,45
 328 346 328 346 313.5 359.5 c 128,-1,46
 299 373 299 373 281 380 c 128,-1,47
 263 387 263 387 244 387 c 0,48,49
 223 387 223 387 204.5 378 c 128,-1,50
 186 369 186 369 172 354.5 c 128,-1,51
 158 340 158 340 150 321 c 128,-1,52
 142 302 142 302 142 283 c 2,53,-1
 142 191 l 2,32,33
EndSplineSet
EndChar
StartChar: e
Encoding: 101 101 194
Width: 474
Flags: W
LayerCount: 2
Back
Fore
SplineSet
245 480 m 0,0,1
 285 480 285 480 321 466.5 c 128,-1,2
 357 453 357 453 384.5 428.5 c 128,-1,3
 412 404 412 404 428 370 c 128,-1,4
 444 336 444 336 444 295 c 0,5,6
 444 264 444 264 436 246.5 c 128,-1,7
 428 229 428 229 415.5 221 c 128,-1,8
 403 213 403 213 386.5 211 c 128,-1,9
 370 209 370 209 353 209 c 2,10,-1
 142 209 l 1,11,-1
 142 186 l 2,12,13
 142 135 142 135 178 106 c 128,-1,14
 214 77 214 77 272 77 c 0,15,16
 299 77 299 77 317.5 83 c 128,-1,17
 336 89 336 89 349.5 96 c 128,-1,18
 363 103 363 103 373.5 109 c 128,-1,19
 384 115 384 115 394 115 c 0,20,21
 413 115 413 115 424 98.5 c 128,-1,22
 435 82 435 82 435 68 c 0,23,24
 435 57 435 57 423.5 43.5 c 128,-1,25
 412 30 412 30 390 18.5 c 128,-1,26
 368 7 368 7 337.5 -0.5 c 128,-1,27
 307 -8 307 -8 269 -8 c 0,28,29
 218 -8 218 -8 175.5 6.5 c 128,-1,30
 133 21 133 21 102 47 c 128,-1,31
 71 73 71 73 54 109.5 c 128,-1,32
 37 146 37 146 37 191 c 2,33,-1
 37 286 l 2,34,35
 37 325 37 325 53.5 360.5 c 128,-1,36
 70 396 70 396 98 422.5 c 128,-1,37
 126 449 126 449 164 464.5 c 128,-1,38
 202 480 202 480 245 480 c 0,0,1
308 274 m 2,39,40
 330 274 330 274 337.5 280 c 128,-1,41
 345 286 345 286 345 304 c 0,42,43
 345 344 345 344 316 372 c 128,-1,44
 287 400 287 400 244 400 c 0,45,46
 223 400 223 400 204.5 393 c 128,-1,47
 186 386 186 386 172 373.5 c 128,-1,48
 158 361 158 361 150 344 c 128,-1,49
 142 327 142 327 142 306 c 2,50,-1
 142 274 l 1,51,-1
 308 274 l 2,39,40
EndSplineSet
EndChar
StartChar: f
Encoding: 102 102 216
Width: 328
Flags: W
LayerCount: 2
Back
Fore
SplineSet
161 474 m 1,0,-1
 291 474 l 2,1,2
 305 474 305 474 312.5 462 c 128,-1,3
 320 450 320 450 320 435 c 256,4,5
 320 420 320 420 312.5 408 c 128,-1,6
 305 396 305 396 291 396 c 2,7,-1
 161 396 l 1,8,-1
 161 34 l 2,9,10
 161 19 161 19 145 9.5 c 128,-1,11
 129 0 129 0 107 0 c 256,12,13
 85 0 85 0 70.5 9.5 c 128,-1,14
 56 19 56 19 56 34 c 2,15,-1
 56 565 l 2,16,17
 56 605 56 605 70 640 c 128,-1,18
 84 675 84 675 108.5 701 c 128,-1,19
 133 727 133 727 165 741.5 c 128,-1,20
 197 756 197 756 233 756 c 2,21,-1
 279 756 l 2,22,23
 299 756 299 756 309.5 742 c 128,-1,24
 320 728 320 728 320 711 c 256,25,26
 320 694 320 694 309.5 680 c 128,-1,27
 299 666 299 666 279 666 c 2,28,-1
 253 666 l 2,29,30
 213 666 213 666 187 640 c 128,-1,31
 161 614 161 614 161 575 c 2,32,-1
 161 474 l 1,0,-1
EndSplineSet
EndChar
StartChar: g
Encoding: 103 103 228
Width: 463
Flags: W
LayerCount: 2
Back
Fore
SplineSet
226 122 m 0,0,1
 187 122 187 122 157 134 c 1,2,3
 149 129 149 129 143.5 122.5 c 128,-1,4
 138 116 138 116 138 106 c 0,5,6
 138 88 138 88 160.5 80 c 128,-1,7
 183 72 183 72 217 67.5 c 128,-1,8
 251 63 251 63 290 57.5 c 128,-1,9
 329 52 329 52 363 38.5 c 128,-1,10
 397 25 397 25 419.5 -1.5 c 128,-1,11
 442 -28 442 -28 442 -74 c 0,12,13
 442 -113 442 -113 425 -141.5 c 128,-1,14
 408 -170 408 -170 379.5 -188.5 c 128,-1,15
 351 -207 351 -207 312.5 -216 c 128,-1,16
 274 -225 274 -225 232 -225 c 0,17,18
 188 -225 188 -225 149.5 -215.5 c 128,-1,19
 111 -206 111 -206 82 -188.5 c 128,-1,20
 53 -171 53 -171 36 -145.5 c 128,-1,21
 19 -120 19 -120 19 -87 c 0,22,23
 19 -47 19 -47 41.5 -21 c 128,-1,24
 64 5 64 5 96 20 c 1,25,26
 75 29 75 29 62 44 c 128,-1,27
 49 59 49 59 49 86 c 0,28,29
 49 114 49 114 62.5 131 c 128,-1,30
 76 148 76 148 99 162 c 1,31,32
 71 184 71 184 55.5 216.5 c 128,-1,33
 40 249 40 249 40 288 c 2,34,-1
 40 316 l 2,35,36
 40 352 40 352 53.5 382 c 128,-1,37
 67 412 67 412 91 434 c 128,-1,38
 115 456 115 456 149.5 468 c 128,-1,39
 184 480 184 480 226 480 c 0,40,41
 296 480 296 480 342 446 c 1,42,43
 358 482 358 482 374.5 497.5 c 128,-1,44
 391 513 391 513 407 513 c 0,45,46
 427 513 427 513 438.5 500.5 c 128,-1,47
 450 488 450 488 450 477 c 0,48,49
 450 469 450 469 445 462.5 c 128,-1,50
 440 456 440 456 433 452 c 0,51,52
 422 447 422 447 408.5 438 c 128,-1,53
 395 429 395 429 383 412 c 1,54,55
 415 372 415 372 415 316 c 2,56,-1
 415 288 l 2,57,58
 415 252 415 252 401 222 c 128,-1,59
 387 192 387 192 362 169.5 c 128,-1,60
 337 147 337 147 302.5 134.5 c 128,-1,61
 268 122 268 122 226 122 c 0,0,1
313 316 m 2,62,63
 313 357 313 357 291 385 c 128,-1,64
 269 413 269 413 227 413 c 0,65,66
 186 413 186 413 164 385 c 128,-1,67
 142 357 142 357 142 316 c 2,68,-1
 142 289 l 2,69,70
 142 246 142 246 164 217.5 c 128,-1,71
 186 189 186 189 228 189 c 0,72,73
 268 189 268 189 290.5 217 c 128,-1,74
 313 245 313 245 313 288 c 2,75,-1
 313 316 l 2,62,63
340 -77 m 0,76,77
 340 -52 340 -52 324.5 -37.5 c 128,-1,78
 309 -23 309 -23 286 -15.5 c 128,-1,79
 263 -8 263 -8 236 -5.5 c 128,-1,80
 209 -3 209 -3 185 -1 c 1,81,82
 157 -12 157 -12 137.5 -30 c 128,-1,83
 118 -48 118 -48 118 -76 c 0,84,85
 118 -113 118 -113 149.5 -134 c 128,-1,86
 181 -155 181 -155 231 -155 c 0,87,88
 279 -155 279 -155 309.5 -134 c 128,-1,89
 340 -113 340 -113 340 -77 c 0,76,77
EndSplineSet
Substitution2: "'ss03' Style Set 3 in Latin lookup 5 subtable" g.ss03
Substitution2: "'salt' Stylistic Alternatives in Latin lookup 2 subtable" g.ss03
Substitution2: "'aalt' Access All Alternates in Latin lookup 0 subtable" g.ss03
EndChar
StartChar: h
Encoding: 104 104 242
Width: 514
Flags: W
LayerCount: 2
Back
Fore
SplineSet
161 35 m 2,0,1
 161 22 161 22 145 11 c 128,-1,2
 129 0 129 0 108 0 c 0,3,4
 85 0 85 0 70.5 11 c 128,-1,5
 56 22 56 22 56 35 c 2,6,-1
 56 722 l 2,7,8
 56 737 56 737 70.5 746.5 c 128,-1,9
 85 756 85 756 108 756 c 0,10,11
 129 756 129 756 145 746.5 c 128,-1,12
 161 737 161 737 161 722 c 2,13,-1
 161 404 l 1,14,15
 175 433 175 433 208 456.5 c 128,-1,16
 241 480 241 480 289 480 c 0,17,18
 324 480 324 480 355.5 464.5 c 128,-1,19
 387 449 387 449 411 422 c 128,-1,20
 435 395 435 395 449 359 c 128,-1,21
 463 323 463 323 463 283 c 2,22,-1
 463 35 l 2,23,24
 463 18 463 18 446.5 9 c 128,-1,25
 430 0 430 0 410 0 c 0,26,27
 392 0 392 0 375 9 c 128,-1,28
 358 18 358 18 358 35 c 2,29,-1
 358 283 l 2,30,31
 358 302 358 302 350 321 c 128,-1,32
 342 340 342 340 328 354.5 c 128,-1,33
 314 369 314 369 296 378 c 128,-1,34
 278 387 278 387 257 387 c 0,35,36
 239 387 239 387 221.5 380 c 128,-1,37
 204 373 204 373 190.5 359.5 c 128,-1,38
 177 346 177 346 169 326.5 c 128,-1,39
 161 307 161 307 161 283 c 2,40,-1
 161 35 l 2,0,1
EndSplineSet
EndChar
StartChar: i
Encoding: 105 105 247
Width: 215
Flags: W
LayerCount: 2
Back
Fore
SplineSet
107 474 m 256,0,1
 130 474 130 474 145 464.5 c 128,-1,2
 160 455 160 455 160 440 c 2,3,-1
 160 35 l 2,4,5
 160 22 160 22 145 11 c 128,-1,6
 130 0 130 0 107 0 c 256,7,8
 84 0 84 0 69.5 11 c 128,-1,9
 55 22 55 22 55 35 c 2,10,-1
 55 440 l 2,11,12
 55 455 55 455 69.5 464.5 c 128,-1,13
 84 474 84 474 107 474 c 256,0,1
107 703 m 256,14,15
 133 703 133 703 150.5 687 c 128,-1,16
 168 671 168 671 168 648 c 0,17,18
 168 626 168 626 150.5 609.5 c 128,-1,19
 133 593 133 593 107 593 c 256,20,21
 81 593 81 593 63.5 609.5 c 128,-1,22
 46 626 46 626 46 648 c 0,23,24
 46 671 46 671 63.5 687 c 128,-1,25
 81 703 81 703 107 703 c 256,14,15
EndSplineSet
EndChar
StartChar: j
Encoding: 106 106 259
Width: 215
Flags: W
LayerCount: 2
Back
Fore
SplineSet
107 703 m 256,0,1
 133 703 133 703 150.5 687 c 128,-1,2
 168 671 168 671 168 648 c 0,3,4
 168 626 168 626 150.5 609.5 c 128,-1,5
 133 593 133 593 107 593 c 256,6,7
 81 593 81 593 63.5 609.5 c 128,-1,8
 46 626 46 626 46 648 c 0,9,10
 46 671 46 671 63.5 687 c 128,-1,11
 81 703 81 703 107 703 c 256,0,1
107 474 m 256,12,13
 130 474 130 474 145 464.5 c 128,-1,14
 160 455 160 455 160 440 c 2,15,-1
 160 -36 l 2,16,17
 160 -78 160 -78 151.5 -112.5 c 128,-1,18
 143 -147 143 -147 125.5 -172 c 128,-1,19
 108 -197 108 -197 81 -211 c 128,-1,20
 54 -225 54 -225 17 -225 c 0,21,22
 -15 -225 -15 -225 -26.5 -211.5 c 128,-1,23
 -38 -198 -38 -198 -38 -181 c 0,24,25
 -38 -160 -38 -160 -26 -147.5 c 128,-1,26
 -14 -135 -14 -135 3 -135 c 0,27,28
 38 -135 38 -135 46.5 -107 c 128,-1,29
 55 -79 55 -79 55 -36 c 2,30,-1
 55 440 l 2,31,32
 55 455 55 455 69.5 464.5 c 128,-1,33
 84 474 84 474 107 474 c 256,12,13
EndSplineSet
EndChar
StartChar: k
Encoding: 107 107 261
Width: 480
Flags: W
LayerCount: 2
Back
Fore
SplineSet
305 291 m 1,0,-1
 462 65 l 2,1,2
 468 56 468 56 468 47 c 256,3,4
 468 38 468 38 462.5 28.5 c 128,-1,5
 457 19 457 19 448 11.5 c 128,-1,6
 439 4 439 4 428.5 -1 c 128,-1,7
 418 -6 418 -6 409 -6 c 0,8,9
 391 -6 391 -6 381 9 c 2,10,-1
 234 226 l 1,11,-1
 161 160 l 1,12,-1
 161 35 l 2,13,14
 161 22 161 22 145.5 11 c 128,-1,15
 130 0 130 0 107 0 c 256,16,17
 84 0 84 0 70 11 c 128,-1,18
 56 22 56 22 56 35 c 2,19,-1
 56 722 l 2,20,21
 56 737 56 737 70 746.5 c 128,-1,22
 84 756 84 756 107 756 c 256,23,24
 130 756 130 756 145.5 746.5 c 128,-1,25
 161 737 161 737 161 722 c 2,26,-1
 161 277 l 1,27,-1
 370 469 l 2,28,29
 379 478 379 478 392 478 c 0,30,31
 401 478 401 478 410 473.5 c 128,-1,32
 419 469 419 469 426.5 462 c 128,-1,33
 434 455 434 455 438.5 446 c 128,-1,34
 443 437 443 437 443 428 c 0,35,36
 443 415 443 415 434 406 c 2,37,-1
 305 291 l 1,0,-1
EndSplineSet
EndChar
StartChar: l
Encoding: 108 108 264
Width: 233
Flags: W
LayerCount: 2
Back
Fore
SplineSet
116 756 m 0,0,1
 138 756 138 756 153.5 746.5 c 128,-1,2
 169 737 169 737 169 722 c 2,3,-1
 169 35 l 2,4,5
 169 22 169 22 153.5 11 c 128,-1,6
 138 0 138 0 116 0 c 0,7,8
 93 0 93 0 78.5 11 c 128,-1,9
 64 22 64 22 64 35 c 2,10,-1
 64 722 l 2,11,12
 64 737 64 737 78.5 746.5 c 128,-1,13
 93 756 93 756 116 756 c 0,0,1
EndSplineSet
EndChar
StartChar: m
Encoding: 109 109 274
Width: 794
Flags: W
LayerCount: 2
Back
Fore
SplineSet
346 284 m 2,0,1
 346 331 346 331 318 359 c 128,-1,2
 290 387 290 387 253 387 c 0,3,4
 235 387 235 387 218.5 380.5 c 128,-1,5
 202 374 202 374 189 360.5 c 128,-1,6
 176 347 176 347 168 327.5 c 128,-1,7
 160 308 160 308 160 283 c 2,8,-1
 160 35 l 2,9,10
 160 22 160 22 144 11 c 128,-1,11
 128 0 128 0 107 0 c 0,12,13
 84 0 84 0 69.5 11 c 128,-1,14
 55 22 55 22 55 35 c 2,15,-1
 55 440 l 2,16,17
 55 455 55 455 69.5 464.5 c 128,-1,18
 84 474 84 474 107 474 c 0,19,20
 126 474 126 474 140 464.5 c 128,-1,21
 154 455 154 455 154 440 c 2,22,-1
 154 404 l 1,23,24
 171 433 171 433 203.5 456.5 c 128,-1,25
 236 480 236 480 287 480 c 0,26,27
 332 480 332 480 366.5 452.5 c 128,-1,28
 401 425 401 425 418 380 c 1,29,30
 444 431 444 431 484.5 455.5 c 128,-1,31
 525 480 525 480 569 480 c 0,32,33
 603 480 603 480 634.5 467 c 128,-1,34
 666 454 666 454 690 429 c 128,-1,35
 714 404 714 404 728.5 367 c 128,-1,36
 743 330 743 330 743 283 c 2,37,-1
 743 35 l 2,38,39
 743 22 743 22 727.5 11 c 128,-1,40
 712 0 712 0 690 0 c 0,41,42
 670 0 670 0 654 11 c 128,-1,43
 638 22 638 22 638 35 c 2,44,-1
 638 283 l 2,45,46
 638 309 638 309 630 328.5 c 128,-1,47
 622 348 622 348 609 361.5 c 128,-1,48
 596 375 596 375 579 381.5 c 128,-1,49
 562 388 562 388 545 388 c 0,50,51
 527 388 527 388 510.5 381 c 128,-1,52
 494 374 494 374 480.5 361 c 128,-1,53
 467 348 467 348 459 328.5 c 128,-1,54
 451 309 451 309 451 285 c 2,55,-1
 451 34 l 2,56,57
 451 16 451 16 434.5 8 c 128,-1,58
 418 0 418 0 398 0 c 0,59,60
 380 0 380 0 363 8 c 128,-1,61
 346 16 346 16 346 34 c 2,62,-1
 346 284 l 2,0,1
EndSplineSet
Substitution2: "'ss04' Style Set 4 in Latin lookup 6 subtable" m.ss04
Substitution2: "'salt' Stylistic Alternatives in Latin lookup 2 subtable" m.ss04
Substitution2: "'aalt' Access All Alternates in Latin lookup 0 subtable" m.ss04
EndChar
StartChar: n
Encoding: 110 110 280
Width: 513
Flags: W
LayerCount: 2
Back
Fore
SplineSet
160 35 m 2,0,1
 160 22 160 22 144 11 c 128,-1,2
 128 0 128 0 107 0 c 0,3,4
 84 0 84 0 69.5 11 c 128,-1,5
 55 22 55 22 55 35 c 2,6,-1
 55 440 l 2,7,8
 55 455 55 455 69.5 464.5 c 128,-1,9
 84 474 84 474 107 474 c 0,10,11
 127 474 127 474 140.5 464.5 c 128,-1,12
 154 455 154 455 154 440 c 2,13,-1
 154 404 l 1,14,15
 169 433 169 433 203 456.5 c 128,-1,16
 237 480 237 480 288 480 c 0,17,18
 323 480 323 480 354.5 464.5 c 128,-1,19
 386 449 386 449 410 422 c 128,-1,20
 434 395 434 395 448 359 c 128,-1,21
 462 323 462 323 462 283 c 2,22,-1
 462 35 l 2,23,24
 462 18 462 18 445.5 9 c 128,-1,25
 429 0 429 0 409 0 c 0,26,27
 391 0 391 0 374 9 c 128,-1,28
 357 18 357 18 357 35 c 2,29,-1
 357 283 l 2,30,31
 357 302 357 302 349 321 c 128,-1,32
 341 340 341 340 327.5 354.5 c 128,-1,33
 314 369 314 369 295.5 378 c 128,-1,34
 277 387 277 387 256 387 c 0,35,36
 238 387 238 387 220.5 380 c 128,-1,37
 203 373 203 373 189.5 359.5 c 128,-1,38
 176 346 176 346 168 326.5 c 128,-1,39
 160 307 160 307 160 283 c 2,40,-1
 160 35 l 2,0,1
EndSplineSet
Substitution2: "'ss04' Style Set 4 in Latin lookup 6 subtable" n.ss04
Substitution2: "'salt' Stylistic Alternatives in Latin lookup 2 subtable" n.ss04
Substitution2: "'aalt' Access All Alternates in Latin lookup 0 subtable" n.ss04
EndChar
StartChar: o
Encoding: 111 111 291
Width: 487
Flags: W
LayerCount: 2
Back
Fore
SplineSet
243 480 m 0,0,1
 284 480 284 480 321.5 464.5 c 128,-1,2
 359 449 359 449 387.5 422 c 128,-1,3
 416 395 416 395 433 359 c 128,-1,4
 450 323 450 323 450 283 c 2,5,-1
 450 191 l 2,6,7
 450 152 450 152 433 116 c 128,-1,8
 416 80 416 80 387.5 52.5 c 128,-1,9
 359 25 359 25 321.5 8.5 c 128,-1,10
 284 -8 284 -8 243 -8 c 0,11,12
 201 -8 201 -8 163.5 8.5 c 128,-1,13
 126 25 126 25 97.5 52.5 c 128,-1,14
 69 80 69 80 52.5 116 c 128,-1,15
 36 152 36 152 36 191 c 2,16,-1
 36 283 l 2,17,18
 36 322 36 322 52.5 358 c 128,-1,19
 69 394 69 394 97 421 c 128,-1,20
 125 448 125 448 162.5 464 c 128,-1,21
 200 480 200 480 243 480 c 0,0,1
345 283 m 2,22,23
 345 302 345 302 337 321 c 128,-1,24
 329 340 329 340 315 354.5 c 128,-1,25
 301 369 301 369 282.5 378 c 128,-1,26
 264 387 264 387 243 387 c 256,27,28
 222 387 222 387 203 378 c 128,-1,29
 184 369 184 369 170.5 354.5 c 128,-1,30
 157 340 157 340 149 321 c 128,-1,31
 141 302 141 302 141 283 c 2,32,-1
 141 191 l 2,33,34
 141 171 141 171 149 152 c 128,-1,35
 157 133 157 133 170.5 118 c 128,-1,36
 184 103 184 103 203 94 c 128,-1,37
 222 85 222 85 243 85 c 256,38,39
 264 85 264 85 282.5 94 c 128,-1,40
 301 103 301 103 315 118 c 128,-1,41
 329 133 329 133 337 152 c 128,-1,42
 345 171 345 171 345 191 c 2,43,-1
 345 283 l 2,22,23
EndSplineSet
EndChar
StartChar: p
Encoding: 112 112 314
Width: 506
Flags: W
LayerCount: 2
Back
Fore
SplineSet
106 474 m 256,0,1
 127 474 127 474 141 464.5 c 128,-1,2
 155 455 155 455 155 440 c 2,3,-1
 155 404 l 1,4,5
 172 433 172 433 206.5 456.5 c 128,-1,6
 241 480 241 480 289 480 c 0,7,8
 326 480 326 480 359 464.5 c 128,-1,9
 392 449 392 449 416.5 422 c 128,-1,10
 441 395 441 395 455 359 c 128,-1,11
 469 323 469 323 469 283 c 2,12,-1
 469 191 l 2,13,14
 469 152 469 152 454.5 116 c 128,-1,15
 440 80 440 80 416 52.5 c 128,-1,16
 392 25 392 25 360 8.5 c 128,-1,17
 328 -8 328 -8 293 -8 c 0,18,19
 248 -8 248 -8 212 15.5 c 128,-1,20
 176 39 176 39 161 70 c 1,21,-1
 161 -190 l 2,22,23
 161 -204 161 -204 145.5 -214.5 c 128,-1,24
 130 -225 130 -225 107 -225 c 256,25,26
 84 -225 84 -225 70 -214.5 c 128,-1,27
 56 -204 56 -204 56 -190 c 2,28,-1
 56 440 l 2,29,30
 56 455 56 455 70.5 464.5 c 128,-1,31
 85 474 85 474 106 474 c 256,0,1
364 283 m 2,32,33
 364 302 364 302 356 321 c 128,-1,34
 348 340 348 340 333.5 354.5 c 128,-1,35
 319 369 319 369 300 378 c 128,-1,36
 281 387 281 387 260 387 c 0,37,38
 242 387 242 387 224 380 c 128,-1,39
 206 373 206 373 192 359.5 c 128,-1,40
 178 346 178 346 169.5 326.5 c 128,-1,41
 161 307 161 307 161 283 c 2,42,-1
 161 168 l 2,43,44
 161 159 161 159 168.5 145 c 128,-1,45
 176 131 176 131 189.5 117.5 c 128,-1,46
 203 104 203 104 221.5 94.5 c 128,-1,47
 240 85 240 85 262 85 c 0,48,49
 282 85 282 85 300.5 94 c 128,-1,50
 319 103 319 103 333 118 c 128,-1,51
 347 133 347 133 355.5 152 c 128,-1,52
 364 171 364 171 364 191 c 2,53,-1
 364 283 l 2,32,33
EndSplineSet
EndChar
StartChar: q
Encoding: 113 113 327
Width: 507
Flags: W
LayerCount: 2
Back
Fore
SplineSet
400 474 m 256,0,1
 421 474 421 474 436 464.5 c 128,-1,2
 451 455 451 455 451 440 c 2,3,-1
 451 -190 l 2,4,5
 451 -204 451 -204 436.5 -214.5 c 128,-1,6
 422 -225 422 -225 399 -225 c 256,7,8
 376 -225 376 -225 361 -214.5 c 128,-1,9
 346 -204 346 -204 346 -190 c 2,10,-1
 346 70 l 1,11,12
 330 39 330 39 294 15.5 c 128,-1,13
 258 -8 258 -8 213 -8 c 0,14,15
 178 -8 178 -8 146 8.5 c 128,-1,16
 114 25 114 25 90 52.5 c 128,-1,17
 66 80 66 80 51.5 116 c 128,-1,18
 37 152 37 152 37 191 c 2,19,-1
 37 283 l 2,20,21
 37 323 37 323 51 359 c 128,-1,22
 65 395 65 395 89.5 422 c 128,-1,23
 114 449 114 449 146.5 464.5 c 128,-1,24
 179 480 179 480 217 480 c 0,25,26
 266 480 266 480 300 456.5 c 128,-1,27
 334 433 334 433 351 404 c 1,28,-1
 351 440 l 2,29,30
 351 455 351 455 365 464.5 c 128,-1,31
 379 474 379 474 400 474 c 256,0,1
142 191 m 2,32,33
 142 171 142 171 150.5 152 c 128,-1,34
 159 133 159 133 173 118 c 128,-1,35
 187 103 187 103 205.5 94 c 128,-1,36
 224 85 224 85 244 85 c 0,37,38
 266 85 266 85 285 94.5 c 128,-1,39
 304 104 304 104 317.5 117.5 c 128,-1,40
 331 131 331 131 338.5 145 c 128,-1,41
 346 159 346 159 346 168 c 2,42,-1
 346 283 l 2,43,44
 346 307 346 307 337.5 326.5 c 128,-1,45
 329 346 329 346 314.5 359.5 c 128,-1,46
 300 373 300 373 282 380 c 128,-1,47
 264 387 264 387 246 387 c 0,48,49
 225 387 225 387 206 378 c 128,-1,50
 187 369 187 369 172.5 354.5 c 128,-1,51
 158 340 158 340 150 321 c 128,-1,52
 142 302 142 302 142 283 c 2,53,-1
 142 191 l 2,32,33
EndSplineSet
Substitution2: "'ss02' Style Set 2 in Latin lookup 4 subtable" q.ss02
Substitution2: "'salt' Stylistic Alternatives in Latin lookup 2 subtable" q.ss02
Substitution2: "'aalt' Access All Alternates in Latin lookup 0 subtable" q.ss02
EndChar
StartChar: r
Encoding: 114 114 339
Width: 360
Flags: W
LayerCount: 2
Back
Fore
SplineSet
281 387 m 2,0,1
 258 387 258 387 236.5 377 c 128,-1,2
 215 367 215 367 198 348 c 128,-1,3
 181 329 181 329 170.5 301.5 c 128,-1,4
 160 274 160 274 160 240 c 2,5,-1
 160 35 l 2,6,7
 160 22 160 22 144.5 11 c 128,-1,8
 129 0 129 0 106 0 c 256,9,10
 83 0 83 0 69 11 c 128,-1,11
 55 22 55 22 55 35 c 2,12,-1
 55 440 l 2,13,14
 55 455 55 455 69 464.5 c 128,-1,15
 83 474 83 474 106 474 c 0,16,17
 126 474 126 474 140 464.5 c 128,-1,18
 154 455 154 455 154 440 c 2,19,-1
 154 396 l 1,20,21
 162 412 162 412 174.5 427 c 128,-1,22
 187 442 187 442 203.5 454 c 128,-1,23
 220 466 220 466 239.5 473 c 128,-1,24
 259 480 259 480 281 480 c 2,25,-1
 313 480 l 2,26,27
 329 480 329 480 341 466.5 c 128,-1,28
 353 453 353 453 353 434 c 0,29,30
 353 414 353 414 341 400.5 c 128,-1,31
 329 387 329 387 313 387 c 2,32,-1
 281 387 l 2,0,1
EndSplineSet
Substitution2: "'ss04' Style Set 4 in Latin lookup 6 subtable" r.ss04
Substitution2: "'salt' Stylistic Alternatives in Latin lookup 2 subtable" r.ss04
Substitution2: "'aalt' Access All Alternates in Latin lookup 0 subtable" r.ss04
EndChar
StartChar: s
Encoding: 115 115 347
Width: 404
Flags: W
LayerCount: 2
Back
Fore
SplineSet
196 73 m 0,0,1
 221 73 221 73 237 77.5 c 128,-1,2
 253 82 253 82 263 89.5 c 128,-1,3
 273 97 273 97 277 107 c 128,-1,4
 281 117 281 117 281 127 c 0,5,6
 281 153 281 153 263 167.5 c 128,-1,7
 245 182 245 182 218.5 191 c 128,-1,8
 192 200 192 200 160.5 208.5 c 128,-1,9
 129 217 129 217 102.5 231.5 c 128,-1,10
 76 246 76 246 58 270 c 128,-1,11
 40 294 40 294 40 336 c 0,12,13
 40 362 40 362 49 387.5 c 128,-1,14
 58 413 58 413 78 433.5 c 128,-1,15
 98 454 98 454 131 467 c 128,-1,16
 164 480 164 480 211 480 c 0,17,18
 239 480 239 480 266 475.5 c 128,-1,19
 293 471 293 471 314 462.5 c 128,-1,20
 335 454 335 454 348 443.5 c 128,-1,21
 361 433 361 433 361 421 c 0,22,23
 361 415 361 415 358.5 406.5 c 128,-1,24
 356 398 356 398 350.5 390 c 128,-1,25
 345 382 345 382 337.5 376 c 128,-1,26
 330 370 330 370 321 370 c 0,27,28
 313 370 313 370 303 374.5 c 128,-1,29
 293 379 293 379 280 384.5 c 128,-1,30
 267 390 267 390 250.5 394.5 c 128,-1,31
 234 399 234 399 213 399 c 0,32,33
 169 399 169 399 150.5 379.5 c 128,-1,34
 132 360 132 360 132 341 c 0,35,36
 132 319 132 319 150 307.5 c 128,-1,37
 168 296 168 296 195 287.5 c 128,-1,38
 222 279 222 279 253.5 270.5 c 128,-1,39
 285 262 285 262 312 246 c 128,-1,40
 339 230 339 230 357 203 c 128,-1,41
 375 176 375 176 375 131 c 0,42,43
 375 67 375 67 329.5 29.5 c 128,-1,44
 284 -8 284 -8 199 -8 c 0,45,46
 162 -8 162 -8 130.5 -1 c 128,-1,47
 99 6 99 6 76 17.5 c 128,-1,48
 53 29 53 29 40 43.5 c 128,-1,49
 27 58 27 58 27 72 c 256,50,51
 27 86 27 86 37 102.5 c 128,-1,52
 47 119 47 119 63 119 c 0,53,54
 73 119 73 119 83 112 c 128,-1,55
 93 105 93 105 107 96 c 128,-1,56
 121 87 121 87 142.5 80 c 128,-1,57
 164 73 164 73 196 73 c 0,0,1
EndSplineSet
EndChar
StartChar: t
Encoding: 116 116 367
Width: 329
Flags: W
LayerCount: 2
Back
Fore
SplineSet
159 156 m 2,0,1
 159 120 159 120 174.5 105 c 128,-1,2
 190 90 190 90 229 90 c 2,3,-1
 264 90 l 2,4,5
 287 90 287 90 298 76 c 128,-1,6
 309 62 309 62 309 45 c 256,7,8
 309 28 309 28 298 14 c 128,-1,9
 287 0 287 0 264 0 c 2,10,-1
 229 0 l 2,11,12
 143 0 143 0 98.5 37 c 128,-1,13
 54 74 54 74 54 156 c 2,14,-1
 54 657 l 2,15,16
 54 672 54 672 70.5 681.5 c 128,-1,17
 87 691 87 691 106 691 c 0,18,19
 126 691 126 691 142.5 681.5 c 128,-1,20
 159 672 159 672 159 657 c 2,21,-1
 159 474 l 1,22,-1
 281 474 l 2,23,24
 295 474 295 474 302.5 462 c 128,-1,25
 310 450 310 450 310 435 c 256,26,27
 310 420 310 420 302.5 408 c 128,-1,28
 295 396 295 396 281 396 c 2,29,-1
 159 396 l 1,30,-1
 159 156 l 2,0,1
EndSplineSet
EndChar
StartChar: u
Encoding: 117 117 383
Width: 515
Flags: W
LayerCount: 2
Back
Fore
SplineSet
258 -8 m 256,0,1
 216 -8 216 -8 178 8 c 128,-1,2
 140 24 140 24 112 51.5 c 128,-1,3
 84 79 84 79 67.5 114.5 c 128,-1,4
 51 150 51 150 51 189 c 2,5,-1
 51 439 l 2,6,7
 51 453 51 453 66.5 463.5 c 128,-1,8
 82 474 82 474 104 474 c 0,9,10
 125 474 125 474 140.5 463.5 c 128,-1,11
 156 453 156 453 156 439 c 2,12,-1
 156 189 l 2,13,14
 156 169 156 169 164 150.5 c 128,-1,15
 172 132 172 132 186 117.5 c 128,-1,16
 200 103 200 103 218.5 94 c 128,-1,17
 237 85 237 85 258 85 c 256,18,19
 279 85 279 85 298 94 c 128,-1,20
 317 103 317 103 330.5 117.5 c 128,-1,21
 344 132 344 132 352 150.5 c 128,-1,22
 360 169 360 169 360 189 c 2,23,-1
 360 440 l 2,24,25
 360 454 360 454 375.5 464 c 128,-1,26
 391 474 391 474 413 474 c 0,27,28
 436 474 436 474 450 464 c 128,-1,29
 464 454 464 454 464 440 c 2,30,-1
 464 189 l 2,31,32
 464 150 464 150 447.5 114 c 128,-1,33
 431 78 431 78 403 51 c 128,-1,34
 375 24 375 24 337.5 8 c 128,-1,35
 300 -8 300 -8 258 -8 c 256,0,1
EndSplineSet
Substitution2: "'ss05' Style Set 5 in Latin lookup 7 subtable" u.ss04
Substitution2: "'salt' Stylistic Alternatives in Latin lookup 2 subtable" u.ss04
Substitution2: "'aalt' Access All Alternates in Latin lookup 0 subtable" u.ss04
EndChar
StartChar: v
Encoding: 118 118 398
Width: 459
Flags: W
LayerCount: 2
Back
Fore
SplineSet
14 416 m 2,0,1
 12 419 12 419 10.5 424 c 128,-1,2
 9 429 9 429 9 433 c 0,3,4
 9 442 9 442 16 450.5 c 128,-1,5
 23 459 23 459 33 465 c 128,-1,6
 43 471 43 471 55 474.5 c 128,-1,7
 67 478 67 478 78 478 c 256,8,9
 89 478 89 478 97.5 474 c 128,-1,10
 106 470 106 470 110 459 c 2,11,-1
 229 143 l 1,12,-1
 348 457 l 2,13,14
 355 478 355 478 380 478 c 0,15,16
 388 478 388 478 400 474.5 c 128,-1,17
 412 471 412 471 423 465 c 128,-1,18
 434 459 434 459 441.5 450.5 c 128,-1,19
 449 442 449 442 449 433 c 0,20,21
 449 426 449 426 445 416 c 2,22,-1
 277 11 l 2,23,24
 272 0 272 0 258.5 -5 c 128,-1,25
 245 -10 245 -10 229 -10 c 0,26,27
 212 -10 212 -10 199 -5 c 128,-1,28
 186 0 186 0 181 11 c 2,29,-1
 14 416 l 2,0,1
EndSplineSet
EndChar
StartChar: w
Encoding: 119 119 399
Width: 684
Flags: W
LayerCount: 2
Back
Fore
SplineSet
514 11 m 2,0,1
 509 -1 509 -1 497.5 -5.5 c 128,-1,2
 486 -10 486 -10 472 -10 c 0,3,4
 457 -10 457 -10 445.5 -5 c 128,-1,5
 434 0 434 0 429 10 c 2,6,-1
 342 268 l 1,7,-1
 256 13 l 2,8,9
 251 2 251 2 238.5 -4 c 128,-1,10
 226 -10 226 -10 211 -10 c 0,11,12
 197 -10 197 -10 185.5 -5.5 c 128,-1,13
 174 -1 174 -1 169 13 c 2,14,-1
 14 417 l 2,15,16
 12 422 12 422 11 426 c 128,-1,17
 10 430 10 430 10 434 c 0,18,19
 10 443 10 443 16.5 451 c 128,-1,20
 23 459 23 459 33 465 c 128,-1,21
 43 471 43 471 54.5 474.5 c 128,-1,22
 66 478 66 478 77 478 c 256,23,24
 88 478 88 478 96.5 473.5 c 128,-1,25
 105 469 105 469 109 459 c 2,26,-1
 220 148 l 1,27,-1
 305 424 l 2,28,29
 310 438 310 438 319.5 442.5 c 128,-1,30
 329 447 329 447 342 447 c 256,31,32
 355 447 355 447 364.5 442.5 c 128,-1,33
 374 438 374 438 379 424 c 2,34,-1
 463 146 l 1,35,-1
 575 459 l 2,36,37
 581 478 581 478 606 478 c 0,38,39
 616 478 616 478 627.5 475 c 128,-1,40
 639 472 639 472 649 466 c 128,-1,41
 659 460 659 460 666 451.5 c 128,-1,42
 673 443 673 443 673 433 c 0,43,44
 673 425 673 425 669 417 c 2,45,-1
 514 11 l 2,0,1
EndSplineSet
EndChar
StartChar: x
Encoding: 120 120 404
Width: 444
Flags: W
LayerCount: 2
Back
Fore
SplineSet
20 44 m 0,0,1
 20 54 20 54 27 63 c 2,2,-1
 151 241 l 1,3,-1
 33 409 l 2,4,5
 31 412 31 412 28.5 417 c 128,-1,6
 26 422 26 422 26 427 c 0,7,8
 26 436 26 436 33 445.5 c 128,-1,9
 40 455 40 455 50 462.5 c 128,-1,10
 60 470 60 470 72 475 c 128,-1,11
 84 480 84 480 95 480 c 0,12,13
 100 480 100 480 107.5 478 c 128,-1,14
 115 476 115 476 120 468 c 2,15,-1
 222 308 l 1,16,-1
 324 467 l 2,17,18
 329 475 329 475 336.5 477.5 c 128,-1,19
 344 480 344 480 350 480 c 0,20,21
 359 480 359 480 371 475 c 128,-1,22
 383 470 383 470 393.5 462.5 c 128,-1,23
 404 455 404 455 411 445.5 c 128,-1,24
 418 436 418 436 418 427 c 0,25,26
 418 419 418 419 411 409 c 2,27,-1
 292 240 l 1,28,-1
 417 63 l 2,29,30
 419 60 419 60 421.5 54.5 c 128,-1,31
 424 49 424 49 424 44 c 0,32,33
 424 35 424 35 417.5 26 c 128,-1,34
 411 17 411 17 401 9.5 c 128,-1,35
 391 2 391 2 379 -3 c 128,-1,36
 367 -8 367 -8 357 -8 c 0,37,38
 350 -8 350 -8 342.5 -5.5 c 128,-1,39
 335 -3 335 -3 330 4 c 2,40,-1
 222 169 l 1,41,-1
 114 4 l 2,42,43
 109 -2 109 -2 101 -5 c 128,-1,44
 93 -8 93 -8 86 -8 c 0,45,46
 77 -8 77 -8 66 -3.5 c 128,-1,47
 55 1 55 1 44.5 8.5 c 128,-1,48
 34 16 34 16 27 25.5 c 128,-1,49
 20 35 20 35 20 44 c 0,0,1
EndSplineSet
EndChar
StartChar: y
Encoding: 121 121 405
Width: 457
Flags: W
LayerCount: 2
Back
Fore
SplineSet
14 417 m 2,0,1
 10 422 10 422 10 431 c 0,2,3
 10 441 10 441 17 450 c 128,-1,4
 24 459 24 459 34 466 c 128,-1,5
 44 473 44 473 56 477 c 128,-1,6
 68 481 68 481 79 481 c 256,7,8
 90 481 90 481 98.5 476.5 c 128,-1,9
 107 472 107 472 111 462 c 2,10,-1
 237 137 l 1,11,-1
 345 462 l 2,12,13
 350 472 350 472 358 476.5 c 128,-1,14
 366 481 366 481 375 481 c 256,15,16
 384 481 384 481 396.5 477 c 128,-1,17
 409 473 409 473 419.5 466 c 128,-1,18
 430 459 430 459 437.5 449.5 c 128,-1,19
 445 440 445 440 445 429 c 0,20,21
 445 426 445 426 445 422.5 c 128,-1,22
 445 419 445 419 443 417 c 2,23,-1
 295 26 l 2,24,25
 278 -18 278 -18 259 -63 c 128,-1,26
 240 -108 240 -108 213.5 -144 c 128,-1,27
 187 -180 187 -180 149.5 -202.5 c 128,-1,28
 112 -225 112 -225 59 -225 c 0,29,30
 39 -225 39 -225 24.5 -217 c 128,-1,31
 10 -209 10 -209 10 -180 c 0,32,33
 10 -162 10 -162 16.5 -148.5 c 128,-1,34
 23 -135 23 -135 39 -135 c 0,35,36
 58 -135 58 -135 81 -125.5 c 128,-1,37
 104 -116 104 -116 124.5 -95.5 c 128,-1,38
 145 -75 145 -75 161 -44 c 128,-1,39
 177 -13 177 -13 182 29 c 1,40,-1
 14 417 l 2,0,1
EndSplineSet
EndChar
StartChar: z
Encoding: 122 122 411
Width: 425
Flags: W
LayerCount: 2
Back
Fore
SplineSet
371 87 m 2,0,1
 385 87 385 87 395 74.5 c 128,-1,2
 405 62 405 62 405 43 c 0,3,4
 405 26 405 26 395.5 13 c 128,-1,5
 386 0 386 0 371 0 c 2,6,-1
 60 0 l 2,7,8
 40 0 40 0 31.5 12 c 128,-1,9
 23 24 23 24 23 38 c 0,10,11
 23 50 23 50 29 61 c 128,-1,12
 35 72 35 72 41 80 c 2,13,-1
 255 387 l 1,14,-1
 65 387 l 2,15,16
 51 387 51 387 41.5 400 c 128,-1,17
 32 413 32 413 32 431 c 0,18,19
 32 448 32 448 41 461 c 128,-1,20
 50 474 50 474 65 474 c 2,21,-1
 354 474 l 2,22,23
 368 474 368 474 379 465 c 128,-1,24
 390 456 390 456 390 437 c 0,25,26
 390 416 390 416 374 394 c 2,27,-1
 159 87 l 1,28,-1
 371 87 l 2,0,1
EndSplineSet
EndChar
StartChar: braceleft
Encoding: 123 123 159
Width: 343
Flags: W
LayerCount: 2
Back
Fore
SplineSet
25 386 m 0,0,1
 25 406 25 406 34.5 413.5 c 128,-1,2
 44 421 44 421 55 424.5 c 128,-1,3
 66 428 66 428 75.5 431.5 c 128,-1,4
 85 435 85 435 85 449 c 0,5,6
 85 456 85 456 82 476 c 128,-1,7
 79 496 79 496 76 519.5 c 128,-1,8
 73 543 73 543 70 565 c 128,-1,9
 67 587 67 587 67 599 c 0,10,11
 67 632 67 632 84 663 c 128,-1,12
 101 694 101 694 129 717 c 128,-1,13
 157 740 157 740 193.5 754 c 128,-1,14
 230 768 230 768 268 768 c 0,15,16
 301 768 301 768 313.5 753 c 128,-1,17
 326 738 326 738 326 721 c 0,18,19
 326 705 326 705 317 691 c 128,-1,20
 308 677 308 677 291 677 c 0,21,22
 271 677 271 677 250.5 671 c 128,-1,23
 230 665 230 665 212.5 653 c 128,-1,24
 195 641 195 641 184 624 c 128,-1,25
 173 607 173 607 173 585 c 0,26,27
 173 575 173 575 176 554 c 128,-1,28
 179 533 179 533 182 510 c 128,-1,29
 185 487 185 487 188 466.5 c 128,-1,30
 191 446 191 446 191 438 c 0,31,32
 191 418 191 418 177.5 402.5 c 128,-1,33
 164 387 164 387 155 384 c 1,34,35
 165 382 165 382 178 367 c 128,-1,36
 191 352 191 352 191 331 c 0,37,38
 191 322 191 322 188 296 c 128,-1,39
 185 270 185 270 182 241 c 128,-1,40
 179 212 179 212 176 185.5 c 128,-1,41
 173 159 173 159 173 149 c 0,42,43
 173 126 173 126 186 111 c 128,-1,44
 199 96 199 96 217.5 87 c 128,-1,45
 236 78 236 78 256 74.5 c 128,-1,46
 276 71 276 71 291 71 c 0,47,48
 311 71 311 71 318.5 55 c 128,-1,49
 326 39 326 39 326 26 c 0,50,51
 326 3 326 3 310.5 -8.5 c 128,-1,52
 295 -20 295 -20 267 -20 c 0,53,54
 229 -20 229 -20 193 -8.5 c 128,-1,55
 157 3 157 3 129 24 c 128,-1,56
 101 45 101 45 84 74 c 128,-1,57
 67 103 67 103 67 138 c 0,58,59
 67 151 67 151 70 178 c 128,-1,60
 73 205 73 205 76 234 c 128,-1,61
 79 263 79 263 82 287.5 c 128,-1,62
 85 312 85 312 85 320 c 0,63,64
 85 334 85 334 75.5 338.5 c 128,-1,65
 66 343 66 343 55 346.5 c 128,-1,66
 44 350 44 350 34.5 357.5 c 128,-1,67
 25 365 25 365 25 386 c 0,0,1
EndSplineSet
EndChar
StartChar: bar
Encoding: 124 124 158
Width: 226
Flags: W
LayerCount: 2
Back
Fore
SplineSet
113 768 m 0,0,1
 135 768 135 768 150.5 758.5 c 128,-1,2
 166 749 166 749 166 734 c 2,3,-1
 166 14 l 2,4,5
 166 0 166 0 150.5 -10.5 c 128,-1,6
 135 -21 135 -21 113 -21 c 0,7,8
 90 -21 90 -21 75 -10.5 c 128,-1,9
 60 0 60 0 60 14 c 2,10,-1
 60 734 l 2,11,12
 60 749 60 749 75 758.5 c 128,-1,13
 90 768 90 768 113 768 c 0,0,1
EndSplineSet
EndChar
StartChar: braceright
Encoding: 125 125 160
Width: 343
Flags: W
LayerCount: 2
Back
Fore
SplineSet
318 386 m 0,0,1
 318 365 318 365 308.5 357.5 c 128,-1,2
 299 350 299 350 288 346.5 c 128,-1,3
 277 343 277 343 267.5 338.5 c 128,-1,4
 258 334 258 334 258 320 c 0,5,6
 258 312 258 312 261 287.5 c 128,-1,7
 264 263 264 263 267 234 c 128,-1,8
 270 205 270 205 273 178 c 128,-1,9
 276 151 276 151 276 138 c 0,10,11
 276 103 276 103 259 74 c 128,-1,12
 242 45 242 45 214 24 c 128,-1,13
 186 3 186 3 150 -8.5 c 128,-1,14
 114 -20 114 -20 76 -20 c 0,15,16
 48 -20 48 -20 32.5 -8.5 c 128,-1,17
 17 3 17 3 17 26 c 0,18,19
 17 39 17 39 24.5 55 c 128,-1,20
 32 71 32 71 52 71 c 0,21,22
 67 71 67 71 87 74.5 c 128,-1,23
 107 78 107 78 125.5 87 c 128,-1,24
 144 96 144 96 157 111 c 128,-1,25
 170 126 170 126 170 149 c 0,26,27
 170 159 170 159 167 185.5 c 128,-1,28
 164 212 164 212 161 241 c 128,-1,29
 158 270 158 270 155 296 c 128,-1,30
 152 322 152 322 152 331 c 0,31,32
 152 352 152 352 165 367 c 128,-1,33
 178 382 178 382 188 384 c 1,34,35
 179 387 179 387 165.5 402.5 c 128,-1,36
 152 418 152 418 152 438 c 0,37,38
 152 446 152 446 155 466.5 c 128,-1,39
 158 487 158 487 161 510 c 128,-1,40
 164 533 164 533 167 554 c 128,-1,41
 170 575 170 575 170 585 c 0,42,43
 170 607 170 607 158.5 624 c 128,-1,44
 147 641 147 641 130 653 c 128,-1,45
 113 665 113 665 92 671 c 128,-1,46
 71 677 71 677 52 677 c 0,47,48
 35 677 35 677 26 691 c 128,-1,49
 17 705 17 705 17 721 c 0,50,51
 17 738 17 738 29.5 753 c 128,-1,52
 42 768 42 768 75 768 c 0,53,54
 113 768 113 768 149.5 754 c 128,-1,55
 186 740 186 740 214 717 c 128,-1,56
 242 694 242 694 259 663 c 128,-1,57
 276 632 276 632 276 599 c 0,58,59
 276 587 276 587 273 565 c 128,-1,60
 270 543 270 543 267 519.5 c 128,-1,61
 264 496 264 496 261 476 c 128,-1,62
 258 456 258 456 258 449 c 0,63,64
 258 435 258 435 267.5 431.5 c 128,-1,65
 277 428 277 428 288 424.5 c 128,-1,66
 299 421 299 421 308.5 413.5 c 128,-1,67
 318 406 318 406 318 386 c 0,0,1
EndSplineSet
EndChar
StartChar: asciitilde
Encoding: 126 126 151
Width: 408
Flags: W
LayerCount: 2
Back
Fore
SplineSet
145 236 m 0,0,1
 129 236 129 236 117.5 232 c 128,-1,2
 106 228 106 228 97 222.5 c 128,-1,3
 88 217 88 217 81 213 c 128,-1,4
 74 209 74 209 67 209 c 0,5,6
 59 209 59 209 53.5 213 c 128,-1,7
 48 217 48 217 45 223 c 128,-1,8
 42 229 42 229 40.5 235 c 128,-1,9
 39 241 39 241 39 245 c 0,10,11
 39 264 39 264 49 276.5 c 128,-1,12
 59 289 59 289 73 296.5 c 128,-1,13
 87 304 87 304 101.5 306.5 c 128,-1,14
 116 309 116 309 126 309 c 0,15,16
 147 309 147 309 163.5 304 c 128,-1,17
 180 299 180 299 195.5 293.5 c 128,-1,18
 211 288 211 288 227.5 283 c 128,-1,19
 244 278 244 278 264 278 c 0,20,21
 280 278 280 278 291.5 282 c 128,-1,22
 303 286 303 286 311.5 290.5 c 128,-1,23
 320 295 320 295 326.5 299 c 128,-1,24
 333 303 333 303 341 303 c 0,25,26
 357 303 357 303 363 289.5 c 128,-1,27
 369 276 369 276 369 269 c 0,28,29
 369 248 369 248 359 235.5 c 128,-1,30
 349 223 349 223 335.5 216.5 c 128,-1,31
 322 210 322 210 307.5 207.5 c 128,-1,32
 293 205 293 205 284 205 c 0,33,34
 261 205 261 205 244 210 c 128,-1,35
 227 215 227 215 211.5 220.5 c 128,-1,36
 196 226 196 226 180 231 c 128,-1,37
 164 236 164 236 145 236 c 0,0,1
EndSplineSet
EndChar
StartChar: exclamdown
Encoding: 161 161 215
Width: 210
Flags: W
LayerCount: 2
Back
Fore
SplineSet
52 42 m 0,0,1
 52 96 52 96 54 156 c 128,-1,2
 56 216 56 216 58.5 277 c 128,-1,3
 61 338 61 338 63 398 c 128,-1,4
 65 458 65 458 65 512 c 0,5,6
 65 529 65 529 78.5 536.5 c 128,-1,7
 92 544 92 544 105 544 c 0,8,9
 121 544 121 544 133.5 536.5 c 128,-1,10
 146 529 146 529 146 512 c 0,11,12
 146 458 146 458 148 398 c 128,-1,13
 150 338 150 338 152 277 c 128,-1,14
 154 216 154 216 156 156 c 128,-1,15
 158 96 158 96 158 42 c 0,16,17
 158 19 158 19 143 6.5 c 128,-1,18
 128 -6 128 -6 105 -6 c 0,19,20
 83 -6 83 -6 67.5 6.5 c 128,-1,21
 52 19 52 19 52 42 c 0,0,1
104 618 m 0,22,23
 80 618 80 618 62.5 635.5 c 128,-1,24
 45 653 45 653 45 678 c 0,25,26
 45 702 45 702 62.5 720 c 128,-1,27
 80 738 80 738 104 738 c 0,28,29
 130 738 130 738 147 720 c 128,-1,30
 164 702 164 702 164 678 c 0,31,32
 164 653 164 653 147 635.5 c 128,-1,33
 130 618 130 618 104 618 c 0,22,23
EndSplineSet
EndChar
StartChar: cent
Encoding: 162 162 175
Width: 423
Flags: W
LayerCount: 2
Back
Fore
SplineSet
232 695 m 0,0,1
 245 695 245 695 255 686.5 c 128,-1,2
 265 678 265 678 265 664 c 2,3,-1
 265 575 l 1,4,5
 319 570 319 570 354.5 550 c 128,-1,6
 390 530 390 530 390 505 c 0,7,8
 390 489 390 489 378 472.5 c 128,-1,9
 366 456 366 456 347 456 c 0,10,11
 341 456 341 456 334 460 c 128,-1,12
 327 464 327 464 318 469 c 128,-1,13
 309 474 309 474 296.5 479 c 128,-1,14
 284 484 284 484 265 486 c 1,15,-1
 265 252 l 1,16,17
 284 254 284 254 296.5 259.5 c 128,-1,18
 309 265 309 265 318 270.5 c 128,-1,19
 327 276 327 276 333.5 280 c 128,-1,20
 340 284 340 284 347 284 c 0,21,22
 368 284 368 284 380.5 268 c 128,-1,23
 393 252 393 252 393 235 c 0,24,25
 393 223 393 223 382.5 211 c 128,-1,26
 372 199 372 199 354.5 189 c 128,-1,27
 337 179 337 179 314 172 c 128,-1,28
 291 165 291 165 265 162 c 1,29,-1
 265 71 l 2,30,31
 265 59 265 59 255 49 c 128,-1,32
 245 39 245 39 232 39 c 0,33,34
 218 39 218 39 208.5 49 c 128,-1,35
 199 59 199 59 199 71 c 2,36,-1
 199 162 l 1,37,38
 154 167 154 167 121.5 184 c 128,-1,39
 89 201 89 201 68 227 c 128,-1,40
 47 253 47 253 37 286.5 c 128,-1,41
 27 320 27 320 27 359 c 2,42,-1
 27 378 l 2,43,44
 27 417 27 417 37 450.5 c 128,-1,45
 47 484 47 484 68 510.5 c 128,-1,46
 89 537 89 537 121.5 554 c 128,-1,47
 154 571 154 571 199 576 c 1,48,-1
 199 664 l 2,49,50
 199 678 199 678 208.5 686.5 c 128,-1,51
 218 695 218 695 232 695 c 0,0,1
120 359 m 2,52,53
 120 316 120 316 139 288.5 c 128,-1,54
 158 261 158 261 199 252 c 1,55,-1
 199 486 l 1,56,57
 158 476 158 476 139 448.5 c 128,-1,58
 120 421 120 421 120 378 c 2,59,-1
 120 359 l 2,52,53
EndSplineSet
EndChar
StartChar: sterling
Encoding: 163 163 365
Width: 521
Flags: W
LayerCount: 2
Back
Fore
SplineSet
453 94 m 2,0,1
 470 94 470 94 478 79.5 c 128,-1,2
 486 65 486 65 486 47 c 0,3,4
 486 30 486 30 478 15 c 128,-1,5
 470 0 470 0 453 0 c 2,6,-1
 56 0 l 2,7,8
 39 0 39 0 30.5 15 c 128,-1,9
 22 30 22 30 22 47 c 0,10,11
 22 65 22 65 30.5 79.5 c 128,-1,12
 39 94 39 94 56 94 c 2,13,-1
 112 94 l 1,14,-1
 149 366 l 1,15,-1
 86 366 l 2,16,17
 72 366 72 366 64.5 378 c 128,-1,18
 57 390 57 390 57 406 c 0,19,20
 57 420 57 420 64.5 432.5 c 128,-1,21
 72 445 72 445 86 445 c 2,22,-1
 161 445 l 1,23,-1
 178 564 l 2,24,25
 184 608 184 608 206 645.5 c 128,-1,26
 228 683 228 683 261 710 c 128,-1,27
 294 737 294 737 334.5 752.5 c 128,-1,28
 375 768 375 768 419 768 c 2,29,-1
 449 768 l 2,30,31
 467 768 467 768 476.5 753 c 128,-1,32
 486 738 486 738 486 721 c 256,33,34
 486 704 486 704 476.5 689.5 c 128,-1,35
 467 675 467 675 449 675 c 2,36,-1
 414 675 l 2,37,38
 356 675 356 675 322.5 642 c 128,-1,39
 289 609 289 609 283 564 c 2,40,-1
 266 445 l 1,41,-1
 396 445 l 2,42,43
 410 445 410 445 417.5 432.5 c 128,-1,44
 425 420 425 420 425 406 c 0,45,46
 425 391 425 391 417.5 378.5 c 128,-1,47
 410 366 410 366 396 366 c 2,48,-1
 254 366 l 1,49,-1
 216 94 l 1,50,-1
 453 94 l 2,0,1
EndSplineSet
EndChar
StartChar: currency
Encoding: 164 164 181
Width: 461
Flags: W
LayerCount: 2
Back
Fore
SplineSet
231 652 m 0,0,1
 261 652 261 652 289 641.5 c 128,-1,2
 317 631 317 631 340 613 c 1,3,-1
 366 637 l 2,4,5
 371 642 371 642 380 642 c 0,6,7
 390 642 390 642 397.5 634 c 128,-1,8
 405 626 405 626 405 617 c 0,9,10
 405 610 405 610 399 604 c 2,11,-1
 372 578 l 1,12,13
 389 556 389 556 399 529 c 128,-1,14
 409 502 409 502 409 473 c 0,15,16
 409 443 409 443 399 416 c 128,-1,17
 389 389 389 389 372 366 c 1,18,-1
 399 340 l 2,19,20
 405 334 405 334 405 327 c 0,21,22
 405 318 405 318 397.5 310 c 128,-1,23
 390 302 390 302 380 302 c 0,24,25
 372 302 372 302 367 307 c 2,26,-1
 340 331 l 1,27,28
 317 311 317 311 289 300.5 c 128,-1,29
 261 290 261 290 231 290 c 0,30,31
 199 290 199 290 170.5 301.5 c 128,-1,32
 142 313 142 313 119 333 c 1,33,-1
 91 307 l 2,34,35
 86 302 86 302 78 302 c 0,36,37
 68 302 68 302 60.5 310 c 128,-1,38
 53 318 53 318 53 327 c 0,39,40
 53 334 53 334 59 340 c 2,41,-1
 88 368 l 1,42,43
 54 414 54 414 54 472 c 256,44,45
 54 530 54 530 88 576 c 1,46,-1
 62 601 l 2,47,48
 56 607 56 607 56 614 c 0,49,50
 56 624 56 624 63.5 631.5 c 128,-1,51
 71 639 71 639 81 639 c 0,52,53
 89 639 89 639 95 634 c 2,54,-1
 119 610 l 1,55,56
 142 630 142 630 170.5 641 c 128,-1,57
 199 652 199 652 231 652 c 0,0,1
347 471 m 0,58,59
 347 493 347 493 338 514.5 c 128,-1,60
 329 536 329 536 313.5 552.5 c 128,-1,61
 298 569 298 569 276.5 579 c 128,-1,62
 255 589 255 589 231 589 c 256,63,64
 207 589 207 589 186 579 c 128,-1,65
 165 569 165 569 149.5 553 c 128,-1,66
 134 537 134 537 125 515.5 c 128,-1,67
 116 494 116 494 116 472 c 0,68,69
 116 449 116 449 125 427.5 c 128,-1,70
 134 406 134 406 149.5 389.5 c 128,-1,71
 165 373 165 373 186 363 c 128,-1,72
 207 353 207 353 231 353 c 256,73,74
 255 353 255 353 276 363 c 128,-1,75
 297 373 297 373 313 389.5 c 128,-1,76
 329 406 329 406 338 427 c 128,-1,77
 347 448 347 448 347 471 c 0,58,59
EndSplineSet
EndChar
StartChar: yen
Encoding: 165 165 409
Width: 541
Flags: W
LayerCount: 2
Back
Fore
SplineSet
82 347 m 256,0,1
 82 364 82 364 91.5 375.5 c 128,-1,2
 101 387 101 387 117 387 c 2,3,-1
 192 387 l 1,4,-1
 26 677 l 2,5,6
 24 680 24 680 23 684 c 128,-1,7
 22 688 22 688 22 691 c 0,8,9
 22 699 22 699 27.5 707 c 128,-1,10
 33 715 33 715 42 721 c 128,-1,11
 51 727 51 727 62 731 c 128,-1,12
 73 735 73 735 84 735 c 0,13,14
 96 735 96 735 103 728 c 128,-1,15
 110 721 110 721 116 710 c 2,16,-1
 269 419 l 1,17,-1
 425 710 l 2,18,19
 431 721 431 721 438 728 c 128,-1,20
 445 735 445 735 457 735 c 0,21,22
 467 735 467 735 478 731 c 128,-1,23
 489 727 489 727 498 721 c 128,-1,24
 507 715 507 715 512.5 707 c 128,-1,25
 518 699 518 699 518 691 c 256,26,27
 518 683 518 683 515 677 c 2,28,-1
 345 387 l 1,29,-1
 424 387 l 2,30,31
 438 387 438 387 449 376 c 128,-1,32
 460 365 460 365 460 348 c 256,33,34
 460 331 460 331 449 320.5 c 128,-1,35
 438 310 438 310 424 310 c 2,36,-1
 321 310 l 1,37,-1
 321 242 l 1,38,-1
 424 242 l 2,39,40
 438 242 438 242 449 231 c 128,-1,41
 460 220 460 220 460 204 c 0,42,43
 460 187 460 187 449 176.5 c 128,-1,44
 438 166 438 166 424 166 c 2,45,-1
 321 166 l 1,46,-1
 321 35 l 2,47,48
 321 18 321 18 305 9 c 128,-1,49
 289 0 289 0 269 0 c 256,50,51
 249 0 249 0 232.5 9 c 128,-1,52
 216 18 216 18 216 35 c 2,53,-1
 216 166 l 1,54,-1
 117 166 l 2,55,56
 101 166 101 166 91.5 176 c 128,-1,57
 82 186 82 186 82 203 c 256,58,59
 82 220 82 220 91.5 231 c 128,-1,60
 101 242 101 242 117 242 c 2,61,-1
 216 242 l 1,62,-1
 216 310 l 1,63,-1
 117 310 l 2,64,65
 101 310 101 310 91.5 320 c 128,-1,66
 82 330 82 330 82 347 c 256,0,1
EndSplineSet
EndChar
StartChar: brokenbar
Encoding: 166 166 164
Width: 225
Flags: W
LayerCount: 2
Back
Fore
SplineSet
112 768 m 0,0,1
 134 768 134 768 149.5 758.5 c 128,-1,2
 165 749 165 749 165 734 c 2,3,-1
 165 475 l 2,4,5
 165 462 165 462 149.5 451 c 128,-1,6
 134 440 134 440 112 440 c 0,7,8
 89 440 89 440 74.5 451 c 128,-1,9
 60 462 60 462 60 475 c 2,10,-1
 60 734 l 2,11,12
 60 749 60 749 74.5 758.5 c 128,-1,13
 89 768 89 768 112 768 c 0,0,1
112 307 m 0,14,15
 134 307 134 307 149.5 297 c 128,-1,16
 165 287 165 287 165 272 c 2,17,-1
 165 14 l 2,18,19
 165 0 165 0 149.5 -10.5 c 128,-1,20
 134 -21 134 -21 112 -21 c 0,21,22
 89 -21 89 -21 74.5 -10.5 c 128,-1,23
 60 0 60 0 60 14 c 2,24,-1
 60 272 l 2,25,26
 60 287 60 287 74.5 297 c 128,-1,27
 89 307 89 307 112 307 c 0,14,15
EndSplineSet
EndChar
StartChar: section
Encoding: 167 167 354
Width: 472
Flags: W
LayerCount: 2
Back
Fore
SplineSet
50 530 m 2,0,1
 50 591 50 591 68 630 c 128,-1,2
 86 669 86 669 114 691.5 c 128,-1,3
 142 714 142 714 174.5 722.5 c 128,-1,4
 207 731 207 731 237 731 c 0,5,6
 280 731 280 731 313 717.5 c 128,-1,7
 346 704 346 704 367.5 681 c 128,-1,8
 389 658 389 658 400 628.5 c 128,-1,9
 411 599 411 599 411 567 c 0,10,11
 411 541 411 541 399.5 532 c 128,-1,12
 388 523 388 523 370 523 c 0,13,14
 344 523 344 523 334 533.5 c 128,-1,15
 324 544 324 544 324 561 c 0,16,17
 324 573 324 573 320.5 587.5 c 128,-1,18
 317 602 317 602 307.5 614.5 c 128,-1,19
 298 627 298 627 282 635.5 c 128,-1,20
 266 644 266 644 241 644 c 0,21,22
 201 644 201 644 174.5 621 c 128,-1,23
 148 598 148 598 148 550 c 0,24,25
 148 516 148 516 169 496 c 128,-1,26
 190 476 190 476 221 462 c 128,-1,27
 252 448 252 448 289 434 c 128,-1,28
 326 420 326 420 357 397.5 c 128,-1,29
 388 375 388 375 409 339.5 c 128,-1,30
 430 304 430 304 430 245 c 2,31,-1
 430 132 l 2,32,33
 430 75 430 75 412.5 36.5 c 128,-1,34
 395 -2 395 -2 367 -25.5 c 128,-1,35
 339 -49 339 -49 303.5 -58.5 c 128,-1,36
 268 -68 268 -68 233 -68 c 0,37,38
 187 -68 187 -68 151.5 -53.5 c 128,-1,39
 116 -39 116 -39 92 -15.5 c 128,-1,40
 68 8 68 8 55.5 38 c 128,-1,41
 43 68 43 68 43 99 c 0,42,43
 43 124 43 124 55.5 133 c 128,-1,44
 68 142 68 142 89 142 c 0,45,46
 115 142 115 142 124.5 132.5 c 128,-1,47
 134 123 134 123 134 111 c 0,48,49
 134 98 134 98 137.5 82.5 c 128,-1,50
 141 67 141 67 150.5 53.5 c 128,-1,51
 160 40 160 40 178 30.5 c 128,-1,52
 196 21 196 21 226 21 c 0,53,54
 276 21 276 21 300 45.5 c 128,-1,55
 324 70 324 70 324 111 c 0,56,57
 324 146 324 146 303.5 165.5 c 128,-1,58
 283 185 283 185 253 199 c 128,-1,59
 223 213 223 213 187 227 c 128,-1,60
 151 241 151 241 121 263.5 c 128,-1,61
 91 286 91 286 70.5 321.5 c 128,-1,62
 50 357 50 357 50 416 c 2,63,-1
 50 530 l 2,0,1
342 256 m 2,64,65
 342 286 342 286 331 306 c 128,-1,66
 320 326 320 326 302.5 339 c 128,-1,67
 285 352 285 352 263 361.5 c 128,-1,68
 241 371 241 371 218.5 379 c 128,-1,69
 196 387 196 387 175 397 c 128,-1,70
 154 407 154 407 139 422 c 1,71,-1
 139 398 l 2,72,73
 139 368 139 368 150 348 c 128,-1,74
 161 328 161 328 178.5 315 c 128,-1,75
 196 302 196 302 218 292.5 c 128,-1,76
 240 283 240 283 262.5 275 c 128,-1,77
 285 267 285 267 306 257 c 128,-1,78
 327 247 327 247 342 232 c 1,79,-1
 342 256 l 2,64,65
EndSplineSet
EndChar
StartChar: dieresis
Encoding: 168 168 188
Width: 230
Flags: W
LayerCount: 2
Back
Fore
SplineSet
46 676 m 0,0,1
 65 676 65 676 77.5 662.5 c 128,-1,2
 90 649 90 649 90 630 c 256,3,4
 90 611 90 611 77.5 597 c 128,-1,5
 65 583 65 583 46 583 c 0,6,7
 26 583 26 583 13 597 c 128,-1,8
 0 611 0 611 0 630 c 256,9,10
 0 649 0 649 13 662.5 c 128,-1,11
 26 676 26 676 46 676 c 0,0,1
185 676 m 256,12,13
 204 676 204 676 217 662.5 c 128,-1,14
 230 649 230 649 230 630 c 256,15,16
 230 611 230 611 217 597 c 128,-1,17
 204 583 204 583 185 583 c 256,18,19
 166 583 166 583 153 597 c 128,-1,20
 140 611 140 611 140 630 c 256,21,22
 140 649 140 649 153 662.5 c 128,-1,23
 166 676 166 676 185 676 c 256,12,13
EndSplineSet
EndChar
StartChar: copyright
Encoding: 169 169 180
Width: 702
Flags: W
LayerCount: 2
Back
Fore
SplineSet
44 358 m 0,0,1
 44 442 44 442 73 503.5 c 128,-1,2
 102 565 102 565 147 605.5 c 128,-1,3
 192 646 192 646 247 665.5 c 128,-1,4
 302 685 302 685 354 685 c 0,5,6
 407 685 407 685 461 665 c 128,-1,7
 515 645 515 645 559 605 c 128,-1,8
 603 565 603 565 630.5 504 c 128,-1,9
 658 443 658 443 658 362 c 0,10,11
 658 278 658 278 629 216.5 c 128,-1,12
 600 155 600 155 555 114.5 c 128,-1,13
 510 74 510 74 455 54.5 c 128,-1,14
 400 35 400 35 348 35 c 0,15,16
 295 35 295 35 241 55 c 128,-1,17
 187 75 187 75 143 115 c 128,-1,18
 99 155 99 155 71.5 216 c 128,-1,19
 44 277 44 277 44 358 c 0,0,1
603 362 m 0,20,21
 603 420 603 420 585.5 469 c 128,-1,22
 568 518 568 518 535.5 554 c 128,-1,23
 503 590 503 590 457 610 c 128,-1,24
 411 630 411 630 354 630 c 0,25,26
 298 630 298 630 251 610 c 128,-1,27
 204 590 204 590 170 554 c 128,-1,28
 136 518 136 518 117.5 468 c 128,-1,29
 99 418 99 418 99 358 c 0,30,31
 99 300 99 300 116.5 251 c 128,-1,32
 134 202 134 202 166.5 166 c 128,-1,33
 199 130 199 130 245 110 c 128,-1,34
 291 90 291 90 348 90 c 0,35,36
 404 90 404 90 451 110 c 128,-1,37
 498 130 498 130 531.5 166 c 128,-1,38
 565 202 565 202 584 252 c 128,-1,39
 603 302 603 302 603 362 c 0,20,21
406 451 m 0,40,41
 406 458 406 458 404.5 467.5 c 128,-1,42
 403 477 403 477 397.5 486 c 128,-1,43
 392 495 392 495 382 501.5 c 128,-1,44
 372 508 372 508 354 508 c 0,45,46
 328 508 328 508 314 491.5 c 128,-1,47
 300 475 300 475 300 440 c 2,48,-1
 300 294 l 2,49,50
 300 226 300 226 355 226 c 0,51,52
 372 226 372 226 382 232.5 c 128,-1,53
 392 239 392 239 397 248 c 128,-1,54
 402 257 402 257 403.5 267.5 c 128,-1,55
 405 278 405 278 406 287 c 0,56,57
 407 299 407 299 415.5 303.5 c 128,-1,58
 424 308 424 308 437 308 c 0,59,60
 454 308 454 308 461.5 301.5 c 128,-1,61
 469 295 469 295 469 275 c 0,62,63
 469 227 469 227 436.5 198.5 c 128,-1,64
 404 170 404 170 352 170 c 0,65,66
 329 170 329 170 308 176.5 c 128,-1,67
 287 183 287 183 271.5 198 c 128,-1,68
 256 213 256 213 247 236.5 c 128,-1,69
 238 260 238 260 238 294 c 2,70,-1
 238 440 l 2,71,72
 238 474 238 474 247 497.5 c 128,-1,73
 256 521 256 521 271.5 536 c 128,-1,74
 287 551 287 551 308 557.5 c 128,-1,75
 329 564 329 564 352 564 c 0,76,77
 404 564 404 564 436.5 536 c 128,-1,78
 469 508 469 508 469 462 c 0,79,80
 469 442 469 442 461.5 436 c 128,-1,81
 454 430 454 430 438 430 c 0,82,83
 424 430 424 430 415.5 435 c 128,-1,84
 407 440 407 440 406 451 c 0,40,41
EndSplineSet
EndChar
StartChar: ordfeminine
Encoding: 170 170 309
Width: 326
Flags: W
LayerCount: 2
Back
Fore
SplineSet
149 753 m 0,0,1
 186 753 186 753 211.5 742 c 128,-1,2
 237 731 237 731 253 713 c 128,-1,3
 269 695 269 695 276 672 c 128,-1,4
 283 649 283 649 283 624 c 2,5,-1
 283 462 l 2,6,7
 283 452 283 452 273.5 444.5 c 128,-1,8
 264 437 264 437 247 437 c 0,9,10
 233 437 233 437 224 444.5 c 128,-1,11
 215 452 215 452 215 462 c 2,12,-1
 215 483 l 1,13,14
 200 466 200 466 181 453 c 128,-1,15
 162 440 162 440 136 435 c 0,16,17
 129 433 129 433 121.5 433 c 128,-1,18
 114 433 114 433 107 433 c 0,19,20
 75 435 75 435 52 456 c 128,-1,21
 29 477 29 477 29 519 c 0,22,23
 29 547 29 547 40 565 c 128,-1,24
 51 583 51 583 71.5 593.5 c 128,-1,25
 92 604 92 604 120 608.5 c 128,-1,26
 148 613 148 613 182 613 c 2,27,-1
 210 613 l 1,28,-1
 210 624 l 2,29,30
 210 648 210 648 196 670 c 128,-1,31
 182 692 182 692 148 692 c 0,32,33
 130 692 130 692 118 689 c 128,-1,34
 106 686 106 686 98 682 c 128,-1,35
 90 678 90 678 85 675 c 128,-1,36
 80 672 80 672 74 672 c 0,37,38
 61 672 61 672 54.5 684 c 128,-1,39
 48 696 48 696 48 709 c 0,40,41
 48 718 48 718 57.5 726 c 128,-1,42
 67 734 67 734 81.5 740 c 128,-1,43
 96 746 96 746 114 749.5 c 128,-1,44
 132 753 132 753 149 753 c 0,0,1
210 573 m 1,45,-1
 187 573 l 2,46,47
 154 573 154 573 128.5 564.5 c 128,-1,48
 103 556 103 556 103 528 c 0,49,50
 103 507 103 507 114.5 497.5 c 128,-1,51
 126 488 126 488 143 488 c 0,52,53
 155 488 155 488 167 493.5 c 128,-1,54
 179 499 179 499 188.5 508 c 128,-1,55
 198 517 198 517 204 528.5 c 128,-1,56
 210 540 210 540 210 552 c 2,57,-1
 210 573 l 1,45,-1
EndSplineSet
EndChar
StartChar: guillemotleft
Encoding: 171 171 238
Width: 465
Flags: W
LayerCount: 2
Back
Fore
SplineSet
217 138 m 2,0,1
 220 133 220 133 220 127 c 0,2,3
 220 118 220 118 215 109 c 128,-1,4
 210 100 210 100 201 92 c 128,-1,5
 192 84 192 84 180.5 79 c 128,-1,6
 169 74 169 74 156 74 c 0,7,8
 145 74 145 74 137 77.5 c 128,-1,9
 129 81 129 81 125 89 c 2,10,-1
 46 236 l 2,11,12
 38 250 38 250 33 258 c 128,-1,13
 28 266 28 266 28 276 c 256,14,15
 28 286 28 286 33 295 c 128,-1,16
 38 304 38 304 46 318 c 2,17,-1
 125 466 l 2,18,19
 133 480 133 480 157 480 c 0,20,21
 183 480 183 480 201.5 462.5 c 128,-1,22
 220 445 220 445 220 428 c 0,23,24
 220 422 220 422 217 416 c 2,25,-1
 143 277 l 1,26,-1
 217 138 l 2,0,1
424 138 m 2,27,28
 427 133 427 133 427 127 c 0,29,30
 427 118 427 118 421.5 109 c 128,-1,31
 416 100 416 100 407 92 c 128,-1,32
 398 84 398 84 386.5 79 c 128,-1,33
 375 74 375 74 362 74 c 0,34,35
 339 74 339 74 332 89 c 2,36,-1
 253 236 l 2,37,38
 245 250 245 250 239.5 258 c 128,-1,39
 234 266 234 266 234 276 c 256,40,41
 234 286 234 286 239.5 295 c 128,-1,42
 245 304 245 304 253 318 c 2,43,-1
 332 466 l 2,44,45
 335 473 335 473 343.5 476.5 c 128,-1,46
 352 480 352 480 363 480 c 0,47,48
 389 480 389 480 408 462.5 c 128,-1,49
 427 445 427 445 427 428 c 0,50,51
 427 422 427 422 424 416 c 2,52,-1
 350 277 l 1,53,-1
 424 138 l 2,27,28
EndSplineSet
EndChar
StartChar: logicalnot
Encoding: 172 172 271
Width: 491
Flags: W
LayerCount: 2
Back
Fore
SplineSet
38 240 m 0,0,1
 38 259 38 259 47.5 272 c 128,-1,2
 57 285 57 285 72 285 c 2,3,-1
 400 285 l 2,4,5
 414 285 414 285 425 272 c 128,-1,6
 436 259 436 259 436 240 c 2,7,-1
 436 98 l 2,8,9
 436 84 436 84 421 73.5 c 128,-1,10
 406 63 406 63 383 63 c 256,11,12
 360 63 360 63 345.5 73.5 c 128,-1,13
 331 84 331 84 331 98 c 2,14,-1
 331 196 l 1,15,-1
 72 196 l 2,16,17
 57 196 57 196 47.5 208 c 128,-1,18
 38 220 38 220 38 240 c 0,0,1
EndSplineSet
EndChar
StartChar: uni00AD
Encoding: 173 173 394
Width: 472
Flags: W
LayerCount: 2
Back
Fore
SplineSet
41 240 m 0,0,1
 41 259 41 259 50.5 272 c 128,-1,2
 60 285 60 285 75 285 c 2,3,-1
 395 285 l 2,4,5
 409 285 409 285 420 272 c 128,-1,6
 431 259 431 259 431 240 c 0,7,8
 431 220 431 220 420 208 c 128,-1,9
 409 196 409 196 395 196 c 2,10,-1
 75 196 l 2,11,12
 60 196 60 196 50.5 208 c 128,-1,13
 41 220 41 220 41 240 c 0,0,1
EndSplineSet
EndChar
StartChar: registered
Encoding: 174 174 345
Width: 702
Flags: W
LayerCount: 2
Back
Fore
SplineSet
44 358 m 0,0,1
 44 442 44 442 73 503.5 c 128,-1,2
 102 565 102 565 147 605.5 c 128,-1,3
 192 646 192 646 247 665.5 c 128,-1,4
 302 685 302 685 354 685 c 0,5,6
 407 685 407 685 461 665 c 128,-1,7
 515 645 515 645 559 605 c 128,-1,8
 603 565 603 565 630.5 504 c 128,-1,9
 658 443 658 443 658 362 c 0,10,11
 658 278 658 278 629 216.5 c 128,-1,12
 600 155 600 155 555 114.5 c 128,-1,13
 510 74 510 74 455 54.5 c 128,-1,14
 400 35 400 35 348 35 c 0,15,16
 295 35 295 35 241 55 c 128,-1,17
 187 75 187 75 143 115 c 128,-1,18
 99 155 99 155 71.5 216 c 128,-1,19
 44 277 44 277 44 358 c 0,0,1
249 534 m 2,20,21
 249 542 249 542 254.5 548 c 128,-1,22
 260 554 260 554 269 554 c 2,23,-1
 362 554 l 2,24,25
 385 554 385 554 405.5 548.5 c 128,-1,26
 426 543 426 543 442 530.5 c 128,-1,27
 458 518 458 518 467 497.5 c 128,-1,28
 476 477 476 477 476 447 c 0,29,30
 476 402 476 402 457 377 c 128,-1,31
 438 352 438 352 410 344 c 1,32,-1
 473 214 l 2,33,34
 474 212 474 212 474 207 c 0,35,36
 474 195 474 195 463.5 185.5 c 128,-1,37
 453 176 453 176 442 176 c 0,38,39
 429 176 429 176 421 193 c 2,40,-1
 354 334 l 1,41,-1
 308 334 l 1,42,-1
 308 198 l 2,43,44
 308 187 308 187 299.5 182 c 128,-1,45
 291 177 291 177 279 177 c 0,46,47
 268 177 268 177 258.5 182 c 128,-1,48
 249 187 249 187 249 198 c 2,49,-1
 249 534 l 2,20,21
308 501 m 1,50,-1
 308 385 l 1,51,-1
 362 385 l 2,52,53
 388 385 388 385 402.5 398 c 128,-1,54
 417 411 417 411 417 441 c 0,55,56
 417 474 417 474 402.5 487.5 c 128,-1,57
 388 501 388 501 362 501 c 2,58,-1
 308 501 l 1,50,-1
603 362 m 0,59,60
 603 420 603 420 585.5 469 c 128,-1,61
 568 518 568 518 535.5 554 c 128,-1,62
 503 590 503 590 457 610 c 128,-1,63
 411 630 411 630 354 630 c 0,64,65
 298 630 298 630 251 610 c 128,-1,66
 204 590 204 590 170 554 c 128,-1,67
 136 518 136 518 117.5 468 c 128,-1,68
 99 418 99 418 99 358 c 0,69,70
 99 300 99 300 116.5 251 c 128,-1,71
 134 202 134 202 166.5 166 c 128,-1,72
 199 130 199 130 245 110 c 128,-1,73
 291 90 291 90 348 90 c 0,74,75
 404 90 404 90 451 110 c 128,-1,76
 498 130 498 130 531.5 166 c 128,-1,77
 565 202 565 202 584 252 c 128,-1,78
 603 302 603 302 603 362 c 0,59,60
EndSplineSet
EndChar
StartChar: macron
Encoding: 175 175 276
Width: 278
Flags: W
LayerCount: 2
Back
Fore
SplineSet
0 655 m 256,0,1
 0 671 0 671 9.5 681.5 c 128,-1,2
 19 692 19 692 34 692 c 2,3,-1
 243 692 l 2,4,5
 257 692 257 692 267.5 681.5 c 128,-1,6
 278 671 278 671 278 655 c 256,7,8
 278 639 278 639 267.5 629.5 c 128,-1,9
 257 620 257 620 243 620 c 2,10,-1
 34 620 l 2,11,12
 19 620 19 620 9.5 629.5 c 128,-1,13
 0 639 0 639 0 655 c 256,0,1
EndSplineSet
EndChar
StartChar: degree
Encoding: 176 176 187
Width: 407
Flags: W
LayerCount: 2
Back
Fore
SplineSet
203 768 m 256,0,1
 239 768 239 768 271 753.5 c 128,-1,2
 303 739 303 739 327.5 714.5 c 128,-1,3
 352 690 352 690 366.5 657.5 c 128,-1,4
 381 625 381 625 381 589 c 256,5,6
 381 553 381 553 366.5 519.5 c 128,-1,7
 352 486 352 486 327.5 461 c 128,-1,8
 303 436 303 436 271 421 c 128,-1,9
 239 406 239 406 203 406 c 256,10,11
 167 406 167 406 135 421 c 128,-1,12
 103 436 103 436 79 461 c 128,-1,13
 55 486 55 486 40.5 519 c 128,-1,14
 26 552 26 552 26 588 c 256,15,16
 26 624 26 624 40 656.5 c 128,-1,17
 54 689 54 689 78 714 c 128,-1,18
 102 739 102 739 134.5 753.5 c 128,-1,19
 167 768 167 768 203 768 c 256,0,1
319 587 m 0,20,21
 319 609 319 609 310 630.5 c 128,-1,22
 301 652 301 652 285.5 668.5 c 128,-1,23
 270 685 270 685 248.5 695 c 128,-1,24
 227 705 227 705 203 705 c 256,25,26
 179 705 179 705 158 695 c 128,-1,27
 137 685 137 685 121.5 669 c 128,-1,28
 106 653 106 653 97 631.5 c 128,-1,29
 88 610 88 610 88 588 c 0,30,31
 88 565 88 565 97 543.5 c 128,-1,32
 106 522 106 522 121.5 505.5 c 128,-1,33
 137 489 137 489 158 479 c 128,-1,34
 179 469 179 469 203 469 c 256,35,36
 227 469 227 469 248 479 c 128,-1,37
 269 489 269 489 285 505.5 c 128,-1,38
 301 522 301 522 310 543 c 128,-1,39
 319 564 319 564 319 587 c 0,20,21
EndSplineSet
EndChar
StartChar: plusminus
Encoding: 177 177 325
Width: 469
Flags: W
LayerCount: 2
Back
Fore
SplineSet
235 174 m 0,0,1
 216 174 216 174 203 183.5 c 128,-1,2
 190 193 190 193 190 208 c 2,3,-1
 190 319 l 1,4,-1
 74 319 l 2,5,6
 59 319 59 319 49.5 330.5 c 128,-1,7
 40 342 40 342 40 362 c 256,8,9
 40 382 40 382 49.5 394.5 c 128,-1,10
 59 407 59 407 74 407 c 2,11,-1
 190 407 l 1,12,-1
 190 517 l 2,13,14
 190 530 190 530 203 541 c 128,-1,15
 216 552 216 552 235 552 c 0,16,17
 255 552 255 552 267 541 c 128,-1,18
 279 530 279 530 279 517 c 2,19,-1
 279 407 l 1,20,-1
 394 407 l 2,21,22
 408 407 408 407 418.5 394.5 c 128,-1,23
 429 382 429 382 429 362 c 256,24,25
 429 342 429 342 418.5 330.5 c 128,-1,26
 408 319 408 319 394 319 c 2,27,-1
 279 319 l 1,28,-1
 279 208 l 2,29,30
 279 193 279 193 267 183.5 c 128,-1,31
 255 174 255 174 235 174 c 0,0,1
40 85 m 0,32,33
 40 104 40 104 49.5 117 c 128,-1,34
 59 130 59 130 74 130 c 2,35,-1
 394 130 l 2,36,37
 408 130 408 130 418.5 117 c 128,-1,38
 429 104 429 104 429 85 c 0,39,40
 429 65 429 65 418.5 53 c 128,-1,41
 408 41 408 41 394 41 c 2,42,-1
 74 41 l 2,43,44
 59 41 59 41 49.5 53 c 128,-1,45
 40 65 40 65 40 85 c 0,32,33
EndSplineSet
EndChar
StartChar: twosuperior
Encoding: 178 178 381
Width: 317
Flags: W
LayerCount: 2
Back
Fore
SplineSet
36 631 m 0,0,1
 36 655 36 655 46 673.5 c 128,-1,2
 56 692 56 692 73.5 704.5 c 128,-1,3
 91 717 91 717 113 724 c 128,-1,4
 135 731 135 731 159 731 c 0,5,6
 184 731 184 731 207.5 723.5 c 128,-1,7
 231 716 231 716 249 702 c 128,-1,8
 267 688 267 688 278 667.5 c 128,-1,9
 289 647 289 647 289 622 c 0,10,11
 289 594 289 594 275 571.5 c 128,-1,12
 261 549 261 549 240.5 530.5 c 128,-1,13
 220 512 220 512 196 497.5 c 128,-1,14
 172 483 172 483 151.5 469.5 c 128,-1,15
 131 456 131 456 117 443.5 c 128,-1,16
 103 431 103 431 103 418 c 2,17,-1
 103 404 l 1,18,-1
 267 404 l 2,19,20
 276 404 276 404 283 394.5 c 128,-1,21
 290 385 290 385 290 372 c 0,22,23
 290 360 290 360 283 350 c 128,-1,24
 276 340 276 340 267 340 c 2,25,-1
 60 340 l 2,26,27
 50 340 50 340 39 346 c 128,-1,28
 28 352 28 352 28 363 c 2,29,-1
 28 415 l 2,30,31
 28 436 28 436 42 454.5 c 128,-1,32
 56 473 56 473 77 489.5 c 128,-1,33
 98 506 98 506 122 521.5 c 128,-1,34
 146 537 146 537 167 553 c 128,-1,35
 188 569 188 569 202 585 c 128,-1,36
 216 601 216 601 216 620 c 0,37,38
 216 636 216 636 203 650.5 c 128,-1,39
 190 665 190 665 160 665 c 0,40,41
 137 665 137 665 122 654.5 c 128,-1,42
 107 644 107 644 107 620 c 0,43,44
 107 610 107 610 96.5 601.5 c 128,-1,45
 86 593 86 593 68 593 c 0,46,47
 54 593 54 593 45 601 c 128,-1,48
 36 609 36 609 36 631 c 0,0,1
EndSplineSet
EndChar
StartChar: threesuperior
Encoding: 179 179 376
Width: 324
Flags: W
LayerCount: 2
Back
Fore
SplineSet
158 401 m 0,0,1
 192 401 192 401 207.5 414 c 128,-1,2
 223 427 223 427 223 456 c 2,3,-1
 223 466 l 2,4,5
 223 495 223 495 204.5 505 c 128,-1,6
 186 515 186 515 157 515 c 0,7,8
 144 515 144 515 139 523.5 c 128,-1,9
 134 532 134 532 134 543 c 256,10,11
 134 554 134 554 139 562.5 c 128,-1,12
 144 571 144 571 157 572 c 0,13,14
 180 573 180 573 196 581.5 c 128,-1,15
 212 590 212 590 212 623 c 0,16,17
 212 649 212 649 198 659 c 128,-1,18
 184 669 184 669 159 669 c 0,19,20
 129 669 129 669 117 659.5 c 128,-1,21
 105 650 105 650 105 634 c 0,22,23
 105 622 105 622 98 614.5 c 128,-1,24
 91 607 91 607 71 607 c 0,25,26
 46 607 46 607 39.5 613.5 c 128,-1,27
 33 620 33 620 33 637 c 0,28,29
 33 652 33 652 39 668.5 c 128,-1,30
 45 685 45 685 59.5 699 c 128,-1,31
 74 713 74 713 98.5 722 c 128,-1,32
 123 731 123 731 159 731 c 0,33,34
 212 731 212 731 246.5 709.5 c 128,-1,35
 281 688 281 688 281 635 c 0,36,37
 281 604 281 604 269 580 c 128,-1,38
 257 556 257 556 235 546 c 1,39,40
 261 537 261 537 278 518 c 128,-1,41
 295 499 295 499 295 466 c 2,42,-1
 295 456 l 2,43,44
 295 423 295 423 284 400.5 c 128,-1,45
 273 378 273 378 254.5 364 c 128,-1,46
 236 350 236 350 210.5 343.5 c 128,-1,47
 185 337 185 337 156 337 c 0,48,49
 121 337 121 337 96 346 c 128,-1,50
 71 355 71 355 55 369.5 c 128,-1,51
 39 384 39 384 31.5 401 c 128,-1,52
 24 418 24 418 24 435 c 256,53,54
 24 452 24 452 31.5 457.5 c 128,-1,55
 39 463 39 463 58 463 c 0,56,57
 81 463 81 463 88 457 c 128,-1,58
 95 451 95 451 95 438 c 0,59,60
 95 421 95 421 112 411 c 128,-1,61
 129 401 129 401 158 401 c 0,0,1
EndSplineSet
EndChar
StartChar: acute
Encoding: 180 180 136
Width: 184
Flags: W
LayerCount: 2
Back
Fore
SplineSet
47 580 m 2,0,1
 41 577 41 577 35 577 c 0,2,3
 20 577 20 577 10 590.5 c 128,-1,4
 0 604 0 604 0 618 c 0,5,6
 0 636 0 636 15 644 c 2,7,-1
 139 707 l 2,8,9
 147 709 147 709 150 709 c 0,10,11
 165 709 165 709 174.5 695.5 c 128,-1,12
 184 682 184 682 184 668 c 0,13,14
 184 660 184 660 180.5 652.5 c 128,-1,15
 177 645 177 645 168 641 c 2,16,-1
 47 580 l 2,0,1
EndSplineSet
EndChar
StartChar: mu
Encoding: 181 181 278
Width: 508
Flags: W
LayerCount: 2
Back
Fore
SplineSet
269 -8 m 0,0,1
 234 -8 234 -8 204.5 6 c 128,-1,2
 175 20 175 20 156 40 c 1,3,-1
 156 -190 l 2,4,5
 156 -204 156 -204 143.5 -214.5 c 128,-1,6
 131 -225 131 -225 114 -225 c 0,7,8
 91 -225 91 -225 76.5 -214.5 c 128,-1,9
 62 -204 62 -204 62 -190 c 2,10,-1
 62 439 l 2,11,12
 62 453 62 453 77.5 463.5 c 128,-1,13
 93 474 93 474 115 474 c 0,14,15
 136 474 136 474 151.5 463.5 c 128,-1,16
 167 453 167 453 167 439 c 2,17,-1
 167 179 l 2,18,19
 167 164 167 164 175.5 147.5 c 128,-1,20
 184 131 184 131 198 117 c 128,-1,21
 212 103 212 103 231 94 c 128,-1,22
 250 85 250 85 270 85 c 256,23,24
 290 85 290 85 307.5 94 c 128,-1,25
 325 103 325 103 338.5 117.5 c 128,-1,26
 352 132 352 132 360 150.5 c 128,-1,27
 368 169 368 169 368 189 c 2,28,-1
 368 439 l 2,29,30
 368 454 368 454 384 464 c 128,-1,31
 400 474 400 474 421 474 c 0,32,33
 444 474 444 474 458.5 464 c 128,-1,34
 473 454 473 454 473 439 c 2,35,-1
 473 189 l 2,36,37
 473 149 473 149 457 113.5 c 128,-1,38
 441 78 441 78 413.5 51 c 128,-1,39
 386 24 386 24 348.5 8 c 128,-1,40
 311 -8 311 -8 269 -8 c 0,0,1
EndSplineSet
EndChar
StartChar: paragraph
Encoding: 182 182 315
Width: 541
Flags: W
LayerCount: 2
Back
Fore
SplineSet
439 731 m 2,0,1
 452 731 452 731 463 722 c 128,-1,2
 474 713 474 713 474 696 c 2,3,-1
 474 34 l 2,4,5
 474 16 474 16 463 8 c 128,-1,6
 452 0 452 0 439 0 c 0,7,8
 425 0 425 0 414 8 c 128,-1,9
 403 16 403 16 403 34 c 2,10,-1
 403 678 l 1,11,-1
 322 678 l 1,12,-1
 322 35 l 2,13,14
 322 18 322 18 311.5 9 c 128,-1,15
 301 0 301 0 287 0 c 256,16,17
 273 0 273 0 262 9 c 128,-1,18
 251 18 251 18 251 35 c 2,19,-1
 251 306 l 1,20,-1
 221 306 l 2,21,22
 180 306 180 306 144 317 c 128,-1,23
 108 328 108 328 81.5 353 c 128,-1,24
 55 378 55 378 40 417.5 c 128,-1,25
 25 457 25 457 25 513 c 2,26,-1
 25 525 l 2,27,28
 25 581 25 581 40 620.5 c 128,-1,29
 55 660 55 660 81.5 684.5 c 128,-1,30
 108 709 108 709 144 720 c 128,-1,31
 180 731 180 731 221 731 c 2,32,-1
 439 731 l 2,0,1
EndSplineSet
EndChar
StartChar: periodcentered
Encoding: 183 183 321
Width: 197
Flags: W
LayerCount: 2
Back
Fore
SplineSet
99 356 m 0,0,1
 125 356 125 356 143 339.5 c 128,-1,2
 161 323 161 323 161 300 c 256,3,4
 161 277 161 277 143 260 c 128,-1,5
 125 243 125 243 99 243 c 0,6,7
 72 243 72 243 54 260 c 128,-1,8
 36 277 36 277 36 300 c 256,9,10
 36 323 36 323 54 339.5 c 128,-1,11
 72 356 72 356 99 356 c 0,0,1
EndSplineSet
EndChar
StartChar: cedilla
Encoding: 184 184 174
Width: 181
Flags: W
LayerCount: 2
Back
Fore
SplineSet
84 -55 m 1,0,1
 135 -57 135 -57 158 -79 c 128,-1,2
 181 -101 181 -101 181 -130 c 0,3,4
 181 -144 181 -144 176 -158.5 c 128,-1,5
 171 -173 171 -173 159 -185.5 c 128,-1,6
 147 -198 147 -198 128 -206 c 128,-1,7
 109 -214 109 -214 82 -214 c 0,8,9
 70 -214 70 -214 56 -212.5 c 128,-1,10
 42 -211 42 -211 29.5 -207.5 c 128,-1,11
 17 -204 17 -204 8.5 -198.5 c 128,-1,12
 0 -193 0 -193 0 -186 c 0,13,14
 0 -183 0 -183 1.5 -178 c 128,-1,15
 3 -173 3 -173 5.5 -167.5 c 128,-1,16
 8 -162 8 -162 11.5 -158 c 128,-1,17
 15 -154 15 -154 20 -154 c 0,18,19
 28 -154 28 -154 40.5 -161 c 128,-1,20
 53 -168 53 -168 77 -168 c 0,21,22
 103 -168 103 -168 115 -158 c 128,-1,23
 127 -148 127 -148 127 -132 c 0,24,25
 127 -99 127 -99 73 -94 c 2,26,-1
 25 -89 l 1,27,-1
 51 9 l 1,28,-1
 102 9 l 1,29,-1
 84 -55 l 1,0,1
EndSplineSet
EndChar
StartChar: onesuperior
Encoding: 185 185 307
Width: 184
Flags: W
LayerCount: 2
Back
Fore
SplineSet
67 645 m 1,0,-1
 48 630 l 2,1,2
 41 626 41 626 35 626 c 0,3,4
 24 626 24 626 17.5 634.5 c 128,-1,5
 11 643 11 643 11 654 c 0,6,7
 11 662 11 662 14.5 669 c 128,-1,8
 18 676 18 676 24 680 c 2,9,-1
 92 727 l 2,10,11
 99 732 99 732 108 732 c 0,12,13
 119 732 119 732 129.5 726 c 128,-1,14
 140 720 140 720 140 709 c 2,15,-1
 140 363 l 2,16,17
 140 351 140 351 129 345.5 c 128,-1,18
 118 340 118 340 104 340 c 256,19,20
 90 340 90 340 78.5 345.5 c 128,-1,21
 67 351 67 351 67 363 c 2,22,-1
 67 645 l 1,0,-1
EndSplineSet
EndChar
StartChar: ordmasculine
Encoding: 186 186 310
Width: 339
Flags: W
LayerCount: 2
Back
Fore
SplineSet
169 753 m 0,0,1
 197 753 197 753 222 742.5 c 128,-1,2
 247 732 247 732 266 714.5 c 128,-1,3
 285 697 285 697 296 673 c 128,-1,4
 307 649 307 649 307 622 c 2,5,-1
 307 563 l 2,6,7
 307 537 307 537 296 513.5 c 128,-1,8
 285 490 285 490 266 472 c 128,-1,9
 247 454 247 454 222 443 c 128,-1,10
 197 432 197 432 169 432 c 256,11,12
 141 432 141 432 116 443 c 128,-1,13
 91 454 91 454 72.5 472 c 128,-1,14
 54 490 54 490 43 513.5 c 128,-1,15
 32 537 32 537 32 563 c 2,16,-1
 32 622 l 2,17,18
 32 648 32 648 42.5 672 c 128,-1,19
 53 696 53 696 72 714 c 128,-1,20
 91 732 91 732 115.5 742.5 c 128,-1,21
 140 753 140 753 169 753 c 0,0,1
233 622 m 2,22,23
 233 647 233 647 214.5 667 c 128,-1,24
 196 687 196 687 169 687 c 256,25,26
 142 687 142 687 123.5 667 c 128,-1,27
 105 647 105 647 105 622 c 2,28,-1
 105 563 l 2,29,30
 105 537 105 537 123.5 517 c 128,-1,31
 142 497 142 497 169 497 c 0,32,33
 195 497 195 497 214 517 c 128,-1,34
 233 537 233 537 233 563 c 2,35,-1
 233 622 l 2,22,23
EndSplineSet
EndChar
StartChar: guillemotright
Encoding: 187 187 239
Width: 465
Flags: W
LayerCount: 2
Back
Fore
SplineSet
322 277 m 1,0,-1
 247 416 l 2,1,2
 244 422 244 422 244 428 c 0,3,4
 244 445 244 445 263 462.5 c 128,-1,5
 282 480 282 480 308 480 c 0,6,7
 332 480 332 480 340 466 c 2,8,-1
 419 318 l 2,9,10
 427 304 427 304 432 295 c 128,-1,11
 437 286 437 286 437 276 c 256,12,13
 437 266 437 266 432 258 c 128,-1,14
 427 250 427 250 419 236 c 2,15,-1
 340 89 l 2,16,17
 331 74 331 74 309 74 c 0,18,19
 296 74 296 74 284.5 79 c 128,-1,20
 273 84 273 84 264 92 c 128,-1,21
 255 100 255 100 249.5 109 c 128,-1,22
 244 118 244 118 244 127 c 0,23,24
 244 133 244 133 247 138 c 2,25,-1
 322 277 l 1,0,-1
115 277 m 1,26,-1
 41 416 l 2,27,28
 38 422 38 422 38 428 c 0,29,30
 38 445 38 445 56.5 462.5 c 128,-1,31
 75 480 75 480 101 480 c 0,32,33
 125 480 125 480 133 466 c 2,34,-1
 212 318 l 2,35,36
 220 304 220 304 225 295 c 128,-1,37
 230 286 230 286 230 276 c 256,38,39
 230 266 230 266 225 258 c 128,-1,40
 220 250 220 250 212 236 c 2,41,-1
 133 89 l 2,42,43
 125 74 125 74 102 74 c 0,44,45
 89 74 89 74 77.5 79 c 128,-1,46
 66 84 66 84 57 92 c 128,-1,47
 48 100 48 100 43 109 c 128,-1,48
 38 118 38 118 38 127 c 0,49,50
 38 133 38 133 41 138 c 2,51,-1
 115 277 l 1,26,-1
EndSplineSet
EndChar
StartChar: onequarter
Encoding: 188 188 306
Width: 641
Flags: W
LayerCount: 2
Back
Fore
SplineSet
83 645 m 1,0,-1
 64 630 l 2,1,2
 57 626 57 626 51 626 c 0,3,4
 40 626 40 626 33.5 634.5 c 128,-1,5
 27 643 27 643 27 654 c 0,6,7
 27 662 27 662 30.5 669 c 128,-1,8
 34 676 34 676 40 680 c 2,9,-1
 108 727 l 2,10,11
 115 732 115 732 124 732 c 0,12,13
 135 732 135 732 145.5 726 c 128,-1,14
 156 720 156 720 156 709 c 2,15,-1
 156 363 l 2,16,17
 156 351 156 351 145 345.5 c 128,-1,18
 134 340 134 340 120 340 c 256,19,20
 106 340 106 340 94.5 345.5 c 128,-1,21
 83 351 83 351 83 363 c 2,22,-1
 83 645 l 1,0,-1
475 770 m 0,23,24
 490 770 490 770 503.5 759.5 c 128,-1,25
 517 749 517 749 517 732 c 0,26,27
 517 723 517 723 514 716 c 2,28,-1
 147 -16 l 2,29,30
 142 -25 142 -25 133 -30 c 128,-1,31
 124 -35 124 -35 113 -35 c 0,32,33
 96 -35 96 -35 85 -23.5 c 128,-1,34
 74 -12 74 -12 74 2 c 0,35,36
 74 10 74 10 78 17 c 2,37,-1
 445 752 l 2,38,39
 450 762 450 762 458 766 c 128,-1,40
 466 770 466 770 475 770 c 0,23,24
497 85 m 1,41,-1
 356 85 l 2,42,43
 345 85 345 85 338 91.5 c 128,-1,44
 331 98 331 98 331 110 c 0,45,46
 331 117 331 117 335 124 c 2,47,-1
 474 372 l 2,48,49
 479 382 479 382 487.5 386.5 c 128,-1,50
 496 391 496 391 505 391 c 0,51,52
 515 391 515 391 528 383.5 c 128,-1,53
 541 376 541 376 541 364 c 0,54,55
 541 358 541 358 538 354 c 2,56,-1
 424 152 l 1,57,-1
 497 152 l 1,58,-1
 497 204 l 2,59,60
 497 216 497 216 508 221.5 c 128,-1,61
 519 227 519 227 533 227 c 256,62,63
 547 227 547 227 558.5 221.5 c 128,-1,64
 570 216 570 216 570 204 c 2,65,-1
 570 152 l 1,66,-1
 597 152 l 2,67,68
 609 152 609 152 614.5 141.5 c 128,-1,69
 620 131 620 131 620 118 c 0,70,71
 620 106 620 106 613 95.5 c 128,-1,72
 606 85 606 85 597 85 c 2,73,-1
 570 85 l 1,74,-1
 570 23 l 2,75,76
 570 11 570 11 558.5 5.5 c 128,-1,77
 547 0 547 0 533 0 c 256,78,79
 519 0 519 0 508 5.5 c 128,-1,80
 497 11 497 11 497 23 c 2,81,-1
 497 85 l 1,41,-1
EndSplineSet
Ligature2: "'frac' Diagonal Fractions in Latin lookup 9 subtable" one slash four
EndChar
StartChar: onehalf
Encoding: 189 189 304
Width: 638
Flags: W
LayerCount: 2
Back
Fore
SplineSet
356 291 m 0,0,1
 356 315 356 315 366 333.5 c 128,-1,2
 376 352 376 352 393.5 364.5 c 128,-1,3
 411 377 411 377 433 384 c 128,-1,4
 455 391 455 391 479 391 c 0,5,6
 504 391 504 391 527.5 383.5 c 128,-1,7
 551 376 551 376 569 362 c 128,-1,8
 587 348 587 348 598 327.5 c 128,-1,9
 609 307 609 307 609 282 c 0,10,11
 609 254 609 254 595 231.5 c 128,-1,12
 581 209 581 209 560.5 190.5 c 128,-1,13
 540 172 540 172 516 157.5 c 128,-1,14
 492 143 492 143 471.5 129.5 c 128,-1,15
 451 116 451 116 437 103.5 c 128,-1,16
 423 91 423 91 423 78 c 2,17,-1
 423 64 l 1,18,-1
 587 64 l 2,19,20
 596 64 596 64 603 54.5 c 128,-1,21
 610 45 610 45 610 32 c 0,22,23
 610 20 610 20 603 10 c 128,-1,24
 596 0 596 0 587 0 c 2,25,-1
 380 0 l 2,26,27
 370 0 370 0 359 6 c 128,-1,28
 348 12 348 12 348 23 c 2,29,-1
 348 75 l 2,30,31
 348 96 348 96 362 114.5 c 128,-1,32
 376 133 376 133 397 149.5 c 128,-1,33
 418 166 418 166 442 181.5 c 128,-1,34
 466 197 466 197 487 213 c 128,-1,35
 508 229 508 229 522 245 c 128,-1,36
 536 261 536 261 536 280 c 0,37,38
 536 296 536 296 523 310.5 c 128,-1,39
 510 325 510 325 480 325 c 0,40,41
 457 325 457 325 442 314.5 c 128,-1,42
 427 304 427 304 427 280 c 0,43,44
 427 270 427 270 416.5 261.5 c 128,-1,45
 406 253 406 253 388 253 c 0,46,47
 374 253 374 253 365 261 c 128,-1,48
 356 269 356 269 356 291 c 0,0,1
80 645 m 1,49,-1
 61 630 l 2,50,51
 54 626 54 626 48 626 c 0,52,53
 37 626 37 626 30.5 634.5 c 128,-1,54
 24 643 24 643 24 654 c 0,55,56
 24 662 24 662 27.5 669 c 128,-1,57
 31 676 31 676 37 680 c 2,58,-1
 105 727 l 2,59,60
 112 732 112 732 121 732 c 0,61,62
 132 732 132 732 142.5 726 c 128,-1,63
 153 720 153 720 153 709 c 2,64,-1
 153 363 l 2,65,66
 153 351 153 351 142 345.5 c 128,-1,67
 131 340 131 340 117 340 c 256,68,69
 103 340 103 340 91.5 345.5 c 128,-1,70
 80 351 80 351 80 363 c 2,71,-1
 80 645 l 1,49,-1
456 770 m 0,72,73
 471 770 471 770 484.5 759.5 c 128,-1,74
 498 749 498 749 498 732 c 0,75,76
 498 723 498 723 495 716 c 2,77,-1
 128 -16 l 2,78,79
 123 -25 123 -25 114 -30 c 128,-1,80
 105 -35 105 -35 94 -35 c 0,81,82
 77 -35 77 -35 66 -23.5 c 128,-1,83
 55 -12 55 -12 55 2 c 0,84,85
 55 10 55 10 59 17 c 2,86,-1
 426 752 l 2,87,88
 431 762 431 762 439 766 c 128,-1,89
 447 770 447 770 456 770 c 0,72,73
EndSplineSet
Ligature2: "'frac' Diagonal Fractions in Latin lookup 9 subtable" one slash two
EndChar
StartChar: threequarters
Encoding: 190 190 375
Width: 774
Flags: W
LayerCount: 2
Back
Fore
SplineSet
163 401 m 0,0,1
 197 401 197 401 212.5 414 c 128,-1,2
 228 427 228 427 228 456 c 2,3,-1
 228 466 l 2,4,5
 228 495 228 495 209.5 505 c 128,-1,6
 191 515 191 515 162 515 c 0,7,8
 149 515 149 515 144 523.5 c 128,-1,9
 139 532 139 532 139 543 c 256,10,11
 139 554 139 554 144 562.5 c 128,-1,12
 149 571 149 571 162 572 c 0,13,14
 185 573 185 573 201 581.5 c 128,-1,15
 217 590 217 590 217 623 c 0,16,17
 217 649 217 649 203 659 c 128,-1,18
 189 669 189 669 164 669 c 0,19,20
 134 669 134 669 122 659.5 c 128,-1,21
 110 650 110 650 110 634 c 0,22,23
 110 622 110 622 103 614.5 c 128,-1,24
 96 607 96 607 76 607 c 0,25,26
 51 607 51 607 44.5 613.5 c 128,-1,27
 38 620 38 620 38 637 c 0,28,29
 38 652 38 652 44 668.5 c 128,-1,30
 50 685 50 685 64.5 699 c 128,-1,31
 79 713 79 713 103.5 722 c 128,-1,32
 128 731 128 731 164 731 c 0,33,34
 217 731 217 731 251.5 709.5 c 128,-1,35
 286 688 286 688 286 635 c 0,36,37
 286 604 286 604 274 580 c 128,-1,38
 262 556 262 556 240 546 c 1,39,40
 266 537 266 537 283 518 c 128,-1,41
 300 499 300 499 300 466 c 2,42,-1
 300 456 l 2,43,44
 300 423 300 423 289 400.5 c 128,-1,45
 278 378 278 378 259.5 364 c 128,-1,46
 241 350 241 350 215.5 343.5 c 128,-1,47
 190 337 190 337 161 337 c 0,48,49
 126 337 126 337 101 346 c 128,-1,50
 76 355 76 355 60 369.5 c 128,-1,51
 44 384 44 384 36.5 401 c 128,-1,52
 29 418 29 418 29 435 c 256,53,54
 29 452 29 452 36.5 457.5 c 128,-1,55
 44 463 44 463 63 463 c 0,56,57
 86 463 86 463 93 457 c 128,-1,58
 100 451 100 451 100 438 c 0,59,60
 100 421 100 421 117 411 c 128,-1,61
 134 401 134 401 163 401 c 0,0,1
630 85 m 1,62,-1
 489 85 l 2,63,64
 478 85 478 85 471 91.5 c 128,-1,65
 464 98 464 98 464 110 c 0,66,67
 464 117 464 117 468 124 c 2,68,-1
 607 372 l 2,69,70
 612 382 612 382 620.5 386.5 c 128,-1,71
 629 391 629 391 638 391 c 0,72,73
 648 391 648 391 661 383.5 c 128,-1,74
 674 376 674 376 674 364 c 0,75,76
 674 358 674 358 671 354 c 2,77,-1
 557 152 l 1,78,-1
 630 152 l 1,79,-1
 630 204 l 2,80,81
 630 216 630 216 641 221.5 c 128,-1,82
 652 227 652 227 666 227 c 256,83,84
 680 227 680 227 691.5 221.5 c 128,-1,85
 703 216 703 216 703 204 c 2,86,-1
 703 152 l 1,87,-1
 730 152 l 2,88,89
 742 152 742 152 747.5 141.5 c 128,-1,90
 753 131 753 131 753 118 c 0,91,92
 753 106 753 106 746 95.5 c 128,-1,93
 739 85 739 85 730 85 c 2,94,-1
 703 85 l 1,95,-1
 703 23 l 2,96,97
 703 11 703 11 691.5 5.5 c 128,-1,98
 680 0 680 0 666 0 c 256,99,100
 652 0 652 0 641 5.5 c 128,-1,101
 630 11 630 11 630 23 c 2,102,-1
 630 85 l 1,62,-1
602 770 m 0,103,104
 617 770 617 770 630.5 759.5 c 128,-1,105
 644 749 644 749 644 732 c 0,106,107
 644 723 644 723 641 716 c 2,108,-1
 274 -16 l 2,109,110
 269 -25 269 -25 260 -30 c 128,-1,111
 251 -35 251 -35 240 -35 c 0,112,113
 223 -35 223 -35 212 -23.5 c 128,-1,114
 201 -12 201 -12 201 2 c 0,115,116
 201 10 201 10 205 17 c 2,117,-1
 572 752 l 2,118,119
 577 762 577 762 585 766 c 128,-1,120
 593 770 593 770 602 770 c 0,103,104
EndSplineSet
Ligature2: "'frac' Diagonal Fractions in Latin lookup 9 subtable" three slash four
EndChar
StartChar: questiondown
Encoding: 191 191 330
Width: 421
Flags: W
LayerCount: 2
Back
Fore
SplineSet
27 166 m 0,0,1
 27 208 27 208 41.5 240.5 c 128,-1,2
 56 273 56 273 76.5 298.5 c 128,-1,3
 97 324 97 324 118 342 c 128,-1,4
 139 360 139 360 151 373 c 0,5,6
 167 388 167 388 176 402.5 c 128,-1,7
 185 417 185 417 189 433.5 c 128,-1,8
 193 450 193 450 194 469.5 c 128,-1,9
 195 489 195 489 195 513 c 0,10,11
 195 525 195 525 203.5 534.5 c 128,-1,12
 212 544 212 544 236 544 c 0,13,14
 256 544 256 544 265.5 534 c 128,-1,15
 275 524 275 524 275 498 c 0,16,17
 275 460 275 460 270.5 433.5 c 128,-1,18
 266 407 266 407 258.5 388.5 c 128,-1,19
 251 370 251 370 241 357 c 128,-1,20
 231 344 231 344 221 334 c 0,21,22
 207 320 207 320 189 305 c 128,-1,23
 171 290 171 290 154.5 271.5 c 128,-1,24
 138 253 138 253 126.5 230 c 128,-1,25
 115 207 115 207 115 176 c 0,26,27
 115 128 115 128 145.5 101.5 c 128,-1,28
 176 75 176 75 230 75 c 0,29,30
 265 75 265 75 284 84.5 c 128,-1,31
 303 94 303 94 315 106 c 128,-1,32
 327 118 327 118 335.5 127.5 c 128,-1,33
 344 137 344 137 358 137 c 256,34,35
 372 137 372 137 385.5 126.5 c 128,-1,36
 399 116 399 116 399 96 c 0,37,38
 399 80 399 80 387.5 62 c 128,-1,39
 376 44 376 44 353.5 29 c 128,-1,40
 331 14 331 14 299 4 c 128,-1,41
 267 -6 267 -6 226 -6 c 0,42,43
 179 -6 179 -6 142 7 c 128,-1,44
 105 20 105 20 79.5 43.5 c 128,-1,45
 54 67 54 67 40.5 98.5 c 128,-1,46
 27 130 27 130 27 166 c 0,0,1
235 618 m 0,47,48
 211 618 211 618 193.5 635.5 c 128,-1,49
 176 653 176 653 176 678 c 0,50,51
 176 702 176 702 193 720 c 128,-1,52
 210 738 210 738 235 738 c 0,53,54
 261 738 261 738 278 720 c 128,-1,55
 295 702 295 702 295 678 c 0,56,57
 295 653 295 653 277.5 635.5 c 128,-1,58
 260 618 260 618 235 618 c 0,47,48
EndSplineSet
EndChar
StartChar: Agrave
Encoding: 192 192 8
Width: 562
Flags: W
LayerCount: 2
Back
Fore
SplineSet
80 0 m 0,0,1
 69 0 69 0 57.5 3 c 128,-1,2
 46 6 46 6 36 12 c 128,-1,3
 26 18 26 18 20 26 c 128,-1,4
 14 34 14 34 14 44 c 0,5,6
 14 50 14 50 15 53 c 2,7,-1
 214 701 l 2,8,9
 220 719 220 719 239 728 c 128,-1,10
 258 737 258 737 281 737 c 256,11,12
 304 737 304 737 323.5 728 c 128,-1,13
 343 719 343 719 349 701 c 2,14,-1
 547 53 l 2,15,16
 549 47 549 47 549 44 c 0,17,18
 549 35 549 35 542.5 27 c 128,-1,19
 536 19 536 19 526.5 13 c 128,-1,20
 517 7 517 7 505 3.5 c 128,-1,21
 493 0 493 0 482 0 c 0,22,23
 469 0 469 0 459.5 5 c 128,-1,24
 450 10 450 10 446 22 c 2,25,-1
 405 164 l 1,26,-1
 158 164 l 1,27,-1
 117 22 l 2,28,29
 113 10 113 10 103.5 5 c 128,-1,30
 94 0 94 0 80 0 c 0,0,1
381 249 m 1,31,-1
 281 592 l 1,32,-1
 181 249 l 1,33,-1
 381 249 l 1,31,-1
194 888 m 2,34,35
 186 892 186 892 182 899.5 c 128,-1,36
 178 907 178 907 178 915 c 0,37,38
 178 929 178 929 187.5 942.5 c 128,-1,39
 197 956 197 956 212 956 c 0,40,41
 215 956 215 956 223 954 c 2,42,-1
 347 891 l 2,43,44
 362 883 362 883 362 865 c 0,45,46
 362 851 362 851 352 837.5 c 128,-1,47
 342 824 342 824 328 824 c 0,48,49
 321 824 321 824 315 827 c 2,50,-1
 194 888 l 2,34,35
EndSplineSet
EndChar
StartChar: Acircumflex
Encoding: 194 194 6
Width: 562
Flags: W
LayerCount: 2
Back
Fore
SplineSet
80 0 m 0,0,1
 69 0 69 0 57.5 3 c 128,-1,2
 46 6 46 6 36 12 c 128,-1,3
 26 18 26 18 20 26 c 128,-1,4
 14 34 14 34 14 44 c 0,5,6
 14 50 14 50 15 53 c 2,7,-1
 214 701 l 2,8,9
 220 719 220 719 239 728 c 128,-1,10
 258 737 258 737 281 737 c 256,11,12
 304 737 304 737 323.5 728 c 128,-1,13
 343 719 343 719 349 701 c 2,14,-1
 547 53 l 2,15,16
 549 47 549 47 549 44 c 0,17,18
 549 35 549 35 542.5 27 c 128,-1,19
 536 19 536 19 526.5 13 c 128,-1,20
 517 7 517 7 505 3.5 c 128,-1,21
 493 0 493 0 482 0 c 0,22,23
 469 0 469 0 459.5 5 c 128,-1,24
 450 10 450 10 446 22 c 2,25,-1
 405 164 l 1,26,-1
 158 164 l 1,27,-1
 117 22 l 2,28,29
 113 10 113 10 103.5 5 c 128,-1,30
 94 0 94 0 80 0 c 0,0,1
381 249 m 1,31,-1
 281 592 l 1,32,-1
 181 249 l 1,33,-1
 381 249 l 1,31,-1
176 832 m 2,34,35
 171 829 171 829 167 829 c 0,36,37
 156 829 156 829 148.5 839.5 c 128,-1,38
 141 850 141 850 141 864 c 0,39,40
 141 873 141 873 145 881.5 c 128,-1,41
 149 890 149 890 159 895 c 2,42,-1
 263 951 l 2,43,44
 273 956 273 956 280 956 c 0,45,46
 289 956 289 956 297 951 c 2,47,-1
 401 896 l 2,48,49
 420 884 420 884 420 863 c 0,50,51
 420 850 420 850 412.5 839.5 c 128,-1,52
 405 829 405 829 394 829 c 0,53,54
 392 829 392 829 389.5 830 c 128,-1,55
 387 831 387 831 384 832 c 2,56,-1
 280 888 l 1,57,-1
 176 832 l 2,34,35
EndSplineSet
EndChar
StartChar: Atilde
Encoding: 195 195 12
Width: 562
Flags: W
LayerCount: 2
Back
Fore
SplineSet
80 0 m 0,0,1
 69 0 69 0 57.5 3 c 128,-1,2
 46 6 46 6 36 12 c 128,-1,3
 26 18 26 18 20 26 c 128,-1,4
 14 34 14 34 14 44 c 0,5,6
 14 50 14 50 15 53 c 2,7,-1
 214 701 l 2,8,9
 220 719 220 719 239 728 c 128,-1,10
 258 737 258 737 281 737 c 256,11,12
 304 737 304 737 323.5 728 c 128,-1,13
 343 719 343 719 349 701 c 2,14,-1
 547 53 l 2,15,16
 549 47 549 47 549 44 c 0,17,18
 549 35 549 35 542.5 27 c 128,-1,19
 536 19 536 19 526.5 13 c 128,-1,20
 517 7 517 7 505 3.5 c 128,-1,21
 493 0 493 0 482 0 c 0,22,23
 469 0 469 0 459.5 5 c 128,-1,24
 450 10 450 10 446 22 c 2,25,-1
 405 164 l 1,26,-1
 158 164 l 1,27,-1
 117 22 l 2,28,29
 113 10 113 10 103.5 5 c 128,-1,30
 94 0 94 0 80 0 c 0,0,1
381 249 m 1,31,-1
 281 592 l 1,32,-1
 181 249 l 1,33,-1
 381 249 l 1,31,-1
222 874 m 0,34,35
 206 874 206 874 194.5 870 c 128,-1,36
 183 866 183 866 174 860.5 c 128,-1,37
 165 855 165 855 158 851 c 128,-1,38
 151 847 151 847 144 847 c 0,39,40
 136 847 136 847 130.5 851 c 128,-1,41
 125 855 125 855 122 861 c 128,-1,42
 119 867 119 867 117.5 873 c 128,-1,43
 116 879 116 879 116 883 c 0,44,45
 116 902 116 902 126 914.5 c 128,-1,46
 136 927 136 927 150 934.5 c 128,-1,47
 164 942 164 942 178.5 944.5 c 128,-1,48
 193 947 193 947 203 947 c 0,49,50
 224 947 224 947 240.5 942 c 128,-1,51
 257 937 257 937 272.5 931.5 c 128,-1,52
 288 926 288 926 304.5 921 c 128,-1,53
 321 916 321 916 341 916 c 0,54,55
 357 916 357 916 368.5 920 c 128,-1,56
 380 924 380 924 388.5 928.5 c 128,-1,57
 397 933 397 933 403.5 937 c 128,-1,58
 410 941 410 941 418 941 c 0,59,60
 434 941 434 941 440 927.5 c 128,-1,61
 446 914 446 914 446 907 c 0,62,63
 446 886 446 886 436 873.5 c 128,-1,64
 426 861 426 861 412.5 854.5 c 128,-1,65
 399 848 399 848 384.5 845.5 c 128,-1,66
 370 843 370 843 361 843 c 0,67,68
 338 843 338 843 321 848 c 128,-1,69
 304 853 304 853 288.5 858.5 c 128,-1,70
 273 864 273 864 257 869 c 128,-1,71
 241 874 241 874 222 874 c 0,34,35
EndSplineSet
EndChar
StartChar: Adieresis
Encoding: 196 196 7
Width: 562
Flags: W
LayerCount: 2
Back
Fore
SplineSet
80 0 m 0,0,1
 69 0 69 0 57.5 3 c 128,-1,2
 46 6 46 6 36 12 c 128,-1,3
 26 18 26 18 20 26 c 128,-1,4
 14 34 14 34 14 44 c 0,5,6
 14 50 14 50 15 53 c 2,7,-1
 214 701 l 2,8,9
 220 719 220 719 239 728 c 128,-1,10
 258 737 258 737 281 737 c 256,11,12
 304 737 304 737 323.5 728 c 128,-1,13
 343 719 343 719 349 701 c 2,14,-1
 547 53 l 2,15,16
 549 47 549 47 549 44 c 0,17,18
 549 35 549 35 542.5 27 c 128,-1,19
 536 19 536 19 526.5 13 c 128,-1,20
 517 7 517 7 505 3.5 c 128,-1,21
 493 0 493 0 482 0 c 0,22,23
 469 0 469 0 459.5 5 c 128,-1,24
 450 10 450 10 446 22 c 2,25,-1
 405 164 l 1,26,-1
 158 164 l 1,27,-1
 117 22 l 2,28,29
 113 10 113 10 103.5 5 c 128,-1,30
 94 0 94 0 80 0 c 0,0,1
381 249 m 1,31,-1
 281 592 l 1,32,-1
 181 249 l 1,33,-1
 381 249 l 1,31,-1
212 923 m 0,34,35
 231 923 231 923 243.5 909.5 c 128,-1,36
 256 896 256 896 256 877 c 256,37,38
 256 858 256 858 243.5 844 c 128,-1,39
 231 830 231 830 212 830 c 0,40,41
 192 830 192 830 179 844 c 128,-1,42
 166 858 166 858 166 877 c 256,43,44
 166 896 166 896 179 909.5 c 128,-1,45
 192 923 192 923 212 923 c 0,34,35
351 923 m 256,46,47
 370 923 370 923 383 909.5 c 128,-1,48
 396 896 396 896 396 877 c 256,49,50
 396 858 396 858 383 844 c 128,-1,51
 370 830 370 830 351 830 c 256,52,53
 332 830 332 830 319 844 c 128,-1,54
 306 858 306 858 306 877 c 256,55,56
 306 896 306 896 319 909.5 c 128,-1,57
 332 923 332 923 351 923 c 256,46,47
EndSplineSet
EndChar
StartChar: Aring
Encoding: 197 197 11
Width: 562
Flags: W
LayerCount: 2
Back
Fore
SplineSet
80 0 m 0,0,1
 69 0 69 0 57.5 3 c 128,-1,2
 46 6 46 6 36 12 c 128,-1,3
 26 18 26 18 20 26 c 128,-1,4
 14 34 14 34 14 44 c 0,5,6
 14 50 14 50 15 53 c 2,7,-1
 214 701 l 2,8,9
 220 719 220 719 239 728 c 128,-1,10
 258 737 258 737 281 737 c 256,11,12
 304 737 304 737 323.5 728 c 128,-1,13
 343 719 343 719 349 701 c 2,14,-1
 547 53 l 2,15,16
 549 47 549 47 549 44 c 0,17,18
 549 35 549 35 542.5 27 c 128,-1,19
 536 19 536 19 526.5 13 c 128,-1,20
 517 7 517 7 505 3.5 c 128,-1,21
 493 0 493 0 482 0 c 0,22,23
 469 0 469 0 459.5 5 c 128,-1,24
 450 10 450 10 446 22 c 2,25,-1
 405 164 l 1,26,-1
 158 164 l 1,27,-1
 117 22 l 2,28,29
 113 10 113 10 103.5 5 c 128,-1,30
 94 0 94 0 80 0 c 0,0,1
381 249 m 1,31,-1
 281 592 l 1,32,-1
 181 249 l 1,33,-1
 381 249 l 1,31,-1
280 1016 m 0,34,35
 299 1016 299 1016 316.5 1008 c 128,-1,36
 334 1000 334 1000 347.5 986.5 c 128,-1,37
 361 973 361 973 369 955.5 c 128,-1,38
 377 938 377 938 377 919 c 0,39,40
 377 899 377 899 369 881.5 c 128,-1,41
 361 864 361 864 347.5 850 c 128,-1,42
 334 836 334 836 316.5 828 c 128,-1,43
 299 820 299 820 280 820 c 0,44,45
 260 820 260 820 243 828 c 128,-1,46
 226 836 226 836 213 850 c 128,-1,47
 200 864 200 864 192.5 881.5 c 128,-1,48
 185 899 185 899 185 919 c 0,49,50
 185 938 185 938 192.5 955.5 c 128,-1,51
 200 973 200 973 212.5 986.5 c 128,-1,52
 225 1000 225 1000 242.5 1008 c 128,-1,53
 260 1016 260 1016 280 1016 c 0,34,35
331 918 m 0,54,55
 331 937 331 937 316 952.5 c 128,-1,56
 301 968 301 968 281 968 c 0,57,58
 259 968 259 968 244 952 c 128,-1,59
 229 936 229 936 229 918 c 0,60,61
 229 898 229 898 244 881 c 128,-1,62
 259 864 259 864 281 864 c 0,63,64
 301 864 301 864 316 881 c 128,-1,65
 331 898 331 898 331 918 c 0,54,55
EndSplineSet
EndChar
StartChar: AE
Encoding: 198 198 2
Width: 761
Flags: W
LayerCount: 2
Back
Fore
SplineSet
476 408 m 1,0,-1
 605 408 l 2,1,2
 622 408 622 408 631 395 c 128,-1,3
 640 382 640 382 640 365 c 0,4,5
 640 351 640 351 631.5 337.5 c 128,-1,6
 623 324 623 324 605 324 c 2,7,-1
 476 324 l 1,8,-1
 476 94 l 1,9,-1
 706 94 l 2,10,11
 723 94 723 94 732 80 c 128,-1,12
 741 66 741 66 741 46 c 0,13,14
 741 29 741 29 732.5 14.5 c 128,-1,15
 724 0 724 0 706 0 c 2,16,-1
 417 0 l 2,17,18
 399 0 399 0 384.5 9 c 128,-1,19
 370 18 370 18 370 35 c 2,20,-1
 370 324 l 1,21,-1
 163 324 l 1,22,-1
 163 40 l 2,23,24
 163 23 163 23 154 11.5 c 128,-1,25
 145 0 145 0 110 0 c 0,26,27
 84 0 84 0 73.5 11.5 c 128,-1,28
 63 23 63 23 63 40 c 2,29,-1
 63 508 l 2,30,31
 63 569 63 569 80 611.5 c 128,-1,32
 97 654 97 654 127 680.5 c 128,-1,33
 157 707 157 707 197 719 c 128,-1,34
 237 731 237 731 283 731 c 2,35,-1
 706 731 l 2,36,37
 724 731 724 731 732.5 716.5 c 128,-1,38
 741 702 741 702 741 685 c 0,39,40
 741 665 741 665 732 651 c 128,-1,41
 723 637 723 637 706 637 c 2,42,-1
 476 637 l 1,43,-1
 476 408 l 1,0,-1
163 408 m 1,44,-1
 370 408 l 1,45,-1
 370 637 l 1,46,-1
 283 637 l 2,47,48
 226 637 226 637 194.5 605.5 c 128,-1,49
 163 574 163 574 163 508 c 2,50,-1
 163 408 l 1,44,-1
EndSplineSet
EndChar
StartChar: Ccedilla
Encoding: 199 199 18
Width: 540
Flags: W
LayerCount: 2
Back
Fore
SplineSet
401 530 m 0,0,1
 400 543 400 543 396 561.5 c 128,-1,2
 392 580 392 580 380 596.5 c 128,-1,3
 368 613 368 613 345.5 625 c 128,-1,4
 323 637 323 637 284 637 c 0,5,6
 226 637 226 637 195 605.5 c 128,-1,7
 164 574 164 574 164 508 c 2,8,-1
 164 217 l 2,9,10
 164 151 164 151 195 119.5 c 128,-1,11
 226 88 226 88 286 88 c 0,12,13
 324 88 324 88 346.5 99.5 c 128,-1,14
 369 111 369 111 380.5 128 c 128,-1,15
 392 145 392 145 395.5 164.5 c 128,-1,16
 399 184 399 184 401 201 c 0,17,18
 403 221 403 221 417 228.5 c 128,-1,19
 431 236 431 236 453 236 c 0,20,21
 481 236 481 236 494 225 c 128,-1,22
 507 214 507 214 507 181 c 0,23,24
 507 143 507 143 493.5 111.5 c 128,-1,25
 480 80 480 80 455 55.5 c 128,-1,26
 430 31 430 31 394.5 15.5 c 128,-1,27
 359 0 359 0 315 -4 c 1,28,-1
 301 -55 l 1,29,30
 352 -57 352 -57 375 -79 c 128,-1,31
 398 -101 398 -101 398 -130 c 0,32,33
 398 -144 398 -144 393 -158.5 c 128,-1,34
 388 -173 388 -173 376 -185.5 c 128,-1,35
 364 -198 364 -198 345 -206 c 128,-1,36
 326 -214 326 -214 299 -214 c 0,37,38
 287 -214 287 -214 273 -212.5 c 128,-1,39
 259 -211 259 -211 246.5 -207.5 c 128,-1,40
 234 -204 234 -204 225.5 -198.5 c 128,-1,41
 217 -193 217 -193 217 -186 c 0,42,43
 217 -183 217 -183 218.5 -178 c 128,-1,44
 220 -173 220 -173 222.5 -167.5 c 128,-1,45
 225 -162 225 -162 228.5 -158 c 128,-1,46
 232 -154 232 -154 237 -154 c 0,47,48
 245 -154 245 -154 257.5 -161 c 128,-1,49
 270 -168 270 -168 294 -168 c 0,50,51
 320 -168 320 -168 332 -158 c 128,-1,52
 344 -148 344 -148 344 -132 c 0,53,54
 344 -99 344 -99 290 -94 c 2,55,-1
 242 -89 l 1,56,-1
 264 -5 l 1,57,58
 221 -3 221 -3 183.5 10 c 128,-1,59
 146 23 146 23 118 49.5 c 128,-1,60
 90 76 90 76 74 117.5 c 128,-1,61
 58 159 58 159 58 217 c 2,62,-1
 58 508 l 2,63,64
 58 569 58 569 75.5 611.5 c 128,-1,65
 93 654 93 654 123.5 680.5 c 128,-1,66
 154 707 154 707 194.5 719 c 128,-1,67
 235 731 235 731 280 731 c 0,68,69
 331 731 331 731 373 717.5 c 128,-1,70
 415 704 415 704 445 680 c 128,-1,71
 475 656 475 656 491 623 c 128,-1,72
 507 590 507 590 507 550 c 0,73,74
 507 516 507 516 494 505.5 c 128,-1,75
 481 495 481 495 454 495 c 0,76,77
 430 495 430 495 416 503.5 c 128,-1,78
 402 512 402 512 401 530 c 0,0,1
EndSplineSet
EndChar
StartChar: Egrave
Encoding: 200 200 32
Width: 523
Flags: W
LayerCount: 2
Back
Fore
SplineSet
172 408 m 1,0,-1
 326 408 l 2,1,2
 343 408 343 408 352 395 c 128,-1,3
 361 382 361 382 361 365 c 0,4,5
 361 351 361 351 352.5 337.5 c 128,-1,6
 344 324 344 324 326 324 c 2,7,-1
 172 324 l 1,8,-1
 172 94 l 1,9,-1
 469 94 l 2,10,11
 486 94 486 94 495 80 c 128,-1,12
 504 66 504 66 504 46 c 0,13,14
 504 29 504 29 495.5 14.5 c 128,-1,15
 487 0 487 0 469 0 c 2,16,-1
 113 0 l 2,17,18
 96 0 96 0 81 9 c 128,-1,19
 66 18 66 18 66 35 c 2,20,-1
 66 696 l 2,21,22
 66 713 66 713 81 722 c 128,-1,23
 96 731 96 731 113 731 c 2,24,-1
 469 731 l 2,25,26
 487 731 487 731 495.5 716.5 c 128,-1,27
 504 702 504 702 504 685 c 0,28,29
 504 665 504 665 495 651 c 128,-1,30
 486 637 486 637 469 637 c 2,31,-1
 172 637 l 1,32,-1
 172 408 l 1,0,-1
205 888 m 2,33,34
 197 892 197 892 193 899.5 c 128,-1,35
 189 907 189 907 189 915 c 0,36,37
 189 929 189 929 198.5 942.5 c 128,-1,38
 208 956 208 956 223 956 c 0,39,40
 226 956 226 956 234 954 c 2,41,-1
 358 891 l 2,42,43
 373 883 373 883 373 865 c 0,44,45
 373 851 373 851 363 837.5 c 128,-1,46
 353 824 353 824 339 824 c 0,47,48
 332 824 332 824 326 827 c 2,49,-1
 205 888 l 2,33,34
EndSplineSet
EndChar
StartChar: Eacute
Encoding: 201 201 26
Width: 523
Flags: W
LayerCount: 2
Back
Fore
SplineSet
254 827 m 2,0,1
 248 824 248 824 242 824 c 0,2,3
 227 824 227 824 217 837.5 c 128,-1,4
 207 851 207 851 207 865 c 0,5,6
 207 883 207 883 222 891 c 2,7,-1
 346 954 l 2,8,9
 354 956 354 956 357 956 c 0,10,11
 372 956 372 956 381.5 942.5 c 128,-1,12
 391 929 391 929 391 915 c 0,13,14
 391 907 391 907 387.5 899.5 c 128,-1,15
 384 892 384 892 375 888 c 2,16,-1
 254 827 l 2,0,1
172 408 m 1,17,-1
 326 408 l 2,18,19
 343 408 343 408 352 395 c 128,-1,20
 361 382 361 382 361 365 c 0,21,22
 361 351 361 351 352.5 337.5 c 128,-1,23
 344 324 344 324 326 324 c 2,24,-1
 172 324 l 1,25,-1
 172 94 l 1,26,-1
 469 94 l 2,27,28
 486 94 486 94 495 80 c 128,-1,29
 504 66 504 66 504 46 c 0,30,31
 504 29 504 29 495.5 14.5 c 128,-1,32
 487 0 487 0 469 0 c 2,33,-1
 113 0 l 2,34,35
 96 0 96 0 81 9 c 128,-1,36
 66 18 66 18 66 35 c 2,37,-1
 66 696 l 2,38,39
 66 713 66 713 81 722 c 128,-1,40
 96 731 96 731 113 731 c 2,41,-1
 469 731 l 2,42,43
 487 731 487 731 495.5 716.5 c 128,-1,44
 504 702 504 702 504 685 c 0,45,46
 504 665 504 665 495 651 c 128,-1,47
 486 637 486 637 469 637 c 2,48,-1
 172 637 l 1,49,-1
 172 408 l 1,17,-1
EndSplineSet
EndChar
StartChar: Ecircumflex
Encoding: 202 202 29
Width: 523
Flags: W
LayerCount: 2
Back
Fore
SplineSet
186 832 m 2,0,1
 181 829 181 829 177 829 c 0,2,3
 166 829 166 829 158.5 839.5 c 128,-1,4
 151 850 151 850 151 864 c 0,5,6
 151 873 151 873 155 881.5 c 128,-1,7
 159 890 159 890 169 895 c 2,8,-1
 273 951 l 2,9,10
 283 956 283 956 290 956 c 0,11,12
 299 956 299 956 307 951 c 2,13,-1
 411 896 l 2,14,15
 430 884 430 884 430 863 c 0,16,17
 430 850 430 850 422.5 839.5 c 128,-1,18
 415 829 415 829 404 829 c 0,19,20
 402 829 402 829 399.5 830 c 128,-1,21
 397 831 397 831 394 832 c 2,22,-1
 290 888 l 1,23,-1
 186 832 l 2,0,1
172 408 m 1,24,-1
 326 408 l 2,25,26
 343 408 343 408 352 395 c 128,-1,27
 361 382 361 382 361 365 c 0,28,29
 361 351 361 351 352.5 337.5 c 128,-1,30
 344 324 344 324 326 324 c 2,31,-1
 172 324 l 1,32,-1
 172 94 l 1,33,-1
 469 94 l 2,34,35
 486 94 486 94 495 80 c 128,-1,36
 504 66 504 66 504 46 c 0,37,38
 504 29 504 29 495.5 14.5 c 128,-1,39
 487 0 487 0 469 0 c 2,40,-1
 113 0 l 2,41,42
 96 0 96 0 81 9 c 128,-1,43
 66 18 66 18 66 35 c 2,44,-1
 66 696 l 2,45,46
 66 713 66 713 81 722 c 128,-1,47
 96 731 96 731 113 731 c 2,48,-1
 469 731 l 2,49,50
 487 731 487 731 495.5 716.5 c 128,-1,51
 504 702 504 702 504 685 c 0,52,53
 504 665 504 665 495 651 c 128,-1,54
 486 637 486 637 469 637 c 2,55,-1
 172 637 l 1,56,-1
 172 408 l 1,24,-1
EndSplineSet
EndChar
StartChar: Edieresis
Encoding: 203 203 30
Width: 523
Flags: W
LayerCount: 2
Back
Fore
SplineSet
217 923 m 0,0,1
 236 923 236 923 248.5 909.5 c 128,-1,2
 261 896 261 896 261 877 c 256,3,4
 261 858 261 858 248.5 844 c 128,-1,5
 236 830 236 830 217 830 c 0,6,7
 197 830 197 830 184 844 c 128,-1,8
 171 858 171 858 171 877 c 256,9,10
 171 896 171 896 184 909.5 c 128,-1,11
 197 923 197 923 217 923 c 0,0,1
356 923 m 256,12,13
 375 923 375 923 388 909.5 c 128,-1,14
 401 896 401 896 401 877 c 256,15,16
 401 858 401 858 388 844 c 128,-1,17
 375 830 375 830 356 830 c 256,18,19
 337 830 337 830 324 844 c 128,-1,20
 311 858 311 858 311 877 c 256,21,22
 311 896 311 896 324 909.5 c 128,-1,23
 337 923 337 923 356 923 c 256,12,13
172 408 m 1,24,-1
 326 408 l 2,25,26
 343 408 343 408 352 395 c 128,-1,27
 361 382 361 382 361 365 c 0,28,29
 361 351 361 351 352.5 337.5 c 128,-1,30
 344 324 344 324 326 324 c 2,31,-1
 172 324 l 1,32,-1
 172 94 l 1,33,-1
 469 94 l 2,34,35
 486 94 486 94 495 80 c 128,-1,36
 504 66 504 66 504 46 c 0,37,38
 504 29 504 29 495.5 14.5 c 128,-1,39
 487 0 487 0 469 0 c 2,40,-1
 113 0 l 2,41,42
 96 0 96 0 81 9 c 128,-1,43
 66 18 66 18 66 35 c 2,44,-1
 66 696 l 2,45,46
 66 713 66 713 81 722 c 128,-1,47
 96 731 96 731 113 731 c 2,48,-1
 469 731 l 2,49,50
 487 731 487 731 495.5 716.5 c 128,-1,51
 504 702 504 702 504 685 c 0,52,53
 504 665 504 665 495 651 c 128,-1,54
 486 637 486 637 469 637 c 2,55,-1
 172 637 l 1,56,-1
 172 408 l 1,24,-1
EndSplineSet
EndChar
StartChar: Igrave
Encoding: 204 204 54
Width: 238
Flags: W
LayerCount: 2
Back
Fore
SplineSet
66 697 m 2,0,1
 66 715 66 715 82.5 723 c 128,-1,2
 99 731 99 731 119 731 c 256,3,4
 139 731 139 731 155.5 723 c 128,-1,5
 172 715 172 715 172 697 c 2,6,-1
 172 35 l 2,7,8
 172 18 172 18 155.5 9 c 128,-1,9
 139 0 139 0 119 0 c 256,10,11
 99 0 99 0 82.5 9 c 128,-1,12
 66 18 66 18 66 35 c 2,13,-1
 66 697 l 2,0,1
38 888 m 2,14,15
 30 892 30 892 26 899.5 c 128,-1,16
 22 907 22 907 22 915 c 0,17,18
 22 929 22 929 31.5 942.5 c 128,-1,19
 41 956 41 956 56 956 c 0,20,21
 59 956 59 956 67 954 c 2,22,-1
 191 891 l 2,23,24
 206 883 206 883 206 865 c 0,25,26
 206 851 206 851 196 837.5 c 128,-1,27
 186 824 186 824 172 824 c 0,28,29
 165 824 165 824 159 827 c 2,30,-1
 38 888 l 2,14,15
EndSplineSet
EndChar
StartChar: Iacute
Encoding: 205 205 49
Width: 238
Flags: W
LayerCount: 2
Back
Fore
SplineSet
66 697 m 2,0,1
 66 715 66 715 82.5 723 c 128,-1,2
 99 731 99 731 119 731 c 256,3,4
 139 731 139 731 155.5 723 c 128,-1,5
 172 715 172 715 172 697 c 2,6,-1
 172 35 l 2,7,8
 172 18 172 18 155.5 9 c 128,-1,9
 139 0 139 0 119 0 c 256,10,11
 99 0 99 0 82.5 9 c 128,-1,12
 66 18 66 18 66 35 c 2,13,-1
 66 697 l 2,0,1
79 827 m 2,14,15
 73 824 73 824 67 824 c 0,16,17
 52 824 52 824 42 837.5 c 128,-1,18
 32 851 32 851 32 865 c 0,19,20
 32 883 32 883 47 891 c 2,21,-1
 171 954 l 2,22,23
 179 956 179 956 182 956 c 0,24,25
 197 956 197 956 206.5 942.5 c 128,-1,26
 216 929 216 929 216 915 c 0,27,28
 216 907 216 907 212.5 899.5 c 128,-1,29
 209 892 209 892 200 888 c 2,30,-1
 79 827 l 2,14,15
EndSplineSet
EndChar
StartChar: Icircumflex
Encoding: 206 206 51
Width: 238
Flags: W
LayerCount: 2
Back
Fore
SplineSet
66 697 m 2,0,1
 66 715 66 715 82.5 723 c 128,-1,2
 99 731 99 731 119 731 c 256,3,4
 139 731 139 731 155.5 723 c 128,-1,5
 172 715 172 715 172 697 c 2,6,-1
 172 35 l 2,7,8
 172 18 172 18 155.5 9 c 128,-1,9
 139 0 139 0 119 0 c 256,10,11
 99 0 99 0 82.5 9 c 128,-1,12
 66 18 66 18 66 35 c 2,13,-1
 66 697 l 2,0,1
16 832 m 2,14,15
 11 829 11 829 7 829 c 0,16,17
 -4 829 -4 829 -11.5 839.5 c 128,-1,18
 -19 850 -19 850 -19 864 c 0,19,20
 -19 873 -19 873 -15 881.5 c 128,-1,21
 -11 890 -11 890 -1 895 c 2,22,-1
 103 951 l 2,23,24
 113 956 113 956 120 956 c 0,25,26
 129 956 129 956 137 951 c 2,27,-1
 241 896 l 2,28,29
 260 884 260 884 260 863 c 0,30,31
 260 850 260 850 252.5 839.5 c 128,-1,32
 245 829 245 829 234 829 c 0,33,34
 232 829 232 829 229.5 830 c 128,-1,35
 227 831 227 831 224 832 c 2,36,-1
 120 888 l 1,37,-1
 16 832 l 2,14,15
EndSplineSet
EndChar
StartChar: Idieresis
Encoding: 207 207 52
Width: 238
Flags: W
LayerCount: 2
Back
Fore
SplineSet
66 697 m 2,0,1
 66 715 66 715 82.5 723 c 128,-1,2
 99 731 99 731 119 731 c 256,3,4
 139 731 139 731 155.5 723 c 128,-1,5
 172 715 172 715 172 697 c 2,6,-1
 172 35 l 2,7,8
 172 18 172 18 155.5 9 c 128,-1,9
 139 0 139 0 119 0 c 256,10,11
 99 0 99 0 82.5 9 c 128,-1,12
 66 18 66 18 66 35 c 2,13,-1
 66 697 l 2,0,1
51 923 m 0,14,15
 70 923 70 923 82.5 909.5 c 128,-1,16
 95 896 95 896 95 877 c 256,17,18
 95 858 95 858 82.5 844 c 128,-1,19
 70 830 70 830 51 830 c 0,20,21
 31 830 31 830 18 844 c 128,-1,22
 5 858 5 858 5 877 c 256,23,24
 5 896 5 896 18 909.5 c 128,-1,25
 31 923 31 923 51 923 c 0,14,15
190 923 m 256,26,27
 209 923 209 923 222 909.5 c 128,-1,28
 235 896 235 896 235 877 c 256,29,30
 235 858 235 858 222 844 c 128,-1,31
 209 830 209 830 190 830 c 256,32,33
 171 830 171 830 158 844 c 128,-1,34
 145 858 145 858 145 877 c 256,35,36
 145 896 145 896 158 909.5 c 128,-1,37
 171 923 171 923 190 923 c 256,26,27
EndSplineSet
EndChar
StartChar: Eth
Encoding: 208 208 36
Width: 581
Flags: W
LayerCount: 2
Back
Fore
SplineSet
298 731 m 2,0,1
 346 731 346 731 387 719 c 128,-1,2
 428 707 428 707 458 680.5 c 128,-1,3
 488 654 488 654 505.5 611.5 c 128,-1,4
 523 569 523 569 523 508 c 2,5,-1
 523 223 l 2,6,7
 523 162 523 162 505.5 119.5 c 128,-1,8
 488 77 488 77 458 50.5 c 128,-1,9
 428 24 428 24 387 12 c 128,-1,10
 346 0 346 0 298 0 c 2,11,-1
 121 0 l 2,12,13
 100 0 100 0 87 10 c 128,-1,14
 74 20 74 20 74 34 c 2,15,-1
 74 344 l 1,16,-1
 25 344 l 2,17,18
 11 344 11 344 3.5 355.5 c 128,-1,19
 -4 367 -4 367 -4 383 c 0,20,21
 -4 398 -4 398 3.5 410 c 128,-1,22
 11 422 11 422 25 422 c 2,23,-1
 74 422 l 1,24,-1
 74 697 l 2,25,26
 74 711 74 711 87 721 c 128,-1,27
 100 731 100 731 121 731 c 2,28,-1
 298 731 l 2,0,1
180 637 m 1,29,-1
 180 422 l 1,30,-1
 271 422 l 2,31,32
 285 422 285 422 293 410 c 128,-1,33
 301 398 301 398 301 383 c 0,34,35
 301 367 301 367 293 355.5 c 128,-1,36
 285 344 285 344 271 344 c 2,37,-1
 180 344 l 1,38,-1
 180 94 l 1,39,-1
 298 94 l 2,40,41
 355 94 355 94 386 125.5 c 128,-1,42
 417 157 417 157 417 223 c 2,43,-1
 417 508 l 2,44,45
 417 574 417 574 386 605.5 c 128,-1,46
 355 637 355 637 298 637 c 2,47,-1
 180 637 l 1,29,-1
EndSplineSet
EndChar
StartChar: Ntilde
Encoding: 209 209 73
Width: 593
Flags: W
LayerCount: 2
Back
Fore
SplineSet
474 0 m 256,0,1
 454 0 454 0 438 9.5 c 128,-1,2
 422 19 422 19 411 39 c 2,3,-1
 172 494 l 1,4,-1
 172 35 l 2,5,6
 172 18 172 18 155.5 9 c 128,-1,7
 139 0 139 0 119 0 c 256,8,9
 99 0 99 0 82.5 9 c 128,-1,10
 66 18 66 18 66 35 c 2,11,-1
 66 696 l 2,12,13
 66 715 66 715 82.5 723 c 128,-1,14
 99 731 99 731 119 731 c 0,15,16
 148 731 148 731 164.5 718.5 c 128,-1,17
 181 706 181 706 199 671 c 2,18,-1
 421 238 l 1,19,-1
 421 697 l 2,20,21
 421 715 421 715 437.5 723 c 128,-1,22
 454 731 454 731 474 731 c 256,23,24
 494 731 494 731 510.5 723 c 128,-1,25
 527 715 527 715 527 697 c 2,26,-1
 527 35 l 2,27,28
 527 18 527 18 510.5 9 c 128,-1,29
 494 0 494 0 474 0 c 256,0,1
232 874 m 0,30,31
 216 874 216 874 204.5 870 c 128,-1,32
 193 866 193 866 184 860.5 c 128,-1,33
 175 855 175 855 168 851 c 128,-1,34
 161 847 161 847 154 847 c 0,35,36
 146 847 146 847 140.5 851 c 128,-1,37
 135 855 135 855 132 861 c 128,-1,38
 129 867 129 867 127.5 873 c 128,-1,39
 126 879 126 879 126 883 c 0,40,41
 126 902 126 902 136 914.5 c 128,-1,42
 146 927 146 927 160 934.5 c 128,-1,43
 174 942 174 942 188.5 944.5 c 128,-1,44
 203 947 203 947 213 947 c 0,45,46
 234 947 234 947 250.5 942 c 128,-1,47
 267 937 267 937 282.5 931.5 c 128,-1,48
 298 926 298 926 314.5 921 c 128,-1,49
 331 916 331 916 351 916 c 0,50,51
 367 916 367 916 378.5 920 c 128,-1,52
 390 924 390 924 398.5 928.5 c 128,-1,53
 407 933 407 933 413.5 937 c 128,-1,54
 420 941 420 941 428 941 c 0,55,56
 444 941 444 941 450 927.5 c 128,-1,57
 456 914 456 914 456 907 c 0,58,59
 456 886 456 886 446 873.5 c 128,-1,60
 436 861 436 861 422.5 854.5 c 128,-1,61
 409 848 409 848 394.5 845.5 c 128,-1,62
 380 843 380 843 371 843 c 0,63,64
 348 843 348 843 331 848 c 128,-1,65
 314 853 314 853 298.5 858.5 c 128,-1,66
 283 864 283 864 267 869 c 128,-1,67
 251 874 251 874 232 874 c 0,30,31
EndSplineSet
EndChar
StartChar: Ograve
Encoding: 210 210 80
Width: 566
Flags: W
LayerCount: 2
Back
Fore
SplineSet
283 -6 m 0,0,1
 235 -6 235 -6 194 6 c 128,-1,2
 153 18 153 18 123 44.5 c 128,-1,3
 93 71 93 71 76 113.5 c 128,-1,4
 59 156 59 156 59 217 c 2,5,-1
 59 508 l 2,6,7
 59 569 59 569 76 611.5 c 128,-1,8
 93 654 93 654 123 680.5 c 128,-1,9
 153 707 153 707 194 719 c 128,-1,10
 235 731 235 731 283 731 c 0,11,12
 330 731 330 731 371 719 c 128,-1,13
 412 707 412 707 442.5 680.5 c 128,-1,14
 473 654 473 654 490.5 611.5 c 128,-1,15
 508 569 508 569 508 508 c 2,16,-1
 508 217 l 2,17,18
 508 156 508 156 490.5 113.5 c 128,-1,19
 473 71 473 71 442.5 44.5 c 128,-1,20
 412 18 412 18 371 6 c 128,-1,21
 330 -6 330 -6 283 -6 c 0,0,1
402 508 m 2,22,23
 402 574 402 574 370.5 605.5 c 128,-1,24
 339 637 339 637 283 637 c 0,25,26
 226 637 226 637 195.5 605.5 c 128,-1,27
 165 574 165 574 165 508 c 2,28,-1
 165 217 l 2,29,30
 165 151 165 151 195.5 119.5 c 128,-1,31
 226 88 226 88 283 88 c 0,32,33
 339 88 339 88 370.5 119.5 c 128,-1,34
 402 151 402 151 402 217 c 2,35,-1
 402 508 l 2,22,23
198 888 m 2,36,37
 190 892 190 892 186 899.5 c 128,-1,38
 182 907 182 907 182 915 c 0,39,40
 182 929 182 929 191.5 942.5 c 128,-1,41
 201 956 201 956 216 956 c 0,42,43
 219 956 219 956 227 954 c 2,44,-1
 351 891 l 2,45,46
 366 883 366 883 366 865 c 0,47,48
 366 851 366 851 356 837.5 c 128,-1,49
 346 824 346 824 332 824 c 0,50,51
 325 824 325 824 319 827 c 2,52,-1
 198 888 l 2,36,37
EndSplineSet
EndChar
StartChar: Oacute
Encoding: 211 211 76
Width: 566
Flags: W
LayerCount: 2
Back
Fore
SplineSet
264 827 m 2,0,1
 258 824 258 824 252 824 c 0,2,3
 237 824 237 824 227 837.5 c 128,-1,4
 217 851 217 851 217 865 c 0,5,6
 217 883 217 883 232 891 c 2,7,-1
 356 954 l 2,8,9
 364 956 364 956 367 956 c 0,10,11
 382 956 382 956 391.5 942.5 c 128,-1,12
 401 929 401 929 401 915 c 0,13,14
 401 907 401 907 397.5 899.5 c 128,-1,15
 394 892 394 892 385 888 c 2,16,-1
 264 827 l 2,0,1
283 -6 m 0,17,18
 235 -6 235 -6 194 6 c 128,-1,19
 153 18 153 18 123 44.5 c 128,-1,20
 93 71 93 71 76 113.5 c 128,-1,21
 59 156 59 156 59 217 c 2,22,-1
 59 508 l 2,23,24
 59 569 59 569 76 611.5 c 128,-1,25
 93 654 93 654 123 680.5 c 128,-1,26
 153 707 153 707 194 719 c 128,-1,27
 235 731 235 731 283 731 c 0,28,29
 330 731 330 731 371 719 c 128,-1,30
 412 707 412 707 442.5 680.5 c 128,-1,31
 473 654 473 654 490.5 611.5 c 128,-1,32
 508 569 508 569 508 508 c 2,33,-1
 508 217 l 2,34,35
 508 156 508 156 490.5 113.5 c 128,-1,36
 473 71 473 71 442.5 44.5 c 128,-1,37
 412 18 412 18 371 6 c 128,-1,38
 330 -6 330 -6 283 -6 c 0,17,18
402 508 m 2,39,40
 402 574 402 574 370.5 605.5 c 128,-1,41
 339 637 339 637 283 637 c 0,42,43
 226 637 226 637 195.5 605.5 c 128,-1,44
 165 574 165 574 165 508 c 2,45,-1
 165 217 l 2,46,47
 165 151 165 151 195.5 119.5 c 128,-1,48
 226 88 226 88 283 88 c 0,49,50
 339 88 339 88 370.5 119.5 c 128,-1,51
 402 151 402 151 402 217 c 2,52,-1
 402 508 l 2,39,40
EndSplineSet
EndChar
StartChar: Ocircumflex
Encoding: 212 212 78
Width: 566
Flags: W
LayerCount: 2
Back
Fore
SplineSet
178 832 m 2,0,1
 173 829 173 829 169 829 c 0,2,3
 158 829 158 829 150.5 839.5 c 128,-1,4
 143 850 143 850 143 864 c 0,5,6
 143 873 143 873 147 881.5 c 128,-1,7
 151 890 151 890 161 895 c 2,8,-1
 265 951 l 2,9,10
 275 956 275 956 282 956 c 0,11,12
 291 956 291 956 299 951 c 2,13,-1
 403 896 l 2,14,15
 422 884 422 884 422 863 c 0,16,17
 422 850 422 850 414.5 839.5 c 128,-1,18
 407 829 407 829 396 829 c 0,19,20
 394 829 394 829 391.5 830 c 128,-1,21
 389 831 389 831 386 832 c 2,22,-1
 282 888 l 1,23,-1
 178 832 l 2,0,1
283 -6 m 0,24,25
 235 -6 235 -6 194 6 c 128,-1,26
 153 18 153 18 123 44.5 c 128,-1,27
 93 71 93 71 76 113.5 c 128,-1,28
 59 156 59 156 59 217 c 2,29,-1
 59 508 l 2,30,31
 59 569 59 569 76 611.5 c 128,-1,32
 93 654 93 654 123 680.5 c 128,-1,33
 153 707 153 707 194 719 c 128,-1,34
 235 731 235 731 283 731 c 0,35,36
 330 731 330 731 371 719 c 128,-1,37
 412 707 412 707 442.5 680.5 c 128,-1,38
 473 654 473 654 490.5 611.5 c 128,-1,39
 508 569 508 569 508 508 c 2,40,-1
 508 217 l 2,41,42
 508 156 508 156 490.5 113.5 c 128,-1,43
 473 71 473 71 442.5 44.5 c 128,-1,44
 412 18 412 18 371 6 c 128,-1,45
 330 -6 330 -6 283 -6 c 0,24,25
402 508 m 2,46,47
 402 574 402 574 370.5 605.5 c 128,-1,48
 339 637 339 637 283 637 c 0,49,50
 226 637 226 637 195.5 605.5 c 128,-1,51
 165 574 165 574 165 508 c 2,52,-1
 165 217 l 2,53,54
 165 151 165 151 195.5 119.5 c 128,-1,55
 226 88 226 88 283 88 c 0,56,57
 339 88 339 88 370.5 119.5 c 128,-1,58
 402 151 402 151 402 217 c 2,59,-1
 402 508 l 2,46,47
EndSplineSet
EndChar
StartChar: Otilde
Encoding: 213 213 86
Width: 566
Flags: W
LayerCount: 2
Back
Fore
SplineSet
283 -6 m 0,0,1
 235 -6 235 -6 194 6 c 128,-1,2
 153 18 153 18 123 44.5 c 128,-1,3
 93 71 93 71 76 113.5 c 128,-1,4
 59 156 59 156 59 217 c 2,5,-1
 59 508 l 2,6,7
 59 569 59 569 76 611.5 c 128,-1,8
 93 654 93 654 123 680.5 c 128,-1,9
 153 707 153 707 194 719 c 128,-1,10
 235 731 235 731 283 731 c 0,11,12
 330 731 330 731 371 719 c 128,-1,13
 412 707 412 707 442.5 680.5 c 128,-1,14
 473 654 473 654 490.5 611.5 c 128,-1,15
 508 569 508 569 508 508 c 2,16,-1
 508 217 l 2,17,18
 508 156 508 156 490.5 113.5 c 128,-1,19
 473 71 473 71 442.5 44.5 c 128,-1,20
 412 18 412 18 371 6 c 128,-1,21
 330 -6 330 -6 283 -6 c 0,0,1
402 508 m 2,22,23
 402 574 402 574 370.5 605.5 c 128,-1,24
 339 637 339 637 283 637 c 0,25,26
 226 637 226 637 195.5 605.5 c 128,-1,27
 165 574 165 574 165 508 c 2,28,-1
 165 217 l 2,29,30
 165 151 165 151 195.5 119.5 c 128,-1,31
 226 88 226 88 283 88 c 0,32,33
 339 88 339 88 370.5 119.5 c 128,-1,34
 402 151 402 151 402 217 c 2,35,-1
 402 508 l 2,22,23
224 874 m 0,36,37
 208 874 208 874 196.5 870 c 128,-1,38
 185 866 185 866 176 860.5 c 128,-1,39
 167 855 167 855 160 851 c 128,-1,40
 153 847 153 847 146 847 c 0,41,42
 138 847 138 847 132.5 851 c 128,-1,43
 127 855 127 855 124 861 c 128,-1,44
 121 867 121 867 119.5 873 c 128,-1,45
 118 879 118 879 118 883 c 0,46,47
 118 902 118 902 128 914.5 c 128,-1,48
 138 927 138 927 152 934.5 c 128,-1,49
 166 942 166 942 180.5 944.5 c 128,-1,50
 195 947 195 947 205 947 c 0,51,52
 226 947 226 947 242.5 942 c 128,-1,53
 259 937 259 937 274.5 931.5 c 128,-1,54
 290 926 290 926 306.5 921 c 128,-1,55
 323 916 323 916 343 916 c 0,56,57
 359 916 359 916 370.5 920 c 128,-1,58
 382 924 382 924 390.5 928.5 c 128,-1,59
 399 933 399 933 405.5 937 c 128,-1,60
 412 941 412 941 420 941 c 0,61,62
 436 941 436 941 442 927.5 c 128,-1,63
 448 914 448 914 448 907 c 0,64,65
 448 886 448 886 438 873.5 c 128,-1,66
 428 861 428 861 414.5 854.5 c 128,-1,67
 401 848 401 848 386.5 845.5 c 128,-1,68
 372 843 372 843 363 843 c 0,69,70
 340 843 340 843 323 848 c 128,-1,71
 306 853 306 853 290.5 858.5 c 128,-1,72
 275 864 275 864 259 869 c 128,-1,73
 243 874 243 874 224 874 c 0,36,37
EndSplineSet
EndChar
StartChar: Odieresis
Encoding: 214 214 79
Width: 566
Flags: W
LayerCount: 2
Back
Fore
SplineSet
215 923 m 0,0,1
 234 923 234 923 246.5 909.5 c 128,-1,2
 259 896 259 896 259 877 c 256,3,4
 259 858 259 858 246.5 844 c 128,-1,5
 234 830 234 830 215 830 c 0,6,7
 195 830 195 830 182 844 c 128,-1,8
 169 858 169 858 169 877 c 256,9,10
 169 896 169 896 182 909.5 c 128,-1,11
 195 923 195 923 215 923 c 0,0,1
354 923 m 256,12,13
 373 923 373 923 386 909.5 c 128,-1,14
 399 896 399 896 399 877 c 256,15,16
 399 858 399 858 386 844 c 128,-1,17
 373 830 373 830 354 830 c 256,18,19
 335 830 335 830 322 844 c 128,-1,20
 309 858 309 858 309 877 c 256,21,22
 309 896 309 896 322 909.5 c 128,-1,23
 335 923 335 923 354 923 c 256,12,13
283 -6 m 0,24,25
 235 -6 235 -6 194 6 c 128,-1,26
 153 18 153 18 123 44.5 c 128,-1,27
 93 71 93 71 76 113.5 c 128,-1,28
 59 156 59 156 59 217 c 2,29,-1
 59 508 l 2,30,31
 59 569 59 569 76 611.5 c 128,-1,32
 93 654 93 654 123 680.5 c 128,-1,33
 153 707 153 707 194 719 c 128,-1,34
 235 731 235 731 283 731 c 0,35,36
 330 731 330 731 371 719 c 128,-1,37
 412 707 412 707 442.5 680.5 c 128,-1,38
 473 654 473 654 490.5 611.5 c 128,-1,39
 508 569 508 569 508 508 c 2,40,-1
 508 217 l 2,41,42
 508 156 508 156 490.5 113.5 c 128,-1,43
 473 71 473 71 442.5 44.5 c 128,-1,44
 412 18 412 18 371 6 c 128,-1,45
 330 -6 330 -6 283 -6 c 0,24,25
402 508 m 2,46,47
 402 574 402 574 370.5 605.5 c 128,-1,48
 339 637 339 637 283 637 c 0,49,50
 226 637 226 637 195.5 605.5 c 128,-1,51
 165 574 165 574 165 508 c 2,52,-1
 165 217 l 2,53,54
 165 151 165 151 195.5 119.5 c 128,-1,55
 226 88 226 88 283 88 c 0,56,57
 339 88 339 88 370.5 119.5 c 128,-1,58
 402 151 402 151 402 217 c 2,59,-1
 402 508 l 2,46,47
EndSplineSet
EndChar
StartChar: multiply
Encoding: 215 215 279
Width: 403
Flags: W
LayerCount: 2
Back
Fore
SplineSet
356 170 m 0,0,1
 356 153 356 153 340 137 c 128,-1,2
 324 121 324 121 306 121 c 0,3,4
 293 121 293 121 284 130 c 2,5,-1
 201 213 l 1,6,-1
 119 130 l 2,7,8
 110 121 110 121 97 121 c 0,9,10
 89 121 89 121 80 125.5 c 128,-1,11
 71 130 71 130 64 137 c 128,-1,12
 57 144 57 144 52.5 153 c 128,-1,13
 48 162 48 162 48 171 c 0,14,15
 48 182 48 182 57 193 c 2,16,-1
 145 275 l 1,17,-1
 58 356 l 2,18,19
 49 365 49 365 49 379 c 0,20,21
 49 397 49 397 64 412.5 c 128,-1,22
 79 428 79 428 98 428 c 0,23,24
 111 428 111 428 120 419 c 2,25,-1
 201 337 l 1,26,-1
 283 419 l 2,27,28
 292 428 292 428 305 428 c 0,29,30
 324 428 324 428 339 412.5 c 128,-1,31
 354 397 354 397 354 379 c 0,32,33
 354 366 354 366 346 356 c 2,34,-1
 258 275 l 1,35,-1
 346 193 l 2,36,37
 356 183 356 183 356 170 c 0,0,1
EndSplineSet
EndChar
StartChar: Oslash
Encoding: 216 216 84
Width: 566
Flags: W
LayerCount: 2
Back
Fore
SplineSet
465 770 m 0,0,1
 480 770 480 770 493.5 759.5 c 128,-1,2
 507 749 507 749 507 732 c 0,3,4
 507 723 507 723 503 716 c 2,5,-1
 470 650 l 1,6,7
 488 624 488 624 498 588.5 c 128,-1,8
 508 553 508 553 508 508 c 2,9,-1
 508 217 l 2,10,11
 508 156 508 156 490.5 113.5 c 128,-1,12
 473 71 473 71 442.5 44.5 c 128,-1,13
 412 18 412 18 371 6 c 128,-1,14
 330 -6 330 -6 283 -6 c 0,15,16
 247 -6 247 -6 214.5 1 c 128,-1,17
 182 8 182 8 155 22 c 1,18,-1
 136 -16 l 2,19,20
 126 -35 126 -35 103 -35 c 0,21,22
 86 -35 86 -35 75 -23.5 c 128,-1,23
 64 -12 64 -12 64 2 c 0,24,25
 64 9 64 9 67 17 c 2,26,-1
 96 75 l 1,27,28
 79 101 79 101 69 136 c 128,-1,29
 59 171 59 171 59 217 c 2,30,-1
 59 508 l 2,31,32
 59 569 59 569 76 611.5 c 128,-1,33
 93 654 93 654 123 680.5 c 128,-1,34
 153 707 153 707 194 719 c 128,-1,35
 235 731 235 731 283 731 c 0,36,37
 318 731 318 731 350.5 724 c 128,-1,38
 383 717 383 717 410 702 c 1,39,-1
 435 752 l 2,40,41
 443 770 443 770 465 770 c 0,0,1
402 514 m 1,42,-1
 201 114 l 1,43,44
 230 88 230 88 283 88 c 0,45,46
 339 88 339 88 370.5 119.5 c 128,-1,47
 402 151 402 151 402 217 c 2,48,-1
 402 514 l 1,42,-1
364 611 m 1,49,50
 333 637 333 637 283 637 c 0,51,52
 226 637 226 637 195.5 605.5 c 128,-1,53
 165 574 165 574 165 508 c 2,54,-1
 165 212 l 1,55,-1
 364 611 l 1,49,50
EndSplineSet
EndChar
StartChar: Ugrave
Encoding: 217 217 109
Width: 583
Flags: W
LayerCount: 2
Back
Fore
SplineSet
414 697 m 2,0,1
 414 715 414 715 430.5 723 c 128,-1,2
 447 731 447 731 467 731 c 256,3,4
 487 731 487 731 503.5 723 c 128,-1,5
 520 715 520 715 520 697 c 2,6,-1
 520 217 l 2,7,8
 520 156 520 156 502.5 113.5 c 128,-1,9
 485 71 485 71 454 44.5 c 128,-1,10
 423 18 423 18 381 6 c 128,-1,11
 339 -6 339 -6 291 -6 c 256,12,13
 243 -6 243 -6 201.5 6 c 128,-1,14
 160 18 160 18 129 44.5 c 128,-1,15
 98 71 98 71 80.5 113.5 c 128,-1,16
 63 156 63 156 63 217 c 2,17,-1
 63 697 l 2,18,19
 63 715 63 715 79.5 723 c 128,-1,20
 96 731 96 731 116 731 c 256,21,22
 136 731 136 731 152.5 723 c 128,-1,23
 169 715 169 715 169 697 c 2,24,-1
 169 217 l 2,25,26
 169 151 169 151 201.5 119.5 c 128,-1,27
 234 88 234 88 291 88 c 0,28,29
 349 88 349 88 381.5 119.5 c 128,-1,30
 414 151 414 151 414 217 c 2,31,-1
 414 697 l 2,0,1
202 888 m 2,32,33
 194 892 194 892 190 899.5 c 128,-1,34
 186 907 186 907 186 915 c 0,35,36
 186 929 186 929 195.5 942.5 c 128,-1,37
 205 956 205 956 220 956 c 0,38,39
 223 956 223 956 231 954 c 2,40,-1
 355 891 l 2,41,42
 370 883 370 883 370 865 c 0,43,44
 370 851 370 851 360 837.5 c 128,-1,45
 350 824 350 824 336 824 c 0,46,47
 329 824 329 824 323 827 c 2,48,-1
 202 888 l 2,32,33
EndSplineSet
EndChar
StartChar: Uacute
Encoding: 218 218 105
Width: 583
Flags: W
LayerCount: 2
Back
Fore
SplineSet
263 827 m 2,0,1
 257 824 257 824 251 824 c 0,2,3
 236 824 236 824 226 837.5 c 128,-1,4
 216 851 216 851 216 865 c 0,5,6
 216 883 216 883 231 891 c 2,7,-1
 355 954 l 2,8,9
 363 956 363 956 366 956 c 0,10,11
 381 956 381 956 390.5 942.5 c 128,-1,12
 400 929 400 929 400 915 c 0,13,14
 400 907 400 907 396.5 899.5 c 128,-1,15
 393 892 393 892 384 888 c 2,16,-1
 263 827 l 2,0,1
414 697 m 2,17,18
 414 715 414 715 430.5 723 c 128,-1,19
 447 731 447 731 467 731 c 256,20,21
 487 731 487 731 503.5 723 c 128,-1,22
 520 715 520 715 520 697 c 2,23,-1
 520 217 l 2,24,25
 520 156 520 156 502.5 113.5 c 128,-1,26
 485 71 485 71 454 44.5 c 128,-1,27
 423 18 423 18 381 6 c 128,-1,28
 339 -6 339 -6 291 -6 c 256,29,30
 243 -6 243 -6 201.5 6 c 128,-1,31
 160 18 160 18 129 44.5 c 128,-1,32
 98 71 98 71 80.5 113.5 c 128,-1,33
 63 156 63 156 63 217 c 2,34,-1
 63 697 l 2,35,36
 63 715 63 715 79.5 723 c 128,-1,37
 96 731 96 731 116 731 c 256,38,39
 136 731 136 731 152.5 723 c 128,-1,40
 169 715 169 715 169 697 c 2,41,-1
 169 217 l 2,42,43
 169 151 169 151 201.5 119.5 c 128,-1,44
 234 88 234 88 291 88 c 0,45,46
 349 88 349 88 381.5 119.5 c 128,-1,47
 414 151 414 151 414 217 c 2,48,-1
 414 697 l 2,17,18
EndSplineSet
EndChar
StartChar: Ucircumflex
Encoding: 219 219 107
Width: 583
Flags: W
LayerCount: 2
Back
Fore
SplineSet
183 832 m 2,0,1
 178 829 178 829 174 829 c 0,2,3
 163 829 163 829 155.5 839.5 c 128,-1,4
 148 850 148 850 148 864 c 0,5,6
 148 873 148 873 152 881.5 c 128,-1,7
 156 890 156 890 166 895 c 2,8,-1
 270 951 l 2,9,10
 280 956 280 956 287 956 c 0,11,12
 296 956 296 956 304 951 c 2,13,-1
 408 896 l 2,14,15
 427 884 427 884 427 863 c 0,16,17
 427 850 427 850 419.5 839.5 c 128,-1,18
 412 829 412 829 401 829 c 0,19,20
 399 829 399 829 396.5 830 c 128,-1,21
 394 831 394 831 391 832 c 2,22,-1
 287 888 l 1,23,-1
 183 832 l 2,0,1
414 697 m 2,24,25
 414 715 414 715 430.5 723 c 128,-1,26
 447 731 447 731 467 731 c 256,27,28
 487 731 487 731 503.5 723 c 128,-1,29
 520 715 520 715 520 697 c 2,30,-1
 520 217 l 2,31,32
 520 156 520 156 502.5 113.5 c 128,-1,33
 485 71 485 71 454 44.5 c 128,-1,34
 423 18 423 18 381 6 c 128,-1,35
 339 -6 339 -6 291 -6 c 256,36,37
 243 -6 243 -6 201.5 6 c 128,-1,38
 160 18 160 18 129 44.5 c 128,-1,39
 98 71 98 71 80.5 113.5 c 128,-1,40
 63 156 63 156 63 217 c 2,41,-1
 63 697 l 2,42,43
 63 715 63 715 79.5 723 c 128,-1,44
 96 731 96 731 116 731 c 256,45,46
 136 731 136 731 152.5 723 c 128,-1,47
 169 715 169 715 169 697 c 2,48,-1
 169 217 l 2,49,50
 169 151 169 151 201.5 119.5 c 128,-1,51
 234 88 234 88 291 88 c 0,52,53
 349 88 349 88 381.5 119.5 c 128,-1,54
 414 151 414 151 414 217 c 2,55,-1
 414 697 l 2,24,25
EndSplineSet
EndChar
StartChar: Udieresis
Encoding: 220 220 108
Width: 583
Flags: W
LayerCount: 2
Back
Fore
SplineSet
222 923 m 0,0,1
 241 923 241 923 253.5 909.5 c 128,-1,2
 266 896 266 896 266 877 c 256,3,4
 266 858 266 858 253.5 844 c 128,-1,5
 241 830 241 830 222 830 c 0,6,7
 202 830 202 830 189 844 c 128,-1,8
 176 858 176 858 176 877 c 256,9,10
 176 896 176 896 189 909.5 c 128,-1,11
 202 923 202 923 222 923 c 0,0,1
361 923 m 256,12,13
 380 923 380 923 393 909.5 c 128,-1,14
 406 896 406 896 406 877 c 256,15,16
 406 858 406 858 393 844 c 128,-1,17
 380 830 380 830 361 830 c 256,18,19
 342 830 342 830 329 844 c 128,-1,20
 316 858 316 858 316 877 c 256,21,22
 316 896 316 896 329 909.5 c 128,-1,23
 342 923 342 923 361 923 c 256,12,13
414 697 m 2,24,25
 414 715 414 715 430.5 723 c 128,-1,26
 447 731 447 731 467 731 c 256,27,28
 487 731 487 731 503.5 723 c 128,-1,29
 520 715 520 715 520 697 c 2,30,-1
 520 217 l 2,31,32
 520 156 520 156 502.5 113.5 c 128,-1,33
 485 71 485 71 454 44.5 c 128,-1,34
 423 18 423 18 381 6 c 128,-1,35
 339 -6 339 -6 291 -6 c 256,36,37
 243 -6 243 -6 201.5 6 c 128,-1,38
 160 18 160 18 129 44.5 c 128,-1,39
 98 71 98 71 80.5 113.5 c 128,-1,40
 63 156 63 156 63 217 c 2,41,-1
 63 697 l 2,42,43
 63 715 63 715 79.5 723 c 128,-1,44
 96 731 96 731 116 731 c 256,45,46
 136 731 136 731 152.5 723 c 128,-1,47
 169 715 169 715 169 697 c 2,48,-1
 169 217 l 2,49,50
 169 151 169 151 201.5 119.5 c 128,-1,51
 234 88 234 88 291 88 c 0,52,53
 349 88 349 88 381.5 119.5 c 128,-1,54
 414 151 414 151 414 217 c 2,55,-1
 414 697 l 2,24,25
EndSplineSet
EndChar
StartChar: Yacute
Encoding: 221 221 123
Width: 558
Flags: W
LayerCount: 2
Back
Fore
SplineSet
227 288 m 2,0,1
 227 291 227 291 226 294 c 128,-1,2
 225 297 225 297 224 299 c 2,3,-1
 17 672 l 2,4,5
 13 680 13 680 13 687 c 0,6,7
 13 697 13 697 19.5 705 c 128,-1,8
 26 713 26 713 36 719 c 128,-1,9
 46 725 46 725 57.5 728 c 128,-1,10
 69 731 69 731 80 731 c 0,11,12
 93 731 93 731 100.5 725 c 128,-1,13
 108 719 108 719 115 707 c 2,14,-1
 280 390 l 1,15,-1
 444 707 l 2,16,17
 456 731 456 731 479 731 c 0,18,19
 489 731 489 731 501 728 c 128,-1,20
 513 725 513 725 522.5 719 c 128,-1,21
 532 713 532 713 538.5 705 c 128,-1,22
 545 697 545 697 545 687 c 0,23,24
 545 684 545 684 544.5 680.5 c 128,-1,25
 544 677 544 677 542 672 c 2,26,-1
 335 299 l 2,27,28
 333 293 333 293 333 288 c 2,29,-1
 333 35 l 2,30,31
 333 18 333 18 316.5 9 c 128,-1,32
 300 0 300 0 280 0 c 256,33,34
 260 0 260 0 243.5 9 c 128,-1,35
 227 18 227 18 227 35 c 2,36,-1
 227 288 l 2,0,1
246 827 m 2,37,38
 240 824 240 824 234 824 c 0,39,40
 219 824 219 824 209 837.5 c 128,-1,41
 199 851 199 851 199 865 c 0,42,43
 199 883 199 883 214 891 c 2,44,-1
 338 954 l 2,45,46
 346 956 346 956 349 956 c 0,47,48
 364 956 364 956 373.5 942.5 c 128,-1,49
 383 929 383 929 383 915 c 0,50,51
 383 907 383 907 379.5 899.5 c 128,-1,52
 376 892 376 892 367 888 c 2,53,-1
 246 827 l 2,37,38
EndSplineSet
EndChar
StartChar: Thorn
Encoding: 222 222 103
Width: 511
Flags: W
LayerCount: 2
Back
Fore
SplineSet
117 741 m 0,0,1
 141 741 141 741 156 731.5 c 128,-1,2
 171 722 171 722 171 706 c 2,3,-1
 171 545 l 1,4,5
 188 575 188 575 221.5 598 c 128,-1,6
 255 621 255 621 304 621 c 0,7,8
 340 621 340 621 372 607.5 c 128,-1,9
 404 594 404 594 428 569.5 c 128,-1,10
 452 545 452 545 466 511.5 c 128,-1,11
 480 478 480 478 480 438 c 2,12,-1
 480 317 l 2,13,14
 480 278 480 278 465.5 244 c 128,-1,15
 451 210 451 210 427 185 c 128,-1,16
 403 160 403 160 372.5 146 c 128,-1,17
 342 132 342 132 309 132 c 0,18,19
 286 132 286 132 264.5 138.5 c 128,-1,20
 243 145 243 145 224.5 155.5 c 128,-1,21
 206 166 206 166 192 180.5 c 128,-1,22
 178 195 178 195 171 211 c 1,23,-1
 171 35 l 2,24,25
 171 22 171 22 156 11 c 128,-1,26
 141 0 141 0 118 0 c 256,27,28
 95 0 95 0 80.5 11 c 128,-1,29
 66 22 66 22 66 35 c 2,30,-1
 66 707 l 2,31,32
 66 723 66 723 81 732 c 128,-1,33
 96 741 96 741 117 741 c 0,0,1
375 438 m 2,34,35
 375 458 375 458 366.5 474.5 c 128,-1,36
 358 491 358 491 344 503 c 128,-1,37
 330 515 330 515 312 521.5 c 128,-1,38
 294 528 294 528 274 528 c 256,39,40
 254 528 254 528 235.5 521.5 c 128,-1,41
 217 515 217 515 202.5 503.5 c 128,-1,42
 188 492 188 492 179.5 475.5 c 128,-1,43
 171 459 171 459 171 438 c 2,44,-1
 171 310 l 2,45,46
 171 298 171 298 179 283 c 128,-1,47
 187 268 187 268 201 255.5 c 128,-1,48
 215 243 215 243 234 234.5 c 128,-1,49
 253 226 253 226 276 226 c 0,50,51
 295 226 295 226 312.5 232.5 c 128,-1,52
 330 239 330 239 344 251 c 128,-1,53
 358 263 358 263 366.5 279.5 c 128,-1,54
 375 296 375 296 375 317 c 2,55,-1
 375 438 l 2,34,35
EndSplineSet
EndChar
StartChar: germandbls
Encoding: 223 223 234
Width: 581
Flags: W
LayerCount: 2
Back
Fore
SplineSet
343 -20 m 0,0,1
 328 -20 328 -20 310 -18.5 c 128,-1,2
 292 -17 292 -17 277 -11.5 c 128,-1,3
 262 -6 262 -6 251.5 4.5 c 128,-1,4
 241 15 241 15 241 34 c 0,5,6
 241 49 241 49 247.5 66.5 c 128,-1,7
 254 84 254 84 268 84 c 0,8,9
 279 84 279 84 295 76.5 c 128,-1,10
 311 69 311 69 340 69 c 0,11,12
 390 69 390 69 418.5 102 c 128,-1,13
 447 135 447 135 447 198 c 2,14,-1
 447 213 l 2,15,16
 447 279 447 279 412.5 318 c 128,-1,17
 378 357 378 357 314 368 c 0,18,19
 297 371 297 371 287 378.5 c 128,-1,20
 277 386 277 386 277 411 c 0,21,22
 277 435 277 435 287.5 441 c 128,-1,23
 298 447 298 447 315 451 c 0,24,25
 336 454 336 454 348 466 c 128,-1,26
 360 478 360 478 367 493.5 c 128,-1,27
 374 509 374 509 376 527 c 128,-1,28
 378 545 378 545 378 560 c 0,29,30
 378 611 378 611 356.5 643 c 128,-1,31
 335 675 335 675 287 675 c 0,32,33
 262 675 262 675 245 666.5 c 128,-1,34
 228 658 228 658 218 643.5 c 128,-1,35
 208 629 208 629 204 610.5 c 128,-1,36
 200 592 200 592 200 573 c 2,37,-1
 200 34 l 2,38,39
 200 19 200 19 184 9.5 c 128,-1,40
 168 0 168 0 146 0 c 256,41,42
 124 0 124 0 109.5 9.5 c 128,-1,43
 95 19 95 19 95 34 c 2,44,-1
 95 396 l 1,45,-1
 33 396 l 2,46,47
 19 396 19 396 11.5 407.5 c 128,-1,48
 4 419 4 419 4 435 c 0,49,50
 4 450 4 450 11.5 462 c 128,-1,51
 19 474 19 474 33 474 c 2,52,-1
 95 474 l 1,53,-1
 95 573 l 2,54,55
 95 612 95 612 105 647.5 c 128,-1,56
 115 683 115 683 137 709.5 c 128,-1,57
 159 736 159 736 194.5 752 c 128,-1,58
 230 768 230 768 280 768 c 0,59,60
 319 768 319 768 353 757 c 128,-1,61
 387 746 387 746 412 723.5 c 128,-1,62
 437 701 437 701 451.5 666.5 c 128,-1,63
 466 632 466 632 466 585 c 0,64,65
 466 559 466 559 461.5 534 c 128,-1,66
 457 509 457 509 448.5 487 c 128,-1,67
 440 465 440 465 427 448 c 128,-1,68
 414 431 414 431 397 423 c 1,69,70
 423 418 423 418 450 401 c 128,-1,71
 477 384 477 384 499 358 c 128,-1,72
 521 332 521 332 535 297 c 128,-1,73
 549 262 549 262 549 221 c 2,74,-1
 549 206 l 2,75,76
 549 150 549 150 532 107.5 c 128,-1,77
 515 65 515 65 486.5 36.5 c 128,-1,78
 458 8 458 8 420.5 -6 c 128,-1,79
 383 -20 383 -20 343 -20 c 0,0,1
EndSplineSet
EndChar
StartChar: agrave
Encoding: 224 224 140
Width: 460
Flags: W
LayerCount: 2
Back
Fore
SplineSet
206 480 m 0,0,1
 261 480 261 480 299.5 463.5 c 128,-1,2
 338 447 338 447 362 420 c 128,-1,3
 386 393 386 393 397 358 c 128,-1,4
 408 323 408 323 408 286 c 2,5,-1
 408 35 l 2,6,7
 408 21 408 21 393.5 10.5 c 128,-1,8
 379 0 379 0 357 0 c 0,9,10
 337 0 337 0 323 10.5 c 128,-1,11
 309 21 309 21 309 35 c 2,12,-1
 309 70 l 1,13,14
 283 39 283 39 246 15.5 c 128,-1,15
 209 -8 209 -8 158 -8 c 0,16,17
 131 -8 131 -8 106.5 0 c 128,-1,18
 82 8 82 8 64 24.5 c 128,-1,19
 46 41 46 41 35.5 65.5 c 128,-1,20
 25 90 25 90 25 124 c 0,21,22
 25 166 25 166 42 194 c 128,-1,23
 59 222 59 222 90 238 c 128,-1,24
 121 254 121 254 164 260.5 c 128,-1,25
 207 267 207 267 259 267 c 2,26,-1
 303 267 l 1,27,-1
 303 285 l 2,28,29
 303 304 303 304 298 323.5 c 128,-1,30
 293 343 293 343 281 358.5 c 128,-1,31
 269 374 269 374 250 383.5 c 128,-1,32
 231 393 231 393 204 393 c 256,33,34
 177 393 177 393 159 388.5 c 128,-1,35
 141 384 141 384 129 378 c 128,-1,36
 117 372 117 372 108.5 367.5 c 128,-1,37
 100 363 100 363 93 363 c 0,38,39
 74 363 74 363 64.5 380.5 c 128,-1,40
 55 398 55 398 55 416 c 0,41,42
 55 429 55 429 69 441 c 128,-1,43
 83 453 83 453 105 461.5 c 128,-1,44
 127 470 127 470 153.5 475 c 128,-1,45
 180 480 180 480 206 480 c 0,0,1
303 209 m 1,46,-1
 278 209 l 2,47,48
 249 209 249 209 222.5 206.5 c 128,-1,49
 196 204 196 204 176 196.5 c 128,-1,50
 156 189 156 189 143.5 175 c 128,-1,51
 131 161 131 161 131 137 c 0,52,53
 131 103 131 103 149.5 87.5 c 128,-1,54
 168 72 168 72 196 72 c 0,55,56
 215 72 215 72 234 81 c 128,-1,57
 253 90 253 90 268.5 104 c 128,-1,58
 284 118 284 118 293.5 136 c 128,-1,59
 303 154 303 154 303 172 c 2,60,-1
 303 209 l 1,46,-1
143 641 m 2,61,62
 135 645 135 645 131 652.5 c 128,-1,63
 127 660 127 660 127 668 c 0,64,65
 127 682 127 682 136.5 695.5 c 128,-1,66
 146 709 146 709 161 709 c 0,67,68
 164 709 164 709 172 707 c 2,69,-1
 296 644 l 2,70,71
 311 636 311 636 311 618 c 0,72,73
 311 604 311 604 301 590.5 c 128,-1,74
 291 577 291 577 277 577 c 0,75,76
 270 577 270 577 264 580 c 2,77,-1
 143 641 l 2,61,62
EndSplineSet
EndChar
StartChar: acircumflex
Encoding: 226 226 135
Width: 460
Flags: W
LayerCount: 2
Back
Fore
SplineSet
111 585 m 2,0,1
 106 582 106 582 102 582 c 0,2,3
 91 582 91 582 83.5 592.5 c 128,-1,4
 76 603 76 603 76 617 c 0,5,6
 76 626 76 626 80 634.5 c 128,-1,7
 84 643 84 643 94 648 c 2,8,-1
 198 704 l 2,9,10
 208 709 208 709 215 709 c 0,11,12
 224 709 224 709 232 704 c 2,13,-1
 336 649 l 2,14,15
 355 637 355 637 355 616 c 0,16,17
 355 603 355 603 347.5 592.5 c 128,-1,18
 340 582 340 582 329 582 c 0,19,20
 327 582 327 582 324.5 583 c 128,-1,21
 322 584 322 584 319 585 c 2,22,-1
 215 641 l 1,23,-1
 111 585 l 2,0,1
206 480 m 0,24,25
 261 480 261 480 299.5 463.5 c 128,-1,26
 338 447 338 447 362 420 c 128,-1,27
 386 393 386 393 397 358 c 128,-1,28
 408 323 408 323 408 286 c 2,29,-1
 408 35 l 2,30,31
 408 21 408 21 393.5 10.5 c 128,-1,32
 379 0 379 0 357 0 c 0,33,34
 337 0 337 0 323 10.5 c 128,-1,35
 309 21 309 21 309 35 c 2,36,-1
 309 70 l 1,37,38
 283 39 283 39 246 15.5 c 128,-1,39
 209 -8 209 -8 158 -8 c 0,40,41
 131 -8 131 -8 106.5 0 c 128,-1,42
 82 8 82 8 64 24.5 c 128,-1,43
 46 41 46 41 35.5 65.5 c 128,-1,44
 25 90 25 90 25 124 c 0,45,46
 25 166 25 166 42 194 c 128,-1,47
 59 222 59 222 90 238 c 128,-1,48
 121 254 121 254 164 260.5 c 128,-1,49
 207 267 207 267 259 267 c 2,50,-1
 303 267 l 1,51,-1
 303 285 l 2,52,53
 303 304 303 304 298 323.5 c 128,-1,54
 293 343 293 343 281 358.5 c 128,-1,55
 269 374 269 374 250 383.5 c 128,-1,56
 231 393 231 393 204 393 c 256,57,58
 177 393 177 393 159 388.5 c 128,-1,59
 141 384 141 384 129 378 c 128,-1,60
 117 372 117 372 108.5 367.5 c 128,-1,61
 100 363 100 363 93 363 c 0,62,63
 74 363 74 363 64.5 380.5 c 128,-1,64
 55 398 55 398 55 416 c 0,65,66
 55 429 55 429 69 441 c 128,-1,67
 83 453 83 453 105 461.5 c 128,-1,68
 127 470 127 470 153.5 475 c 128,-1,69
 180 480 180 480 206 480 c 0,24,25
303 209 m 1,70,-1
 278 209 l 2,71,72
 249 209 249 209 222.5 206.5 c 128,-1,73
 196 204 196 204 176 196.5 c 128,-1,74
 156 189 156 189 143.5 175 c 128,-1,75
 131 161 131 161 131 137 c 0,76,77
 131 103 131 103 149.5 87.5 c 128,-1,78
 168 72 168 72 196 72 c 0,79,80
 215 72 215 72 234 81 c 128,-1,81
 253 90 253 90 268.5 104 c 128,-1,82
 284 118 284 118 293.5 136 c 128,-1,83
 303 154 303 154 303 172 c 2,84,-1
 303 209 l 1,70,-1
EndSplineSet
EndChar
StartChar: atilde
Encoding: 227 227 154
Width: 460
Flags: W
LayerCount: 2
Back
Fore
SplineSet
206 480 m 0,0,1
 261 480 261 480 299.5 463.5 c 128,-1,2
 338 447 338 447 362 420 c 128,-1,3
 386 393 386 393 397 358 c 128,-1,4
 408 323 408 323 408 286 c 2,5,-1
 408 35 l 2,6,7
 408 21 408 21 393.5 10.5 c 128,-1,8
 379 0 379 0 357 0 c 0,9,10
 337 0 337 0 323 10.5 c 128,-1,11
 309 21 309 21 309 35 c 2,12,-1
 309 70 l 1,13,14
 283 39 283 39 246 15.5 c 128,-1,15
 209 -8 209 -8 158 -8 c 0,16,17
 131 -8 131 -8 106.5 0 c 128,-1,18
 82 8 82 8 64 24.5 c 128,-1,19
 46 41 46 41 35.5 65.5 c 128,-1,20
 25 90 25 90 25 124 c 0,21,22
 25 166 25 166 42 194 c 128,-1,23
 59 222 59 222 90 238 c 128,-1,24
 121 254 121 254 164 260.5 c 128,-1,25
 207 267 207 267 259 267 c 2,26,-1
 303 267 l 1,27,-1
 303 285 l 2,28,29
 303 304 303 304 298 323.5 c 128,-1,30
 293 343 293 343 281 358.5 c 128,-1,31
 269 374 269 374 250 383.5 c 128,-1,32
 231 393 231 393 204 393 c 256,33,34
 177 393 177 393 159 388.5 c 128,-1,35
 141 384 141 384 129 378 c 128,-1,36
 117 372 117 372 108.5 367.5 c 128,-1,37
 100 363 100 363 93 363 c 0,38,39
 74 363 74 363 64.5 380.5 c 128,-1,40
 55 398 55 398 55 416 c 0,41,42
 55 429 55 429 69 441 c 128,-1,43
 83 453 83 453 105 461.5 c 128,-1,44
 127 470 127 470 153.5 475 c 128,-1,45
 180 480 180 480 206 480 c 0,0,1
303 209 m 1,46,-1
 278 209 l 2,47,48
 249 209 249 209 222.5 206.5 c 128,-1,49
 196 204 196 204 176 196.5 c 128,-1,50
 156 189 156 189 143.5 175 c 128,-1,51
 131 161 131 161 131 137 c 0,52,53
 131 103 131 103 149.5 87.5 c 128,-1,54
 168 72 168 72 196 72 c 0,55,56
 215 72 215 72 234 81 c 128,-1,57
 253 90 253 90 268.5 104 c 128,-1,58
 284 118 284 118 293.5 136 c 128,-1,59
 303 154 303 154 303 172 c 2,60,-1
 303 209 l 1,46,-1
160 627 m 0,61,62
 144 627 144 627 132.5 623 c 128,-1,63
 121 619 121 619 112 613.5 c 128,-1,64
 103 608 103 608 96 604 c 128,-1,65
 89 600 89 600 82 600 c 0,66,67
 74 600 74 600 68.5 604 c 128,-1,68
 63 608 63 608 60 614 c 128,-1,69
 57 620 57 620 55.5 626 c 128,-1,70
 54 632 54 632 54 636 c 0,71,72
 54 655 54 655 64 667.5 c 128,-1,73
 74 680 74 680 88 687.5 c 128,-1,74
 102 695 102 695 116.5 697.5 c 128,-1,75
 131 700 131 700 141 700 c 0,76,77
 162 700 162 700 178.5 695 c 128,-1,78
 195 690 195 690 210.5 684.5 c 128,-1,79
 226 679 226 679 242.5 674 c 128,-1,80
 259 669 259 669 279 669 c 0,81,82
 295 669 295 669 306.5 673 c 128,-1,83
 318 677 318 677 326.5 681.5 c 128,-1,84
 335 686 335 686 341.5 690 c 128,-1,85
 348 694 348 694 356 694 c 0,86,87
 372 694 372 694 378 680.5 c 128,-1,88
 384 667 384 667 384 660 c 0,89,90
 384 639 384 639 374 626.5 c 128,-1,91
 364 614 364 614 350.5 607.5 c 128,-1,92
 337 601 337 601 322.5 598.5 c 128,-1,93
 308 596 308 596 299 596 c 0,94,95
 276 596 276 596 259 601 c 128,-1,96
 242 606 242 606 226.5 611.5 c 128,-1,97
 211 617 211 617 195 622 c 128,-1,98
 179 627 179 627 160 627 c 0,61,62
EndSplineSet
EndChar
